<?xml version="1.0" encoding="utf-8"?>
<!-- Generator: Adobe Illustrator 24.2.1, SVG Export Plug-In . SVG Version: 6.00 Build 0)  -->
<svg version="1.1" id="Layer_1" xmlns="http://www.w3.org/2000/svg" xmlns:xlink="http://www.w3.org/1999/xlink" x="0px" y="0px"
	 viewBox="0 0 430.2 395.5" style="enable-background:new 0 0 430.2 395.5;" xml:space="preserve">
<style type="text/css">
	.st0{fill:#00B859;}
	.st1{fill:#01004E;}
	.st2{fill:#F7A772;}
	.st3{fill:#FFD05C;}
	.st4{fill:#CE854A;}
	.st5{fill:#2E7A68;}
	.st6{fill:#D24E00;}
	.st7{fill:#2D3570;}
	.st8{fill:#FF5F00;}
</style>
<g id="Layer_2_1_">
	<g id="OBJECTS">
		<path class="st0" d="M255.2,130.7c9,0,16.3,7.2,16.4,16.3s-7.2,16.3-16.3,16.4c-5.4,0-10.4-2.6-13.5-7v40.5H286v2.2
			c-7.3,4.9-9.3,14.7-4.5,22.1c4.9,7.3,14.7,9.3,22.1,4.5c7.3-4.9,9.3-14.7,4.5-22.1c-1.3-1.9-3-3.6-5-4.8v-1.9h44.7V94.5h-106v43.4
			C244.8,133.4,249.8,130.8,255.2,130.7z"/>
		<path class="st0" d="M207.5,313.7c-9,0-16.3-7.3-16.4-16.3c0-9,7.3-16.3,16.3-16.4c5.4,0,10.5,2.6,13.5,7.1v-40.5h-44.2v-2.2
			c7.3-4.9,9.3-14.7,4.5-22.1c-4.9-7.3-14.7-9.3-22.1-4.5c-7.3,4.9-9.3,14.7-4.5,22.1c1.3,1.9,3,3.6,5,4.8v1.9h-44.7V350h106v-43.3
			C217.9,311.1,212.8,313.7,207.5,313.7z"/>
		<path d="M319.8,257.4c0,9-7.3,16.3-16.3,16.3c-9,0-16.3-7.3-16.3-16.3c0-5.4,2.6-10.4,7-13.4h-40.5v44.2h-2.2
			c-4.9-7.3-14.7-9.3-22.1-4.5c-7.3,4.9-9.3,14.7-4.5,22.1s14.7,9.3,22.1,4.5c1.9-1.3,3.6-3,4.8-5h1.9V350H356V244h-43.3
			C317.1,247,319.8,252,319.8,257.4z"/>
		<path d="M139.4,187c0-9,7.3-16.3,16.3-16.3c9,0,16.3,7.3,16.3,16.3c0,5.4-2.6,10.4-7,13.4h40.5v-44.2h2.2
			c4.9,7.3,14.7,9.3,22.1,4.5c7.3-4.9,9.3-14.7,4.5-22.1c-4.9-7.3-14.7-9.3-22.1-4.5c-1.9,1.3-3.6,3-4.8,5h-1.9V94.5H103.1v106h43.3
			C142,197.4,139.4,192.4,139.4,187z"/>
		<path class="st1" d="M84.8,278.8c2,13.4,4.3,23.2,11.8,23.4c7.5,0.2,9.6-11.1,12-24.5c2.9-16.1-3.3-24.6-10.9-24.7
			S82.4,262.3,84.8,278.8z"/>
		<path class="st2" d="M90.1,263.6c-0.1,5.3,3.1,9.7,7.2,9.8c4.1,0.1,7.5-4.1,7.7-9.4c0.2-5.3-3.1-9.7-7.2-9.8
			C93.7,254.1,90.3,258.3,90.1,263.6z"/>
		<path class="st1" d="M107.8,264.7c0,0-8.9-3.8-10.1-11.5C97.7,253.2,107.6,254.8,107.8,264.7z"/>
		<path class="st1" d="M86.9,263.5c0,0,10-2.2,12.6-9.9C99.5,253.6,88.9,253.4,86.9,263.5z"/>
		<polygon class="st2" points="94.6,278.3 98.4,278.6 98.8,272.2 95,272 		"/>
		<path class="st2" d="M94.3,279.6c0,0-17.5-11.1-20.3-26.2l-1.2,0.2c0,0-1.9,12.8,20,31L94.3,279.6z"/>
		<path class="st2" d="M74.3,254.9c0,0,4-3,3.5-3.5c-0.5-0.5-2.6,1.6-2.6,1.6s0.9-5.9,0.4-5.8c-0.5,0.1-1.3,3.7-1.3,3.7
			s0.4-4.4-0.2-4.4c-0.6,0.1-0.7,4.2-0.7,4.2s-0.2-3.8-0.8-3.7s-0.2,3.6-0.2,3.6s-1.1-3-1.3-3c-0.4,0.1,0.4,4.9,0.4,4.9
			s0.4,3,2.7,2.5"/>
		<path class="st2" d="M99.9,279.3c0,0,12.7,16.6,27.6,17.6v1.3c0,0-12,3.5-32.2-16.7L99.9,279.3z"/>
		<path class="st2" d="M126.1,296.9c0,0,2.4-4.5,3-4c0.6,0.5-1.2,2.9-1.2,2.9s5.6-1.7,5.6-1.1c0,0.5-3.4,1.8-3.4,1.8s4.2-1,4.2-0.3
			c0.1,0.6-4,1.3-4,1.3s3.7-0.2,3.6,0.3c0,0.6-3.5,0.6-3.5,0.6s3,0.7,3,1c-0.1,0.4-4.7,0.2-4.7,0.2s-3-0.1-2.7-2.4"/>
		<polygon class="st2" points="104.1,330 101.3,360 99.4,360 98.7,329.2 		"/>
		<path class="st1" d="M101.6,356.6c3.7,1.1,6.9,3.2,9.3,6.2h-4.3l-5.6-2l-0.1,2h-1.7l0.1-6.1L101.6,356.6z"/>
		<polygon class="st2" points="93,328.4 92.9,358.5 91.1,358.7 87.6,328.1 		"/>
		<path class="st1" d="M90.8,356.7c-3.8,1-7.1,3.2-9.5,6.2h4.3l5.6-2l0.1,2h1.7v-6.1L90.8,356.7z"/>
		<path class="st3" d="M102.7,303.5c-5.8-9.5,9.9-21.3-5.8-26s-2.6,19.9-6.5,25.4c-3.9,5.5-5.5,30.4-5.5,30.4l23.7,0.4
			C108.5,333.7,108.5,313,102.7,303.5z"/>
		<path class="st4" d="M250.2,278.5c1.3-0.1,23.1-5.4,36.2-15.8l0.3,2.9c0,0-21.9,18-35.9,19.7L250.2,278.5z"/>
		<polygon class="st5" points="250.1,278.4 249.7,288.6 265.4,283.3 262.3,275 		"/>
		<path class="st4" d="M286.6,265.8c0,0,2.2-1.7,1.4-3.7c-0.8-2.1-1.7-3.4-1.1-4c0.9-1,1.4-2,0.9-2.3c-0.7-0.4-1.2,1.1-1.9,1.8
			s-0.4,3.9,0.2,5.9C286.4,264.2,286.5,265,286.6,265.8z"/>
		<path class="st1" d="M246.1,309.8c0,0,0.1,32.7,0.7,45.1l-3.6,0.1c0,0-4.8-18.1-4.1-43.1L246.1,309.8z"/>
		<path class="st6" d="M246.7,353.8c0,0,3.8-0.1,9.2,4.5l-12.4-0.3l-0.5-3.9L246.7,353.8z"/>
		<path class="st7" d="M233.9,302.5c0,0-7.2,22.8-4.8,53.5l3.5-0.1l8.4-50.5L233.9,302.5z"/>
		<path class="st7" d="M235,302.4c0.7-0.2,15.3,3,15.3,3s-2.7,8.7-9.5,8.1C232.4,312.8,235,302.4,235,302.4z"/>
		<path class="st8" d="M232.7,355.6c0,0,3.8-0.1,9.2,4.5l-12.4-0.3l-0.6-3.9L232.7,355.6z"/>
		<polygon class="st2" points="253.5,269.5 250.8,275.9 254.3,277 256.9,270.2 		"/>
		<path class="st1" d="M252.4,270.4l-4.6,1.5c0,0-6.3-10.4-4.5-13.7c1.7-3.2,14-8.4,16.2-7.6c2.2,0.8,1.3,8.4,1.3,8.4L252.4,270.4z"
			/>
		<path class="st2" d="M265.1,261.2c-2.5-7.9-7.4-6.2-10.6-4.9c-3.5,1.4-6.2,2.9-5.8,7.3c-0.2,0-0.5,0-0.7,0.1
			c-1.4,0.6-2,2.3-1.4,3.7c0.5,1.2,1.7,1.8,3,1.6c0.2-0.1,0.5-0.2,0.7-0.4c2.1,3.8,8.6,5,11.9,3.6
			C266.3,270.4,266.7,266.5,265.1,261.2z"/>
		<polygon class="st1" points="247.5,261.3 250.8,267.1 254.6,266 250.4,256.7 		"/>
		<path class="st0" d="M231.7,303c0,0,4.9,8.4,20.5,6.3c0,0,11-33.8,0.5-33.9C242.1,275.2,231.7,303,231.7,303z"/>
		<path class="st2" d="M249.5,281.1c1.3,0.3,23.7,1.5,39.3-4.6l-0.6,2.9c0,0-26.1,10.9-40.1,8.5L249.5,281.1z"/>
		<polygon class="st0" points="249.5,281 246.1,290.6 262.7,290 262.1,281.2 		"/>
		<path class="st2" d="M287.6,279.5c0,0,2.6-0.8,2.6-3.1s-0.6-3.7,0.1-4.1c0.8-0.5,2-1.3,1.6-1.9c-0.4-0.6-1.1,0.5-2,0.9
			c-0.9,0.5-1.9,3.6-2,5.8C288,278,287.8,278.8,287.6,279.5z"/>
		<path class="st1" d="M358.1,123.9l14.9-9.1c0,0,3.3-29,1.5-32.4c-1.7-3.2-13.8-8.7-16-8s-1.5,8.3-1.5,8.3L358.1,123.9z"/>
		<path class="st4" d="M365.7,108c1.3,0.3,22.1,8.6,33.7,20.7l0.7-2.9c0,0-19.1-20.9-32.8-24.5L365.7,108z"/>
		<path class="st4" d="M400,125.7c0,0,2,2,0.9,3.9c-1.1,2-2.1,3.1-1.7,3.8c0.8,1.1,1.1,2.1,0.5,2.4c-0.7,0.3-1-1.3-1.6-2
			c-0.6-0.8,0.1-3.9,1-5.8C399.6,127.2,399.8,126.5,400,125.7z"/>
		<path class="st2" d="M370.6,133.8c0,0-0.8,33.7-1.7,46.1l3.7,0.4c3.4-14.5,5-29.3,4.9-44.2L370.6,133.8z"/>
		<path class="st1" d="M368.9,179.9c0,0-3.8-0.1-9.3,4.3H372l0.7-3.9L368.9,179.9z"/>
		<path class="st2" d="M382.9,126.8c0,0,6.7,22.9,3.5,53.6l-3.5-0.2l-3.2-52.2L382.9,126.8z"/>
		<path class="st1" d="M382.8,179.9c0,0-3.8-0.1-9.3,4.3h12.4l0.7-3.9L382.8,179.9z"/>
		<polygon class="st2" points="364.1,93.4 366.7,99.8 363.1,100.9 360.7,94 		"/>
		<path class="st2" d="M352.7,84.8c2.7-7.8,7.5-6,10.7-4.7c3.4,1.4,6.1,3,5.6,7.4c0.2,0,0.5,0,0.7,0.1c1.4,0.7,1.9,2.4,1.2,3.8
			c-0.5,1-1.7,1.6-2.9,1.5c-0.2-0.1-0.5-0.2-0.7-0.4c-2.2,3.7-8.7,4.8-12,3.3C351.2,94,350.9,90.1,352.7,84.8z"/>
		<path class="st1" d="M370.7,85.2l-3.1,4.3c-0.9-0.9-1.7-2.1-2.2-3.3c-0.7-2-1-4.2-0.8-6.4C368.8,79.9,371.2,82.6,370.7,85.2z"/>
		<path class="st3" d="M385,127.4c0,0-0.7,1.9-16.2-0.6c0,0-14.6-27.7-4.1-27.6C375.3,99.4,385,127.4,385,127.4z"/>
		<path class="st2" d="M363.2,104.1c0.2,1.3-0.4,23.7-7.7,38.7l2.9-0.4c0,0,12.9-25.2,11.6-39.3c-0.9-1.8-3.1-2.6-4.9-1.6
			C364.2,102.1,363.5,103,363.2,104.1z"/>
		<path class="st2" d="M358.7,142c0,0-1.1,2.6-3.3,2.3c-2.2-0.2-3.7-0.9-4.1-0.3c-0.5,0.8-1.5,1.9-2,1.4s0.5-1,1.1-1.9
			c0.6-0.8,3.8-1.6,5.9-1.5C357.1,142.3,357.9,142.2,358.7,142z"/>
		<path class="st0" d="M383.5,123.4c0,0,6.4,7.9,5.3,31.6l-24.4-0.7c0,0,6.1-16.5,4.4-27.6L383.5,123.4z"/>
		<path class="st4" d="M201.9,59.3c1.1,0.5,22.1,6.5,38,3.7l-1.2,2.7c0,0-26.8,5.2-39.5-0.1L201.9,59.3z"/>
		<polygon class="st5" points="201.9,59.3 196.8,67.9 212.5,70.9 213.7,62.1 		"/>
		<path class="st4" d="M238.6,65.8c0,0,2.6-0.4,3-2.6c0.3-2.2,0.2-3.8,0.9-4c1.2-0.4,2.1-1,1.8-1.6c-0.4-0.7-1.5,0.4-2.4,0.7
			c-0.9,0.3-2.2,3.2-2.6,5.3C239.2,64.3,238.9,65.1,238.6,65.8z"/>
		<path class="st6" d="M224.2,122.6c0,0,3.6,0.6,8.1,6l-11.7-2.4l0.1-3.9L224.2,122.6z"/>
		<path class="st1" d="M200.1,89.1c0,0,22.2-2.4,25.1,4.8c2.7,6.9,1.2,29.6,1.2,29.6l-7.1-0.2c0,0,4.1-25.6-0.7-27.7
			c-4.8-2.1-19.2-2.1-19.2-2.1L200.1,89.1z"/>
		<path class="st7" d="M188.5,86.7c0.6-0.3,15,0.5,15,0.5s-1.1,9-7.7,9.5C187.7,97.4,188.5,86.7,188.5,86.7z"/>
		<path class="st8" d="M217.2,124.2c0,0,2.1,1.1,5.5,7.3l-10.8-5.1l1.7-3.6L217.2,124.2z"/>
		<path class="st7" d="M192.7,91.1c0,0,22.2-2.4,25,4.8c2.7,6.9,1.2,29.6,1.2,29.6l-7.1-0.2c0,0,4.1-25.6-0.7-27.7
			c-4.8-2.1-19.1-2.1-19.1-2.1L192.7,91.1z"/>
		<polygon class="st2" points="201.2,51.2 199.3,57.8 202.9,58.6 204.5,51.5 		"/>
		<path class="st1" d="M197.9,49.6l-4.7-0.1c0,0-2.5-11.9,0.2-14.4c2.6-2.5,15.4-3.3,17.2-1.8c1.7,1.5-1.4,8.4-1.4,8.4L197.9,49.6z"
			/>
		<path class="st2" d="M212.4,45.1c0.2-8.3-4.8-8.2-8.1-8.1c-3.6,0.1-6.5,0.7-7.5,5c-0.2-0.1-0.4-0.1-0.6-0.2
			c-1.3-0.1-2.3,1.1-2.4,2.7c-0.2,1.4,0.8,2.7,2.2,2.9c0.2,0,0.5,0,0.7-0.1c0.8,4.3,6.3,7.6,9.8,7.3
			C210.7,54.2,212.2,50.6,212.4,45.1z"/>
		<polygon class="st1" points="196.3,39.4 197.5,46 201.3,46.2 200.4,36 		"/>
		<path class="st0" d="M185.2,87c0,0,6.3,7.1,20.6,1.8c0,0,3.3-35.3-6.6-33.3C189.2,57.6,185.2,87,185.2,87z"/>
		<path class="st2" d="M204.2,64.8c-0.6,1.1-7.3,22.4-5.5,39.1l-2.5-1.4c0,0-3.6-28.1,2.1-40.9L204.2,64.8z"/>
		<polygon class="st0" points="204.3,64.8 196.2,59 192.6,75.1 200.9,76.9 		"/>
		<path class="st2" d="M196.1,101.9c0,0,0.1,2.8,2.2,3.3c2.1,0.6,3.6,0.4,3.8,1.1c0.2,1,0.8,2.3,1.4,2c0.6-0.2-0.2-1.2-0.4-2.2
			c-0.2-1-2.9-2.8-4.9-3.4C197.5,102.7,196.8,102.4,196.1,101.9z"/>
		<path class="st1" d="M356.3,183.6l-0.2,1l0,0l-40.7,174.8h1.8l2.4-10.2l29.1,0.2l-2.4,10.2h1.8l40.5-173.7l0.3-1.1l0.3-1.1
			L356.3,183.6z M327.1,316.5l29.1,0.2l-3.3,14.2l-29.1-0.2L327.1,316.5z M327.6,314.4l3.3-14.2l29.1,0.2l-3.3,14.2L327.6,314.4z
			 M331.4,298l3.3-14.2l29.1,0.2l-3.3,14.2L331.4,298z M335.2,281.7l3.3-14.2l29.1,0.2l-3.3,14.2L335.2,281.7z M339,265.3l3.3-14.2
			l29.1,0.2l-3.3,14.2L339,265.3z M342.8,249l3.3-14.2l29.1,0.2l-3.3,14.2L342.8,249z M346.6,232.6l3.3-14.2l29.1,0.2l-3.3,14.2
			L346.6,232.6z M350.4,216.3l3.3-14.2l29.1,0.2l-3.3,14.2L350.4,216.3z M319.9,347.1l3.3-14.2l29.1,0.2l-3.3,14.2L319.9,347.1z
			 M383.3,200.1l-29.1-0.2l3.3-14.2l29.1,0.2L383.3,200.1z"/>
		<path class="st7" d="M356.6,183.8l0.3,1.1l0.3,1.1l40.5,173.7h1.8l-2.4-10.2l29.1-0.2l2.4,10.2h1.8l-40.7-174.8l0,0l-0.2-1.1
			L356.6,183.8z M421.7,330.8l-29.1,0.2l-3.3-14.2l29.1-0.2L421.7,330.8z M388.8,314.6l-3.3-14.2l29.1-0.2l3.3,14.2L388.8,314.6z
			 M385,298.2l-3.3-14.2l29.1-0.2l3.3,14.2L385,298.2z M381.2,281.9l-3.3-14.2l29.1-0.2l3.3,14.2L381.2,281.9z M377.4,265.5
			l-3.3-14.2l29.1-0.2l3.3,14.2L377.4,265.5z M373.6,249.2l-3.3-14.2l29.1-0.2l3.3,14.2L373.6,249.2z M369.8,232.8l-3.3-14.2
			l29.1-0.2l3.3,14.2L369.8,232.8z M366,216.4l-3.3-14.2l29.1-0.2l3.3,14.2L366,216.4z M396.5,347.3l-3.3-14.2l29.1-0.2l3.3,14.2
			L396.5,347.3z M358.9,185.9l29.1-0.2l3.3,14.2l-29.1,0.2L358.9,185.9z"/>
	</g>
</g>
</svg>
