<svg xmlns="http://www.w3.org/2000/svg" xmlns:xlink="http://www.w3.org/1999/xlink" viewBox="0 0 465.45 413.4"><defs><style>.cls-1{isolation:isolate;}.cls-2{fill:url(#linear-gradient);}.cls-3{fill:none;stroke:#4685ff;stroke-miterlimit:10;}.cls-113,.cls-115,.cls-117,.cls-119,.cls-121,.cls-123,.cls-125,.cls-127,.cls-4,.cls-5,.cls-6,.cls-7,.cls-78,.cls-79,.cls-8{opacity:0.48;}.cls-101,.cls-103,.cls-104,.cls-107,.cls-109,.cls-111,.cls-113,.cls-115,.cls-117,.cls-119,.cls-12,.cls-121,.cls-123,.cls-125,.cls-127,.cls-132,.cls-138,.cls-140,.cls-142,.cls-150,.cls-151,.cls-153,.cls-157,.cls-163,.cls-166,.cls-173,.cls-177,.cls-181,.cls-182,.cls-184,.cls-185,.cls-186,.cls-188,.cls-196,.cls-198,.cls-203,.cls-206,.cls-207,.cls-25,.cls-4,.cls-5,.cls-6,.cls-7,.cls-8,.cls-84,.cls-85,.cls-86,.cls-87,.cls-88,.cls-89,.cls-90,.cls-91,.cls-94,.cls-95{mix-blend-mode:multiply;}.cls-4{fill:url(#radial-gradient);}.cls-5{fill:url(#radial-gradient-2);}.cls-6{fill:url(#radial-gradient-3);}.cls-7{fill:url(#radial-gradient-4);}.cls-8{fill:url(#radial-gradient-5);}.cls-9{fill:url(#linear-gradient-2);}.cls-10{fill:url(#linear-gradient-3);}.cls-11{fill:url(#linear-gradient-4);}.cls-13{fill:url(#linear-gradient-5);}.cls-14{fill:url(#linear-gradient-6);}.cls-15{fill:url(#linear-gradient-7);}.cls-16{fill:url(#linear-gradient-8);}.cls-17{fill:url(#linear-gradient-9);}.cls-18{fill:url(#linear-gradient-10);}.cls-19{fill:url(#linear-gradient-11);}.cls-20{fill:url(#linear-gradient-12);}.cls-21{fill:url(#linear-gradient-13);}.cls-22{fill:url(#linear-gradient-14);}.cls-23{fill:url(#linear-gradient-15);}.cls-24{fill:url(#linear-gradient-16);}.cls-25{opacity:0.25;}.cls-26{fill:url(#linear-gradient-17);}.cls-27{fill:url(#linear-gradient-18);}.cls-28{fill:url(#linear-gradient-19);}.cls-29{fill:url(#linear-gradient-20);}.cls-30{fill:url(#linear-gradient-21);}.cls-31{fill:url(#linear-gradient-22);}.cls-32{fill:url(#linear-gradient-23);}.cls-33{fill:url(#linear-gradient-24);}.cls-34{fill:url(#linear-gradient-25);}.cls-35{fill:url(#linear-gradient-26);}.cls-36{fill:url(#linear-gradient-27);}.cls-37{fill:url(#linear-gradient-28);}.cls-38{fill:url(#linear-gradient-29);}.cls-39{fill:url(#linear-gradient-30);}.cls-40{fill:url(#linear-gradient-31);}.cls-41{fill:url(#linear-gradient-32);}.cls-42{fill:url(#linear-gradient-33);}.cls-43{fill:url(#linear-gradient-34);}.cls-44{fill:url(#linear-gradient-35);}.cls-45{fill:url(#linear-gradient-36);}.cls-46{fill:url(#linear-gradient-37);}.cls-47{fill:url(#linear-gradient-38);}.cls-48{fill:url(#linear-gradient-39);}.cls-49{fill:url(#linear-gradient-40);}.cls-50{fill:url(#linear-gradient-41);}.cls-51{fill:url(#linear-gradient-42);}.cls-52{fill:url(#linear-gradient-43);}.cls-53{fill:url(#linear-gradient-44);}.cls-54{fill:url(#linear-gradient-45);}.cls-55{fill:url(#linear-gradient-46);}.cls-56{fill:url(#linear-gradient-47);}.cls-57{fill:url(#linear-gradient-48);}.cls-58{fill:url(#linear-gradient-49);}.cls-59{fill:url(#linear-gradient-50);}.cls-60{fill:url(#linear-gradient-51);}.cls-61,.cls-62,.cls-63,.cls-64,.cls-69,.cls-70,.cls-71,.cls-72,.cls-73,.cls-74,.cls-75,.cls-76,.cls-77,.cls-92{opacity:0.36;}.cls-61{fill:url(#linear-gradient-52);}.cls-62{fill:url(#linear-gradient-53);}.cls-63{fill:url(#linear-gradient-54);}.cls-64{fill:url(#linear-gradient-55);}.cls-65{fill:url(#linear-gradient-56);}.cls-66{opacity:0.27;}.cls-128,.cls-129,.cls-130,.cls-131,.cls-135,.cls-136,.cls-190,.cls-200,.cls-66,.cls-69,.cls-70,.cls-71,.cls-72,.cls-73,.cls-74,.cls-75,.cls-76,.cls-77,.cls-78,.cls-79,.cls-82,.cls-83{mix-blend-mode:screen;}.cls-67{fill:url(#linear-gradient-57);}.cls-68{fill:url(#linear-gradient-58);}.cls-69{fill:url(#linear-gradient-59);}.cls-70{fill:url(#linear-gradient-60);}.cls-71{fill:url(#linear-gradient-61);}.cls-72{fill:url(#linear-gradient-62);}.cls-73{fill:url(#linear-gradient-63);}.cls-74{fill:url(#linear-gradient-64);}.cls-75{fill:url(#linear-gradient-65);}.cls-76{fill:url(#linear-gradient-66);}.cls-77{fill:url(#linear-gradient-67);}.cls-78{fill:url(#linear-gradient-68);}.cls-79{fill:url(#linear-gradient-69);}.cls-80{opacity:0.73;fill:url(#linear-gradient-70);}.cls-81{fill:url(#linear-gradient-71);}.cls-181,.cls-182,.cls-186,.cls-82{opacity:0.45;}.cls-82{fill:url(#linear-gradient-72);}.cls-84{fill:url(#linear-gradient-73);}.cls-85{fill:url(#linear-gradient-74);}.cls-86{fill:url(#linear-gradient-75);}.cls-87{fill:url(#linear-gradient-76);}.cls-88{fill:url(#linear-gradient-77);}.cls-89{fill:url(#linear-gradient-78);}.cls-90{fill:url(#linear-gradient-79);}.cls-91{fill:url(#linear-gradient-80);}.cls-92{fill:url(#linear-gradient-81);}.cls-93{fill:url(#linear-gradient-82);}.cls-94{fill:url(#linear-gradient-83);}.cls-95{fill:url(#linear-gradient-84);}.cls-96{fill:url(#linear-gradient-85);}.cls-97{fill:url(#linear-gradient-86);}.cls-98{fill:url(#linear-gradient-87);}.cls-99{opacity:0.76;fill:url(#linear-gradient-88);}.cls-100{fill:url(#linear-gradient-89);}.cls-101,.cls-107,.cls-109,.cls-111{opacity:0.62;}.cls-101{fill:url(#linear-gradient-90);}.cls-102{fill:url(#linear-gradient-91);}.cls-103{opacity:0.17;fill:url(#linear-gradient-92);}.cls-104,.cls-177{opacity:0.79;}.cls-104{fill:url(#linear-gradient-93);}.cls-105{fill:url(#linear-gradient-94);}.cls-106{fill:url(#linear-gradient-95);}.cls-107{fill:url(#linear-gradient-96);}.cls-108{fill:url(#linear-gradient-97);}.cls-109{fill:url(#linear-gradient-98);}.cls-110{fill:url(#linear-gradient-99);}.cls-111{fill:url(#linear-gradient-100);}.cls-112{fill:url(#radial-gradient-6);}.cls-113{fill:url(#radial-gradient-7);}.cls-114{fill:url(#radial-gradient-8);}.cls-115{fill:url(#radial-gradient-9);}.cls-116{fill:url(#radial-gradient-10);}.cls-117{fill:url(#radial-gradient-11);}.cls-118{fill:url(#radial-gradient-12);}.cls-119{fill:url(#radial-gradient-13);}.cls-120{fill:url(#radial-gradient-14);}.cls-121{fill:url(#radial-gradient-15);}.cls-122{fill:url(#radial-gradient-16);}.cls-123{fill:url(#radial-gradient-17);}.cls-124{fill:url(#radial-gradient-18);}.cls-125{fill:url(#radial-gradient-19);}.cls-126{fill:url(#radial-gradient-20);}.cls-127{fill:url(#radial-gradient-21);}.cls-128,.cls-129{opacity:0.43;}.cls-128{fill:url(#linear-gradient-101);}.cls-129{fill:url(#linear-gradient-102);}.cls-130,.cls-131{opacity:0.6;}.cls-130{fill:url(#linear-gradient-103);}.cls-131{fill:url(#linear-gradient-104);}.cls-132{fill:url(#linear-gradient-105);}.cls-133{fill:#fac5af;}.cls-134{fill:url(#linear-gradient-106);}.cls-135,.cls-136{opacity:0.52;}.cls-135{fill:url(#linear-gradient-107);}.cls-136{fill:url(#linear-gradient-108);}.cls-137{fill:url(#linear-gradient-109);}.cls-138{fill:url(#linear-gradient-110);}.cls-139{fill:url(#linear-gradient-111);}.cls-140{fill:url(#linear-gradient-112);}.cls-141{fill:url(#linear-gradient-113);}.cls-142{fill:url(#linear-gradient-114);}.cls-143{fill:url(#linear-gradient-115);}.cls-144{fill:url(#linear-gradient-116);}.cls-145{fill:url(#linear-gradient-117);}.cls-146{fill:url(#linear-gradient-118);}.cls-147{fill:url(#linear-gradient-119);}.cls-148{fill:url(#linear-gradient-120);}.cls-149{fill:url(#linear-gradient-121);}.cls-150{fill:url(#linear-gradient-122);}.cls-151{fill:url(#linear-gradient-123);}.cls-152{fill:url(#linear-gradient-124);}.cls-153{fill:url(#linear-gradient-125);}.cls-154{fill:url(#linear-gradient-126);}.cls-155{fill:url(#linear-gradient-127);}.cls-156{fill:url(#linear-gradient-128);}.cls-157,.cls-204{fill:#afb0f6;}.cls-157{opacity:0.49;}.cls-158{fill:url(#radial-gradient-22);}.cls-159{fill:url(#linear-gradient-129);}.cls-160{fill:url(#radial-gradient-23);}.cls-161{fill:url(#linear-gradient-130);}.cls-162{fill:url(#linear-gradient-131);}.cls-163{fill:url(#linear-gradient-132);}.cls-164{fill:url(#linear-gradient-133);}.cls-165{fill:url(#linear-gradient-134);}.cls-166{fill:url(#linear-gradient-135);}.cls-167{fill:url(#radial-gradient-24);}.cls-168{fill:url(#radial-gradient-25);}.cls-169{fill:url(#linear-gradient-136);}.cls-170{fill:url(#radial-gradient-26);}.cls-171{fill:url(#radial-gradient-27);}.cls-172{fill:url(#linear-gradient-137);}.cls-173{fill:url(#radial-gradient-28);}.cls-174{fill:url(#linear-gradient-138);}.cls-175{fill:url(#linear-gradient-139);}.cls-176{fill:url(#radial-gradient-29);}.cls-177{fill:url(#radial-gradient-30);}.cls-178{fill:url(#radial-gradient-31);}.cls-179{fill:url(#linear-gradient-140);}.cls-180{fill:url(#linear-gradient-141);}.cls-181{fill:url(#linear-gradient-142);}.cls-182{fill:url(#linear-gradient-143);}.cls-183,.cls-188{fill:#000076;}.cls-184,.cls-187{fill:#f5f8fe;}.cls-184{opacity:0.16;}.cls-185{opacity:0.53;}.cls-188{opacity:0.41;}.cls-189,.cls-190{fill:#534fba;}.cls-190{opacity:0.31;}.cls-191{fill:url(#linear-gradient-144);}.cls-192{fill:url(#linear-gradient-145);}.cls-193{fill:url(#linear-gradient-146);}.cls-194{fill:url(#linear-gradient-147);}.cls-195{fill:url(#linear-gradient-148);}.cls-196{opacity:0.67;}.cls-197{fill:url(#linear-gradient-149);}.cls-198{fill:url(#linear-gradient-150);}.cls-199{fill:url(#linear-gradient-151);}.cls-200{opacity:0.39;}.cls-201{fill:url(#linear-gradient-152);}.cls-202{fill:url(#linear-gradient-153);}.cls-203{opacity:0.5;}.cls-205{fill:url(#linear-gradient-154);}.cls-206{fill:url(#linear-gradient-155);}.cls-207{fill:url(#linear-gradient-156);}.cls-208{fill:url(#linear-gradient-157);}.cls-209{fill:url(#linear-gradient-158);}</style><linearGradient id="linear-gradient" x1="250.54" y1="-22.74" x2="226.44" y2="440.02" gradientUnits="userSpaceOnUse"><stop offset="0.01" stop-color="#92d0b2"/><stop offset="1" stop-color="#39a45c"/></linearGradient><radialGradient id="radial-gradient" cx="358.66" cy="108.02" r="5.1" gradientUnits="userSpaceOnUse"><stop offset="0" stop-color="#4783fd"/><stop offset="1" stop-color="#3636c7"/></radialGradient><radialGradient id="radial-gradient-2" cx="99.4" cy="89.13" r="5.1" xlink:href="#radial-gradient"/><radialGradient id="radial-gradient-3" cx="39.63" cy="20.53" r="3.29" xlink:href="#radial-gradient"/><radialGradient id="radial-gradient-4" cx="25.39" cy="190.69" r="3.29" xlink:href="#radial-gradient"/><radialGradient id="radial-gradient-5" cx="347.28" cy="14.74" r="3.29" xlink:href="#radial-gradient"/><linearGradient id="linear-gradient-2" x1="359.33" y1="332.85" x2="460.79" y2="242.14" gradientTransform="translate(95.57 -117.53) rotate(20.58)" gradientUnits="userSpaceOnUse"><stop offset="0" stop-color="#39a45c"/><stop offset="0.99" stop-color="#92d0b2"/></linearGradient><linearGradient id="linear-gradient-3" x1="324.92" y1="324.65" x2="412.45" y2="164.1" gradientTransform="translate(95.57 -117.53) rotate(20.58)" gradientUnits="userSpaceOnUse"><stop offset="0" stop-color="#000076"/><stop offset="1" stop-color="#3636c7"/></linearGradient><linearGradient id="linear-gradient-4" x1="421.85" y1="234.2" x2="389.76" y2="328.52" xlink:href="#linear-gradient-3"/><linearGradient id="linear-gradient-5" x1="302.17" y1="326.32" x2="393.15" y2="326.32" gradientTransform="matrix(1, 0, 0, 1, 0, 0)" xlink:href="#linear-gradient-3"/><linearGradient id="linear-gradient-6" x1="361.69" y1="290.31" x2="372.22" y2="290.31" gradientTransform="matrix(1, 0, 0, 1, 0, 0)" xlink:href="#linear-gradient-3"/><linearGradient id="linear-gradient-7" x1="332.9" y1="303.41" x2="346.06" y2="303.41" gradientTransform="matrix(1, 0, 0, 1, 0, 0)" xlink:href="#linear-gradient-3"/><linearGradient id="linear-gradient-8" x1="296.07" y1="321.28" x2="339.99" y2="321.28" gradientTransform="matrix(1, 0, 0, 1, 0, 0)" xlink:href="#linear-gradient-3"/><linearGradient id="linear-gradient-9" x1="350.58" y1="332.67" x2="388.46" y2="332.67" gradientTransform="matrix(1, 0, 0, 1, 0, 0)" xlink:href="#linear-gradient-3"/><linearGradient id="linear-gradient-10" x1="335.93" y1="348.23" x2="366.34" y2="348.23" gradientTransform="matrix(1, 0, 0, 1, 0, 0)" xlink:href="#linear-gradient-3"/><linearGradient id="linear-gradient-11" x1="363.92" y1="314.42" x2="402.18" y2="314.42" gradientTransform="matrix(1, 0, 0, 1, 0, 0)" xlink:href="#linear-gradient-3"/><linearGradient id="linear-gradient-12" x1="-685.48" y1="253.87" x2="-630.79" y2="349.84" gradientTransform="matrix(-0.94, -0.35, -0.35, 0.94, -189.46, -223.94)" xlink:href="#linear-gradient-3"/><linearGradient id="linear-gradient-13" x1="255.49" y1="280.98" x2="331.68" y2="280.98" gradientTransform="matrix(1, 0, 0, 1, 0, 0)" xlink:href="#linear-gradient-3"/><linearGradient id="linear-gradient-14" x1="255.48" y1="304.95" x2="353.63" y2="304.95" gradientTransform="matrix(1, 0, 0, 1, 0, 0)" xlink:href="#linear-gradient-3"/><linearGradient id="linear-gradient-15" x1="255.48" y1="326.49" x2="378.27" y2="326.49" gradientTransform="matrix(1, 0, 0, 1, 0, 0)" xlink:href="#linear-gradient-3"/><linearGradient id="linear-gradient-16" x1="272.48" y1="275.55" x2="316.44" y2="237.13" gradientTransform="matrix(-1, 0, 0, 1, 346.13, 0)" xlink:href="#linear-gradient-3"/><linearGradient id="linear-gradient-17" x1="86.42" y1="272.2" x2="94.73" y2="272.2" gradientTransform="matrix(1, 0, 0, 1, 0, 0)" xlink:href="#linear-gradient-3"/><linearGradient id="linear-gradient-18" x1="89.47" y1="278.05" x2="102.89" y2="278.05" gradientTransform="matrix(1, 0, 0, 1, 0, 0)" xlink:href="#linear-gradient-3"/><linearGradient id="linear-gradient-19" x1="24.91" y1="275.53" x2="114.97" y2="275.53" gradientTransform="matrix(1, 0, 0, 1, 0, 0)" xlink:href="#linear-gradient-3"/><linearGradient id="linear-gradient-20" x1="27.23" y1="252.63" x2="38.45" y2="252.63" gradientTransform="matrix(1, 0, 0, 1, 0, 0)" xlink:href="#linear-gradient-3"/><linearGradient id="linear-gradient-21" x1="31.73" y1="256.46" x2="44.67" y2="256.46" gradientTransform="matrix(1, 0, 0, 1, 0, 0)" xlink:href="#linear-gradient-3"/><linearGradient id="linear-gradient-22" x1="36.23" y1="260.36" x2="50.61" y2="260.36" gradientTransform="matrix(1, 0, 0, 1, 0, 0)" xlink:href="#linear-gradient-3"/><linearGradient id="linear-gradient-23" x1="39.03" y1="265.17" x2="57" y2="265.17" gradientTransform="matrix(1, 0, 0, 1, 0, 0)" xlink:href="#linear-gradient-3"/><linearGradient id="linear-gradient-24" x1="43.21" y1="272.66" x2="64.92" y2="272.66" gradientTransform="matrix(1, 0, 0, 1, 0, 0)" xlink:href="#linear-gradient-3"/><linearGradient id="linear-gradient-25" x1="55.94" y1="281.47" x2="76.66" y2="281.47" gradientTransform="matrix(1, 0, 0, 1, 0, 0)" xlink:href="#linear-gradient-3"/><linearGradient id="linear-gradient-26" x1="50.2" y1="277.16" x2="71.98" y2="277.16" gradientTransform="matrix(1, 0, 0, 1, 0, 0)" xlink:href="#linear-gradient-3"/><linearGradient id="linear-gradient-27" x1="61" y1="287.4" x2="80.58" y2="287.4" gradientTransform="matrix(1, 0, 0, 1, 0, 0)" xlink:href="#linear-gradient-3"/><linearGradient id="linear-gradient-28" x1="65.96" y1="293.88" x2="83.87" y2="293.88" gradientTransform="matrix(1, 0, 0, 1, 0, 0)" xlink:href="#linear-gradient-3"/><linearGradient id="linear-gradient-29" x1="77.86" y1="296.85" x2="87.69" y2="296.85" gradientTransform="matrix(1, 0, 0, 1, 0, 0)" xlink:href="#linear-gradient-3"/><linearGradient id="linear-gradient-30" x1="34.23" y1="248.03" x2="37.65" y2="248.03" gradientTransform="matrix(1, 0, 0, 1, 0, 0)" xlink:href="#linear-gradient-3"/><linearGradient id="linear-gradient-31" x1="40.77" y1="251" x2="44.82" y2="251" gradientTransform="matrix(1, 0, 0, 1, 0, 0)" xlink:href="#linear-gradient-3"/><linearGradient id="linear-gradient-32" x1="46.72" y1="253.51" x2="50.85" y2="253.51" gradientTransform="matrix(1, 0, 0, 1, 0, 0)" xlink:href="#linear-gradient-3"/><linearGradient id="linear-gradient-33" x1="53.01" y1="255.74" x2="57.4" y2="255.74" gradientTransform="matrix(1, 0, 0, 1, 0, 0)" xlink:href="#linear-gradient-3"/><linearGradient id="linear-gradient-34" x1="61.04" y1="258.52" x2="65.56" y2="258.52" gradientTransform="matrix(1, 0, 0, 1, 0, 0)" xlink:href="#linear-gradient-3"/><linearGradient id="linear-gradient-35" x1="69" y1="262.4" x2="72.27" y2="262.4" gradientTransform="matrix(1, 0, 0, 1, 0, 0)" xlink:href="#linear-gradient-3"/><linearGradient id="linear-gradient-36" x1="76.18" y1="266.42" x2="77.36" y2="266.42" gradientTransform="matrix(1, 0, 0, 1, 0, 0)" xlink:href="#linear-gradient-3"/><linearGradient id="linear-gradient-37" x1="82.1" y1="269.23" x2="84.39" y2="269.23" gradientTransform="matrix(1, 0, 0, 1, 0, 0)" xlink:href="#linear-gradient-3"/><linearGradient id="linear-gradient-38" x1="203.63" y1="310.72" x2="289.48" y2="233.97" gradientTransform="matrix(-1, 0, 0, 1, 346.13, 0)" xlink:href="#linear-gradient-3"/><linearGradient id="linear-gradient-39" x1="174.51" y1="303.79" x2="248.58" y2="167.94" gradientTransform="matrix(-1, 0, 0, 1, 346.13, 0)" xlink:href="#linear-gradient-3"/><linearGradient id="linear-gradient-40" x1="256.53" y1="227.25" x2="229.38" y2="307.06" gradientTransform="matrix(-1, 0, 0, 1, 346.13, 0)" xlink:href="#linear-gradient-3"/><linearGradient id="linear-gradient-41" x1="89.4" y1="305.73" x2="140.3" y2="305.73" gradientTransform="matrix(1, 0, 0, 1, 0, 0)" xlink:href="#linear-gradient-3"/><linearGradient id="linear-gradient-42" x1="106.31" y1="271.32" x2="114.73" y2="271.32" gradientTransform="matrix(1, 0, 0, 1, 0, 0)" xlink:href="#linear-gradient-3"/><linearGradient id="linear-gradient-43" x1="116.2" y1="289.93" x2="139.75" y2="289.93" gradientTransform="matrix(1, 0, 0, 1, 0, 0)" xlink:href="#linear-gradient-3"/><linearGradient id="linear-gradient-44" x1="119.68" y1="314.36" x2="159.82" y2="314.36" gradientTransform="matrix(1, 0, 0, 1, 0, 0)" xlink:href="#linear-gradient-3"/><linearGradient id="linear-gradient-45" x1="77.62" y1="304.46" x2="113.71" y2="304.46" gradientTransform="matrix(1, 0, 0, 1, 0, 0)" xlink:href="#linear-gradient-3"/><linearGradient id="linear-gradient-46" x1="89.49" y1="323.35" x2="121.5" y2="323.35" gradientTransform="matrix(1, 0, 0, 1, 0, 0)" xlink:href="#linear-gradient-3"/><linearGradient id="linear-gradient-47" x1="75.84" y1="284.39" x2="106.15" y2="284.39" gradientTransform="matrix(1, 0, 0, 1, 0, 0)" xlink:href="#linear-gradient-3"/><linearGradient id="linear-gradient-48" x1="-526.23" y1="244.38" x2="-479.95" y2="325.59" gradientTransform="translate(650.19)" xlink:href="#linear-gradient-3"/><linearGradient id="linear-gradient-49" x1="160.18" y1="285.9" x2="182.15" y2="285.9" gradientTransform="matrix(1, 0, 0, 1, 0, 0)" xlink:href="#linear-gradient-3"/><linearGradient id="linear-gradient-50" x1="128.53" y1="301.62" x2="182.15" y2="301.62" gradientTransform="matrix(1, 0, 0, 1, 0, 0)" xlink:href="#linear-gradient-3"/><linearGradient id="linear-gradient-51" x1="96.04" y1="315.23" x2="182.15" y2="315.23" gradientTransform="matrix(1, 0, 0, 1, 0, 0)" xlink:href="#linear-gradient-3"/><linearGradient id="linear-gradient-52" x1="110.62" y1="115.08" x2="110.62" y2="342.72" gradientUnits="userSpaceOnUse"><stop offset="0" stop-color="#f5f8fe"/><stop offset="1" stop-color="#fff"/></linearGradient><linearGradient id="linear-gradient-53" x1="105.35" y1="128.24" x2="110.92" y2="368.03" xlink:href="#linear-gradient-52"/><linearGradient id="linear-gradient-54" x1="97.72" y1="126.06" x2="109.17" y2="329.36" xlink:href="#linear-gradient-52"/><linearGradient id="linear-gradient-55" x1="111.64" y1="94.56" x2="111.64" y2="134.83" xlink:href="#linear-gradient-52"/><linearGradient id="linear-gradient-56" x1="110.61" y1="417.11" x2="110.61" y2="341.33" xlink:href="#linear-gradient"/><linearGradient id="linear-gradient-57" x1="110.62" y1="417.11" x2="110.62" y2="341.33" xlink:href="#linear-gradient"/><linearGradient id="linear-gradient-58" x1="110.62" y1="417.11" x2="110.62" y2="341.33" xlink:href="#linear-gradient"/><linearGradient id="linear-gradient-59" x1="73.23" y1="417.11" x2="73.23" y2="341.33" xlink:href="#linear-gradient"/><linearGradient id="linear-gradient-60" x1="76.48" y1="417.11" x2="76.48" y2="341.33" xlink:href="#linear-gradient"/><linearGradient id="linear-gradient-61" x1="162.56" y1="417.11" x2="162.56" y2="341.33" gradientTransform="translate(463.72 109.79) rotate(76.77)" xlink:href="#linear-gradient"/><linearGradient id="linear-gradient-62" x1="117.08" y1="417.11" x2="117.08" y2="341.33" xlink:href="#linear-gradient"/><linearGradient id="linear-gradient-63" x1="111.91" y1="417.11" x2="111.91" y2="341.33" xlink:href="#linear-gradient"/><linearGradient id="linear-gradient-64" x1="87.13" y1="417.11" x2="87.13" y2="341.33" xlink:href="#linear-gradient"/><linearGradient id="linear-gradient-65" x1="124.43" y1="417.11" x2="124.43" y2="341.33" xlink:href="#linear-gradient"/><linearGradient id="linear-gradient-66" x1="140.69" y1="417.11" x2="140.69" y2="341.33" xlink:href="#linear-gradient"/><linearGradient id="linear-gradient-67" x1="149.42" y1="417.11" x2="149.42" y2="341.33" xlink:href="#linear-gradient"/><linearGradient id="linear-gradient-68" x1="348.59" y1="380.23" x2="348.59" y2="125.53" xlink:href="#linear-gradient-52"/><linearGradient id="linear-gradient-69" x1="348.59" y1="380.23" x2="348.59" y2="125.53" xlink:href="#linear-gradient-52"/><linearGradient id="linear-gradient-70" x1="341.16" y1="221.9" x2="341.16" y2="376.92" xlink:href="#linear-gradient-52"/><linearGradient id="linear-gradient-71" x1="341.16" y1="300.99" x2="341.16" y2="385.5" gradientTransform="matrix(1, 0, 0, 1, 0, 0)" xlink:href="#linear-gradient-3"/><linearGradient id="linear-gradient-72" x1="342.1" y1="418.49" x2="342.1" y2="317.23" gradientTransform="matrix(1, 0, 0, 1, 0, 0)" xlink:href="#linear-gradient-3"/><linearGradient id="linear-gradient-73" x1="303.39" y1="300.99" x2="303.39" y2="385.5" gradientTransform="matrix(1, 0, 0, 1, 0, 0)" xlink:href="#linear-gradient-3"/><linearGradient id="linear-gradient-74" x1="331.29" y1="300.99" x2="331.29" y2="385.5" gradientTransform="matrix(1, 0, 0, 1, 0, 0)" xlink:href="#linear-gradient-3"/><linearGradient id="linear-gradient-75" x1="380.55" y1="300.99" x2="380.55" y2="385.5" gradientTransform="matrix(1, 0, 0, 1, 0, 0)" xlink:href="#linear-gradient-3"/><linearGradient id="linear-gradient-76" x1="333.04" y1="300.99" x2="333.04" y2="385.5" gradientTransform="matrix(1, 0, 0, 1, 0, 0)" xlink:href="#linear-gradient-3"/><linearGradient id="linear-gradient-77" x1="356.58" y1="300.99" x2="356.58" y2="385.5" gradientTransform="matrix(1, 0, 0, 1, 0, 0)" xlink:href="#linear-gradient-3"/><linearGradient id="linear-gradient-78" x1="309.75" y1="300.99" x2="309.75" y2="385.5" gradientTransform="matrix(1, 0, 0, 1, 0, 0)" xlink:href="#linear-gradient-3"/><linearGradient id="linear-gradient-79" x1="388.21" y1="300.99" x2="388.21" y2="385.5" gradientTransform="matrix(1, 0, 0, 1, 0, 0)" xlink:href="#linear-gradient-3"/><linearGradient id="linear-gradient-80" x1="365.64" y1="300.99" x2="365.64" y2="385.5" gradientTransform="matrix(1, 0, 0, 1, 0, 0)" xlink:href="#linear-gradient-3"/><linearGradient id="linear-gradient-81" x1="341.16" y1="348.44" x2="341.16" y2="174.96" xlink:href="#linear-gradient-52"/><linearGradient id="linear-gradient-82" x1="234.3" y1="361.96" x2="234.3" y2="459.87" gradientUnits="userSpaceOnUse"><stop offset="0" stop-color="#534fba"/><stop offset="0.99" stop-color="#000076"/></linearGradient><linearGradient id="linear-gradient-83" x1="234.8" y1="328.4" x2="234.8" y2="306.19" xlink:href="#linear-gradient-82"/><linearGradient id="linear-gradient-84" x1="234.72" y1="351.92" x2="234.72" y2="385.24" xlink:href="#linear-gradient-82"/><linearGradient id="linear-gradient-85" x1="233.05" y1="323.09" x2="233.72" y2="332.97" xlink:href="#linear-gradient-82"/><linearGradient id="linear-gradient-86" x1="234.96" y1="366.27" x2="233.96" y2="333.62" xlink:href="#linear-gradient-82"/><linearGradient id="linear-gradient-87" x1="233.04" y1="319.1" x2="233.04" y2="345.31" xlink:href="#linear-gradient-82"/><linearGradient id="linear-gradient-88" x1="234.3" y1="58.37" x2="234.3" y2="324.99" xlink:href="#linear-gradient-52"/><linearGradient id="linear-gradient-89" x1="199.91" y1="112.72" x2="273.2" y2="112.72" xlink:href="#linear-gradient-82"/><linearGradient id="linear-gradient-90" x1="199.91" y1="114.38" x2="273.2" y2="114.38" xlink:href="#linear-gradient-82"/><linearGradient id="linear-gradient-91" x1="190.46" y1="207.26" x2="279.79" y2="207.26" xlink:href="#linear-gradient-82"/><linearGradient id="linear-gradient-92" x1="224.59" y1="268.42" x2="240.2" y2="268.42" xlink:href="#linear-gradient-82"/><linearGradient id="linear-gradient-93" x1="228" y1="152.35" x2="244.97" y2="152.35" xlink:href="#linear-gradient-82"/><linearGradient id="linear-gradient-94" x1="193.55" y1="207.89" x2="281.27" y2="207.89" xlink:href="#linear-gradient-82"/><linearGradient id="linear-gradient-95" x1="202.62" y1="183.79" x2="268.27" y2="183.79" xlink:href="#linear-gradient-82"/><linearGradient id="linear-gradient-96" x1="202.62" y1="185.43" x2="268.27" y2="185.43" xlink:href="#linear-gradient-82"/><linearGradient id="linear-gradient-97" x1="196.23" y1="207.12" x2="276.12" y2="207.12" xlink:href="#linear-gradient-82"/><linearGradient id="linear-gradient-98" x1="196.23" y1="208.67" x2="276.11" y2="208.67" xlink:href="#linear-gradient-82"/><linearGradient id="linear-gradient-99" x1="201.28" y1="299.39" x2="264.27" y2="299.39" xlink:href="#linear-gradient-82"/><linearGradient id="linear-gradient-100" x1="201.28" y1="301" x2="264.27" y2="301" xlink:href="#linear-gradient-82"/><radialGradient id="radial-gradient-6" cx="199.23" cy="207.12" r="8.65" xlink:href="#radial-gradient"/><radialGradient id="radial-gradient-7" cx="199.23" cy="207.12" r="7.01" xlink:href="#radial-gradient"/><radialGradient id="radial-gradient-8" cx="202.86" cy="299.97" r="8.65" gradientTransform="translate(466.57 51.79) rotate(80.81)" xlink:href="#radial-gradient"/><radialGradient id="radial-gradient-9" cx="202.86" cy="299.97" r="7.01" xlink:href="#radial-gradient"/><radialGradient id="radial-gradient-10" cx="201.28" cy="182.62" r="8.65" gradientTransform="translate(215.27 -88.8) rotate(50.73)" xlink:href="#radial-gradient"/><radialGradient id="radial-gradient-11" cx="201.28" cy="182.62" r="7.01" xlink:href="#radial-gradient"/><radialGradient id="radial-gradient-12" cx="199.23" cy="114.38" r="8.65" gradientTransform="translate(139.23 -107.38) rotate(45)" xlink:href="#radial-gradient"/><radialGradient id="radial-gradient-13" cx="199.23" cy="114.38" r="7.01" xlink:href="#radial-gradient"/><radialGradient id="radial-gradient-14" cx="276.12" cy="209.25" r="8.65" xlink:href="#radial-gradient"/><radialGradient id="radial-gradient-15" cx="276.12" cy="209.25" r="7" xlink:href="#radial-gradient"/><radialGradient id="radial-gradient-16" cx="269.84" cy="184.99" r="8.65" gradientTransform="translate(388.15 -120.03) rotate(76.77)" xlink:href="#radial-gradient"/><radialGradient id="radial-gradient-17" cx="269.84" cy="184.99" r="7" xlink:href="#radial-gradient"/><radialGradient id="radial-gradient-18" cx="274.41" cy="112.72" r="8.65" gradientTransform="translate(160.08 -161.03) rotate(45)" xlink:href="#radial-gradient"/><radialGradient id="radial-gradient-19" cx="274.41" cy="112.72" r="7" xlink:href="#radial-gradient"/><radialGradient id="radial-gradient-20" cx="265.76" cy="299.97" r="8.65" gradientTransform="translate(519.42 -10.3) rotate(80.81)" xlink:href="#radial-gradient"/><radialGradient id="radial-gradient-21" cx="265.76" cy="299.97" r="7" xlink:href="#radial-gradient"/><linearGradient id="linear-gradient-101" x1="207.73" y1="356.07" x2="204.62" y2="215.71" xlink:href="#linear-gradient-52"/><linearGradient id="linear-gradient-102" x1="267.67" y1="354.74" x2="264.56" y2="214.38" xlink:href="#linear-gradient-52"/><linearGradient id="linear-gradient-103" x1="276.14" y1="354.55" x2="273.03" y2="214.19" xlink:href="#linear-gradient-52"/><linearGradient id="linear-gradient-104" x1="204.4" y1="356.14" x2="201.29" y2="215.78" xlink:href="#linear-gradient-52"/><linearGradient id="linear-gradient-105" x1="234.3" y1="97.45" x2="234.3" y2="59.11" xlink:href="#linear-gradient-52"/><linearGradient id="linear-gradient-106" x1="411.01" y1="201" x2="427.34" y2="213.77" gradientUnits="userSpaceOnUse"><stop offset="0" stop-color="#afb0f6"/><stop offset="1" stop-color="#f9fafe"/></linearGradient><linearGradient id="linear-gradient-107" x1="416.38" y1="203.99" x2="420.28" y2="223.9" xlink:href="#linear-gradient-106"/><linearGradient id="linear-gradient-108" x1="416.83" y1="202.93" x2="420.28" y2="220.57" xlink:href="#linear-gradient-106"/><linearGradient id="linear-gradient-109" x1="287.17" y1="249.38" x2="302.14" y2="249.38" gradientUnits="userSpaceOnUse"><stop offset="0" stop-color="#f6f4fa"/><stop offset="0.98" stop-color="#afb0f6"/></linearGradient><linearGradient id="linear-gradient-110" x1="288.77" y1="260.86" x2="298.26" y2="241.36" xlink:href="#linear-gradient-109"/><linearGradient id="linear-gradient-111" x1="297.6" y1="254.55" x2="312.57" y2="254.55" xlink:href="#linear-gradient-109"/><linearGradient id="linear-gradient-112" x1="299.2" y1="266.03" x2="308.69" y2="246.53" xlink:href="#linear-gradient-109"/><linearGradient id="linear-gradient-113" x1="315.99" y1="263.96" x2="330.96" y2="263.96" xlink:href="#linear-gradient-109"/><linearGradient id="linear-gradient-114" x1="317.59" y1="275.43" x2="327.08" y2="255.94" xlink:href="#linear-gradient-109"/><linearGradient id="linear-gradient-115" x1="303.4" y1="244.99" x2="306.71" y2="237.11" gradientUnits="userSpaceOnUse"><stop offset="0.55" stop-color="#fff"/><stop offset="1" stop-color="#f9fafe"/></linearGradient><linearGradient id="linear-gradient-116" x1="327.8" y1="255.95" x2="330.6" y2="250.78" xlink:href="#linear-gradient-115"/><linearGradient id="linear-gradient-117" x1="326.02" y1="224.96" x2="315.06" y2="245.61" gradientUnits="userSpaceOnUse"><stop offset="0" stop-color="#f5f8fe"/><stop offset="1" stop-color="#afb0f6"/></linearGradient><linearGradient id="linear-gradient-118" x1="290.54" y1="316.47" x2="328.29" y2="345.63" xlink:href="#linear-gradient-109"/><linearGradient id="linear-gradient-119" x1="276.99" y1="319.72" x2="300.24" y2="326.47" xlink:href="#linear-gradient-109"/><linearGradient id="linear-gradient-120" x1="286.22" y1="286.56" x2="386.91" y2="279.44" xlink:href="#linear-gradient-109"/><linearGradient id="linear-gradient-121" x1="408.83" y1="311.61" x2="362.73" y2="290.59" xlink:href="#linear-gradient-109"/><linearGradient id="linear-gradient-122" x1="282.46" y1="233.44" x2="383.15" y2="226.32" xlink:href="#linear-gradient-109"/><linearGradient id="linear-gradient-123" x1="325.84" y1="365.26" x2="339.41" y2="342.43" xlink:href="#linear-gradient-109"/><linearGradient id="linear-gradient-124" x1="338.46" y1="206.2" x2="362.61" y2="220.36" xlink:href="#linear-gradient-109"/><linearGradient id="linear-gradient-125" x1="341.18" y1="201.56" x2="365.33" y2="215.72" xlink:href="#linear-gradient-109"/><linearGradient id="linear-gradient-126" x1="366.37" y1="183.85" x2="384.19" y2="183.85" xlink:href="#linear-gradient-109"/><linearGradient id="linear-gradient-127" x1="367.53" y1="179.75" x2="389.02" y2="179.75" xlink:href="#linear-gradient-109"/><linearGradient id="linear-gradient-128" x1="358.99" y1="212.45" x2="392.56" y2="212.45" gradientTransform="translate(194.49 -179.31) rotate(35.69)" xlink:href="#linear-gradient-117"/><radialGradient id="radial-gradient-22" cx="379.73" cy="212.32" r="15.71" gradientTransform="translate(28.69 -44.2) rotate(7)" gradientUnits="userSpaceOnUse"><stop offset="0.18" stop-color="#f5f8fe"/><stop offset="0.27" stop-color="#f0f3fc"/><stop offset="0.37" stop-color="#e3e5f6"/><stop offset="0.47" stop-color="#cccded"/><stop offset="0.59" stop-color="#adace0"/><stop offset="0.7" stop-color="#8482cf"/><stop offset="0.82" stop-color="#534fba"/></radialGradient><linearGradient id="linear-gradient-129" x1="351.55" y1="231.16" x2="366.42" y2="231.16" xlink:href="#linear-gradient-117"/><radialGradient id="radial-gradient-23" cx="360.22" cy="231.37" r="6.46" gradientTransform="matrix(1, 0, 0, 1, 0, 0)" xlink:href="#radial-gradient-22"/><linearGradient id="linear-gradient-130" x1="250.59" y1="390.09" x2="370.7" y2="390.09" xlink:href="#linear-gradient-109"/><linearGradient id="linear-gradient-131" x1="310.64" y1="384.36" x2="310.64" y2="395.99" xlink:href="#linear-gradient-109"/><linearGradient id="linear-gradient-132" x1="318.73" y1="386.01" x2="318.73" y2="395.95" xlink:href="#linear-gradient-109"/><linearGradient id="linear-gradient-133" x1="250.59" y1="403.6" x2="370.7" y2="403.6" xlink:href="#linear-gradient-109"/><linearGradient id="linear-gradient-134" x1="310.64" y1="411.58" x2="310.64" y2="399.72" xlink:href="#linear-gradient-109"/><linearGradient id="linear-gradient-135" x1="310.64" y1="411.4" x2="310.64" y2="401.74" xlink:href="#linear-gradient-109"/><radialGradient id="radial-gradient-24" cx="271.73" cy="326.14" r="40.24" gradientTransform="translate(0 239.93) scale(1 0.26)" gradientUnits="userSpaceOnUse"><stop offset="0" stop-color="#f5f8fe"/><stop offset="1" stop-color="#534fba"/></radialGradient><radialGradient id="radial-gradient-25" cx="274.38" cy="321.88" r="36.37" gradientTransform="translate(0 245.1) scale(1 0.24)" gradientUnits="userSpaceOnUse"><stop offset="0.61" stop-color="#f5f8fe"/><stop offset="0.7" stop-color="#b3b3e2"/><stop offset="0.77" stop-color="#7f7dcc"/><stop offset="0.83" stop-color="#5f5cbf"/><stop offset="0.86" stop-color="#534fba"/></radialGradient><linearGradient id="linear-gradient-136" x1="250.13" y1="321.88" x2="298.64" y2="321.88" xlink:href="#linear-gradient-117"/><radialGradient id="radial-gradient-26" cx="274.75" cy="317.03" r="29.48" gradientTransform="translate(0 217.29) scale(1 0.31)" gradientUnits="userSpaceOnUse"><stop offset="0" stop-color="#f5f8fe"/><stop offset="0.24" stop-color="#f2f5fd"/><stop offset="0.39" stop-color="#eaecf9"/><stop offset="0.52" stop-color="#dcddf3"/><stop offset="0.64" stop-color="#c7c8eb"/><stop offset="0.75" stop-color="#adade0"/><stop offset="0.86" stop-color="#8c8bd2"/><stop offset="0.96" stop-color="#6764c2"/><stop offset="1" stop-color="#534fba"/></radialGradient><radialGradient id="radial-gradient-27" cx="274.38" cy="314.37" r="28.36" gradientTransform="translate(0 228.47) scale(1 0.27)" gradientUnits="userSpaceOnUse"><stop offset="0.67" stop-color="#534fba"/><stop offset="0.71" stop-color="#6a67c4"/><stop offset="0.8" stop-color="#a7a6dd"/><stop offset="0.9" stop-color="#f5f8fe"/></radialGradient><linearGradient id="linear-gradient-137" x1="254.56" y1="314.37" x2="294.21" y2="314.37" xlink:href="#linear-gradient-117"/><radialGradient id="radial-gradient-28" cx="275.04" cy="313.52" r="6.79" xlink:href="#radial-gradient"/><linearGradient id="linear-gradient-138" x1="282.05" y1="327.47" x2="319.79" y2="356.63" xlink:href="#linear-gradient-109"/><linearGradient id="linear-gradient-139" x1="274.57" y1="328.05" x2="297.82" y2="334.8" xlink:href="#linear-gradient-109"/><radialGradient id="radial-gradient-29" cx="275.25" cy="338.17" r="4.71" gradientUnits="userSpaceOnUse"><stop offset="0.35" stop-color="#fff"/><stop offset="0.85" stop-color="#fcfcfe"/><stop offset="0.99" stop-color="#f9fafe"/></radialGradient><radialGradient id="radial-gradient-30" cx="275.25" cy="338.17" r="4.03" gradientUnits="userSpaceOnUse"><stop offset="0" stop-color="#fff"/><stop offset="0.99" stop-color="#f9fafe"/></radialGradient><radialGradient id="radial-gradient-31" cx="275.25" cy="338.17" r="3.27" gradientUnits="userSpaceOnUse"><stop offset="0" stop-color="#f0fafe"/><stop offset="0.52" stop-color="#f4fbfe"/><stop offset="1" stop-color="#fff"/></radialGradient><linearGradient id="linear-gradient-140" x1="322.83" y1="338.08" x2="323.28" y2="382.38" gradientUnits="userSpaceOnUse"><stop offset="0.47" stop-color="#fff"/><stop offset="1" stop-color="#f9fafe"/></linearGradient><linearGradient id="linear-gradient-141" x1="321.56" y1="338.7" x2="323.48" y2="388.42" xlink:href="#linear-gradient-117"/><linearGradient id="linear-gradient-142" x1="322.67" y1="322.59" x2="323.06" y2="360.76" xlink:href="#linear-gradient-117"/><linearGradient id="linear-gradient-143" x1="322.89" y1="343.77" x2="323.14" y2="368.97" xlink:href="#linear-gradient-117"/><linearGradient id="linear-gradient-144" x1="462.12" y1="245.53" x2="420.36" y2="247.19" gradientUnits="userSpaceOnUse"><stop offset="0" stop-color="#afb0f6"/><stop offset="0.53" stop-color="#d8d9fa"/><stop offset="1" stop-color="#f9fafe"/></linearGradient><linearGradient id="linear-gradient-145" x1="457.49" y1="243.72" x2="418.68" y2="245.27" xlink:href="#linear-gradient-144"/><linearGradient id="linear-gradient-146" x1="451.16" y1="241.61" x2="416.48" y2="242.99" xlink:href="#linear-gradient-144"/><linearGradient id="linear-gradient-147" x1="436.33" y1="199.15" x2="427.85" y2="176.69" xlink:href="#linear-gradient-106"/><linearGradient id="linear-gradient-148" x1="426.14" y1="163.21" x2="427.92" y2="177.02" xlink:href="#linear-gradient-106"/><linearGradient id="linear-gradient-149" x1="463.1" y1="247.95" x2="421.33" y2="249.61" xlink:href="#linear-gradient-106"/><linearGradient id="linear-gradient-150" x1="414.97" y1="247.25" x2="408.88" y2="273.75" xlink:href="#linear-gradient-106"/><linearGradient id="linear-gradient-151" x1="425.91" y1="236.18" x2="364.69" y2="165.76" xlink:href="#linear-gradient-106"/><linearGradient id="linear-gradient-152" x1="387.7" y1="201.34" x2="422.66" y2="203.58" xlink:href="#linear-gradient-106"/><linearGradient id="linear-gradient-153" x1="386.65" y1="200.05" x2="418.98" y2="202.13" xlink:href="#linear-gradient-106"/><linearGradient id="linear-gradient-154" x1="234.43" y1="-45.97" x2="234.43" y2="8.82" gradientTransform="translate(468.4 10.77) rotate(180)" xlink:href="#linear-gradient-82"/><linearGradient id="linear-gradient-155" x1="234.88" y1="-64.74" x2="234.88" y2="-77.17" gradientTransform="translate(468.4 10.77) rotate(180)" xlink:href="#linear-gradient-82"/><linearGradient id="linear-gradient-156" x1="234.8" y1="-51.58" x2="234.8" y2="-32.94" gradientTransform="translate(468.4 10.77) rotate(180)" xlink:href="#linear-gradient-82"/><linearGradient id="linear-gradient-157" x1="234.12" y1="83.58" x2="234.12" y2="50.23" xlink:href="#linear-gradient-82"/><linearGradient id="linear-gradient-158" x1="235.24" y1="79.99" x2="234.41" y2="33.85" xlink:href="#linear-gradient-82"/></defs><g class="cls-1"><g id="Layer_2" data-name="Layer 2"><g id="OBJECTS"><path class="cls-2" d="M398.06,411.76c64.54,0,87.05-92.63,48.47-134.9-6.5-7.13-14.84-12.09-21.63-18.9-18.48-18.55-17.49-43.33-8.81-66.44,12.58-33.53,29-64.79,13.41-100.79A85.34,85.34,0,0,0,375,43.19C339,33.08,307.88,48.63,284.19,75c-8.65,9.64-17.76,19.59-29.78,24.44-12.43,5-27,2.67-35.39-8.12s-10.49-26.74-22.36-34.89c-33-22.68-82.5-17.69-112.81,7.11C65.86,78.29,54,99.88,50.07,122.68a94.58,94.58,0,0,0,.35,35.69c2.63,12.31,12.78,22.23,11.43,35.76-1.23,12.26-12,21.07-22.29,27.9C20,235,8.17,251.89,3.41,275.23c-9,44.14-2.36,114.72,47,133a57.2,57.2,0,0,0,19.8,3.57Z"/><path class="cls-3" d="M84.09,37.09a2.53,2.53,0,1,1-2.52-2.52A2.52,2.52,0,0,1,84.09,37.09Z"/><path class="cls-3" d="M145.82,77a2.53,2.53,0,1,1-2.52-2.53A2.52,2.52,0,0,1,145.82,77Z"/><path class="cls-3" d="M76.91,112.72a2.53,2.53,0,1,1-2.53-2.53A2.52,2.52,0,0,1,76.91,112.72Z"/><path class="cls-3" d="M326.64,170.17a2.53,2.53,0,1,1-2.52-2.52A2.52,2.52,0,0,1,326.64,170.17Z"/><circle class="cls-3" cx="409.22" cy="108.02" r="2.52"/><path class="cls-3" d="M382.42,304.12a2.53,2.53,0,1,1-2.52-2.53A2.52,2.52,0,0,1,382.42,304.12Z"/><path class="cls-3" d="M26.9,158.59a2.53,2.53,0,1,1-2.53-2.53A2.52,2.52,0,0,1,26.9,158.59Z"/><path class="cls-3" d="M453.08,77a2.53,2.53,0,1,1-2.52-2.53A2.52,2.52,0,0,1,453.08,77Z"/><circle class="cls-3" cx="75.95" cy="162.49" r="2.52"/><path class="cls-3" d="M39.63,72.81a2.52,2.52,0,1,1-2.52-2.52A2.52,2.52,0,0,1,39.63,72.81Z"/><path class="cls-3" d="M457.1,206.05a2.53,2.53,0,1,1-2.53-2.52A2.53,2.53,0,0,1,457.1,206.05Z"/><path class="cls-3" d="M406.8,28a2.53,2.53,0,1,1-2.53-2.52A2.52,2.52,0,0,1,406.8,28Z"/><path class="cls-3" d="M377.9,71.65a2.52,2.52,0,1,1-2.52-2.52A2.52,2.52,0,0,1,377.9,71.65Z"/><path class="cls-3" d="M317.72,97a2.53,2.53,0,1,1-2.52-2.52A2.52,2.52,0,0,1,317.72,97Z"/><path class="cls-3" d="M317,34.57A2.53,2.53,0,1,1,314.44,32,2.52,2.52,0,0,1,317,34.57Z"/><path class="cls-3" d="M363.79,123.57a2.53,2.53,0,1,1-2.52-2.53A2.52,2.52,0,0,1,363.79,123.57Z"/><ellipse class="cls-3" cx="358.66" cy="108.02" rx="8.98" ry="22.08"/><ellipse class="cls-3" cx="358.66" cy="108.02" rx="22.08" ry="8.98"/><path class="cls-3" d="M365,114.37c-8.62,8.62-18.45,12.77-22,9.26s.64-13.34,9.26-22,18.46-12.77,22-9.26S373.63,105.75,365,114.37Z"/><ellipse class="cls-3" cx="358.66" cy="108.02" rx="8.98" ry="22.08" transform="translate(28.67 285.25) rotate(-45)"/><path class="cls-4" d="M363.76,108a5.1,5.1,0,1,1-5.1-5.1A5.1,5.1,0,0,1,363.76,108Z"/><ellipse class="cls-3" cx="99.4" cy="89.13" rx="8.98" ry="22.08"/><ellipse class="cls-3" cx="99.4" cy="89.13" rx="22.08" ry="8.98"/><path class="cls-3" d="M105.75,95.48c-8.62,8.62-18.45,12.77-22,9.26s.64-13.34,9.26-22S111.51,70,115,73.52,114.37,86.86,105.75,95.48Z"/><ellipse class="cls-3" cx="99.4" cy="89.13" rx="8.98" ry="22.08" transform="translate(-33.91 96.39) rotate(-45)"/><path class="cls-5" d="M104.5,89.13A5.1,5.1,0,1,1,99.4,84,5.1,5.1,0,0,1,104.5,89.13Z"/><ellipse class="cls-3" cx="39.63" cy="20.53" rx="5.79" ry="14.24"/><ellipse class="cls-3" cx="39.63" cy="20.53" rx="14.24" ry="5.79"/><path class="cls-3" d="M43.73,24.63c-5.56,5.56-11.9,8.24-14.17,6s.42-8.6,6-14.16,11.9-8.24,14.17-6S49.29,19.07,43.73,24.63Z"/><path class="cls-3" d="M35.54,24.63c-5.56-5.56-8.24-11.9-6-14.17s8.61.42,14.17,6,8.24,11.9,6,14.16S41.1,30.19,35.54,24.63Z"/><path class="cls-6" d="M42.92,20.53a3.29,3.29,0,1,1-3.29-3.28A3.29,3.29,0,0,1,42.92,20.53Z"/><ellipse class="cls-3" cx="25.39" cy="190.69" rx="5.79" ry="14.24"/><path class="cls-3" d="M25.39,196.49c-7.86,0-14.24-2.6-14.24-5.8s6.38-5.79,14.24-5.79,14.24,2.6,14.24,5.79S33.26,196.49,25.39,196.49Z"/><path class="cls-3" d="M29.49,194.79c-5.56,5.56-11.91,8.24-14.17,6s.41-8.61,6-14.17,11.9-8.24,14.16-6S35.05,189.23,29.49,194.79Z"/><path class="cls-3" d="M21.3,194.79c-5.57-5.56-8.24-11.9-6-14.17s8.61.42,14.17,6,8.24,11.9,6,14.17S26.86,200.35,21.3,194.79Z"/><path class="cls-7" d="M28.68,190.69a3.29,3.29,0,1,1-3.29-3.28A3.29,3.29,0,0,1,28.68,190.69Z"/><ellipse class="cls-3" cx="347.28" cy="14.74" rx="5.79" ry="14.24"/><path class="cls-3" d="M347.28,20.53c-7.86,0-14.24-2.59-14.24-5.79S339.42,9,347.28,9s14.25,2.59,14.25,5.79S355.15,20.53,347.28,20.53Z"/><path class="cls-3" d="M351.38,18.84c-5.56,5.56-11.9,8.23-14.17,6s.42-8.6,6-14.16,11.9-8.24,14.16-6S356.94,13.28,351.38,18.84Z"/><path class="cls-3" d="M343.19,18.84c-5.56-5.56-8.24-11.91-6-14.17s8.61.41,14.17,6,8.24,11.9,6,14.16S348.75,24.4,343.19,18.84Z"/><path class="cls-8" d="M350.57,14.74a3.29,3.29,0,1,1-3.29-3.29A3.29,3.29,0,0,1,350.57,14.74Z"/><path class="cls-9" d="M395,342.63c27.49-1.47,49.91-4.84,49.91-4.84-32.3-35-80.61-27.44-80.61-27.44,15.44-10.18,54.62-26.26,54.62-26.26-47.2-17.93-87.18,2.59-87.18,2.59C350.68,269.32,386,222.45,386,222.45c-64.06,7.13-92.7,45-92.7,45l-16.1,42.89,132.46,49.74C413.58,354.67,408.51,344.62,395,342.63Z"/><path class="cls-10" d="M259.05,336.48s7.21-12.17,21.68-29.49c-3.83-7.88-17.46-37.5-8.12-41.21,10.22-4.07,10.46,27,10.2,38.75,5.48-6.44,11.9-13.49,19.3-20.87-1.39-8.71-5.84-40.9,4.17-41.75,10.52-.9,2.84,26.6-1,38.64,7-6.83,14.82-13.86,23.45-20.86,0-8.09.69-41.78,10.88-41,10.61.83-1.67,27.08-7.37,38.2,7.64-6,15.89-12,24.74-17.78,1.6-7.5,9.32-41,19.21-38s-8.11,26.21-16.27,36.34c1.91-1.2,6.38-4.13,9-5.68a108.44,108.44,0,0,0,16.12-11.45c9.65-8.3,26.89-21.56,32-15.13,6.61,8.32-20.92,17.21-32.95,20.62a40.44,40.44,0,0,0-10.93,5c-5.38,3.48-13.67,8.77-20.46,13.72,11.26-2.75,39.4-9.18,41-.24C396,256,359.28,248,351.15,246.1c-7.29,5.44-15.15,11.67-23.28,18.7,11.06-2.73,37.62-8.28,39.29.74,2.16,11.69-33.69,4-42.35,1.93-7.21,6.36-14.6,13.33-22,20.9,10.55-2.64,38.35-8.69,40.06.55,2.17,11.73-33.94,3.91-42.44,1.91-6.66,7-13.27,14.44-19.7,22.41,10.55-2.65,38.36-8.69,40.07.55,2.14,11.57-33,4.1-42.1,2-5.88,7.42-11.59,15.24-17,23.5Z"/><path class="cls-11" d="M361,375c8.63-1.3,22.67-15.08,22.67-15.08s-16.15-7.61-20-9.28-8.71-5.87-9.35-8.42,1.49-3.89,4.72-4.22,6.68,3.6,9.44,5.38,20.66,15.93,26.44,12.28,10.24-13.52,10.24-13.52-7.83-3.11-13.34-4.66-15.33-6.08-16.63-9,2-4.07,4.63-4.7,13.29,0,18.14-1.48,7.31-3.44,8.72-6.46,2.54-10.56,1.57-11.3-7,2.48-11.49,3.64-8.91,2.69-10.68.35,3-4.51,5.87-6.25,13.84-1.45,17.55-5.95S413,271.24,413,271.24c-2.71.92-26.21-5.09-26.21-5.09-1.56,1.86-7.62,16.89-8,23.91s-4,8-5.93,4.87,1.05-10.52,3.34-17.49a41.22,41.22,0,0,1,7.19-12.58,55.62,55.62,0,0,0-14.53-2.38c-11.17.93-13.27,10.42-15.13,15s-1.75,21.09-2.22,24.13-4.83,6.6-10-5.06,1.35-29.3,1.35-29.3a50.65,50.65,0,0,0-9.23,2.43c-2.94,1-5.47,2.08-6.67,2.58-.47.22-.74.33-.74.33a16.28,16.28,0,0,0-1.32,3.56c-1.46,6,.29,12.69,2.09,17.56.9,2.44,1.81,4.42,2.33,5.62,1.78,4.09,8.67,20.63-3,12.9a14,14,0,0,1-4.43-5.06c-.11-.19-.21-.38-.31-.58a37.37,37.37,0,0,1-3.34-12.15,92.07,92.07,0,0,1-.16-18.68c.05-.51.09-.78.09-.78-.51.16-1.1.37-1.73.63-3.49,1.45-8.41,4.47-10.52,8.79-.85,1.71-.42,4.35.58,7.22,1.9,5.47,5.84,11.75,6.83,13.89a.75.75,0,0,1,.1.2c.87,2,2.48,6.52,1.82,9.86a4.4,4.4,0,0,1-2.53,3.41,3.8,3.8,0,0,1-4.49-.78c-2.16-2.08-3.41-6.69-3.39-12.13a23.18,23.18,0,0,0-.21-3.32,22.29,22.29,0,0,0-4-10.47,17.17,17.17,0,0,1-2.54,6.11c-1.7,2.89-3.91,6.11-5.64,9.62a25.17,25.17,0,0,0-2.66,8.49,17,17,0,0,0,2.12,10.08,21.29,21.29,0,0,0,3.18,4.45c8.5,9.11,22,6.06,29.93,4,9-2.36,7.95,2.21,7.95,2.21C320.13,369,352.36,376.3,361,375Zm32.27-97.38c.62-1.35,3.47.91,3.8,1.76,0,0,1.2,1.24-.82,4.1S392.65,279,393.27,277.61Zm-47,36.35c-.63-1.73-1.18-4.94-.37-6s3.18-.63,3.54.92a6.18,6.18,0,0,1,.2,3.76C349,314.42,346.85,315.68,346.22,314Zm34.73.81s1.79,3,.65,3.66S380.3,313.46,381,314.77Zm-32,33.14c-1.11-.1-3-2.62-3.63-4.94s-.59-4.58.47-4.83,1.47-.88,2.34.42c0,0,3.05,4.27,3.19,6.29S350,348,348.94,347.91Z"/><g class="cls-12"><path class="cls-13" d="M392.25,290.61q-3.63,2.46-7.18,5-8.16,5.91-16.24,11.92Q358,315.63,347.29,323.9q-11.48,8.87-22.73,18c-6.86,5.6-13.76,11.21-20.18,17.32-.7.67-1.39,1.34-2.06,2-.4.43.1,1.12.6.74,3.22-2.53,6.28-5.27,9.42-7.89,3.5-2.91,7-5.85,10.51-8.72,7.49-6.09,15.08-12.05,22.7-18,7.24-5.64,14.56-11.19,21.86-16.75q8.44-6.43,17-12.78c2.79-2.07,5.6-4.13,8.32-6.29l.25-.18c.57-.42-.12-1.23-.69-.84Z"/><path class="cls-14" d="M371.26,267.47c-6.51,8.85-9.1,20.41-9.51,31.2q-.12,3.36,0,6.7a31.93,31.93,0,0,0,.87,7.62c.15.48.9.54.94,0a62,62,0,0,0-.21-6.67c-.07-2-.08-4,0-6a80.72,80.72,0,0,1,1.08-10.75,62.58,62.58,0,0,1,4.77-15.77,58.8,58.8,0,0,1,2.94-5.62c.35-.59-.46-1.21-.88-.64Z"/><path class="cls-15" d="M333.3,280.51a60.46,60.46,0,0,0,2.31,24.79,96.93,96.93,0,0,0,6.78,15.45c1,1.9,1.88,3.82,2.78,5.76a.47.47,0,0,0,.89-.28,16.09,16.09,0,0,0-1.79-5.22c-1-2.17-2.16-4.28-3.18-6.46a69.19,69.19,0,0,1-5.9-18.88,85.17,85.17,0,0,1-.81-15.06.54.54,0,0,0-1.08-.1Z"/><path class="cls-16" d="M296.22,311.76c-.44,4,0,8.18,2.42,11.56a15.54,15.54,0,0,0,8.36,5.59c7.35,2.26,15.24,1.55,22.81,1.52a34.62,34.62,0,0,1,9.53.83c.48.13.92-.51.45-.83-2.13-1.4-5.22-1.48-7.68-1.55-3.6-.11-7.2,0-10.8,0a60.1,60.1,0,0,1-11.36-1,17.74,17.74,0,0,1-8.83-4.13c-3.19-3.08-3.93-7.64-3.82-11.9a.54.54,0,0,0-1.08-.1Z"/><path class="cls-17" d="M388.11,342.67a137.09,137.09,0,0,1-17-7,81.27,81.27,0,0,1-13.32-8.54c-1.09-.87-2.14-1.78-3.21-2.67a39.89,39.89,0,0,0-3.26-2.7.47.47,0,0,0-.64.68,27.46,27.46,0,0,0,5.23,5.21,76.46,76.46,0,0,0,21.35,12.69,78.84,78.84,0,0,0,10.47,3.38c.66.16,1.06-.77.39-1Z"/><path class="cls-18" d="M365.57,361.6c-12.41,4-24.09-6.19-27.18-17.75a27,27,0,0,1-.85-5.28c-.12-1.89.07-3.73.09-5.62a.48.48,0,0,0-.92-.2c-1.18,3.18-.85,7.1-.15,10.36a28.87,28.87,0,0,0,3.79,9.31c3.42,5.47,8.84,9.89,15.23,11.22A17.23,17.23,0,0,0,366,362.59c.66-.28.2-1.2-.45-1Z"/><path class="cls-19" d="M401.56,312c-10.17,2.59-21.64,5.85-31.89,1.81-1.73-.69-3.35-1.69-5.1-2.32-.41-.14-.88.39-.53.74a14.92,14.92,0,0,0,4.37,2.74,27,27,0,0,0,5.49,1.76,40.57,40.57,0,0,0,15.49-.19A69.28,69.28,0,0,0,401.87,313c.57-.22.29-1.19-.31-1Z"/></g><path class="cls-20" d="M260.12,314.28s35.71-118.39,75.41-110.6-36.45,78.41-52,103.55c0,0,63.23-72.25,78.65-47.83s-53.21,47.46-58.42,51.8c0,0,97.36-33.49,89.17,1.49C391.6,318.27,380,324.23,363,324c-20.63-.27-47.87-5.05-68.86,9.73"/><g class="cls-12"><path class="cls-21" d="M330.8,216.36c-6.26,5-11.17,11.73-15.79,18.21-6.53,9.17-12.47,18.74-18.16,28.45q-9.24,15.78-17.69,32-7.55,14.39-14.58,29A202.43,202.43,0,0,0,256,343.63c-.17.49-.3,1-.48,1.48a.47.47,0,0,0,.89.33c.89-2.42,2.1-4.79,3.17-7.14,1.62-3.54,3.31-7.06,5-10.58,4.48-9.41,9.18-18.72,14-28,5.63-10.76,11.42-21.44,17.48-32,5.69-9.87,11.56-19.66,17.95-29.1,2.65-3.92,5.41-7.79,8.35-11.51a81.24,81.24,0,0,1,7.46-8.48c.54-.52,1.09-1,1.66-1.5a.54.54,0,0,0-.68-.85Z"/></g><g class="cls-12"><path class="cls-22" d="M352.86,264.2c-6.86,2.55-13.14,6.49-19.18,10.55-7.87,5.28-15.39,11.06-22.72,17.07q-11.61,9.51-22.66,19.68c-6.57,6-13,12.2-19.31,18.54a150.22,150.22,0,0,0-12.56,13.77c-.29.38-.55.81-.85,1.18s.39,1,.77.56c1.46-1.85,3.21-3.55,4.82-5.27,2.29-2.42,4.63-4.79,7-7.16,6.08-6.16,12.35-12.14,18.72-18q10.9-10,22.27-19.56c7.34-6.12,14.83-12.08,22.63-17.62a125.91,125.91,0,0,1,19.53-11.87c.67-.31,1.34-.61,2-.88s.2-1.24-.45-1Z"/></g><g class="cls-12"><path class="cls-23" d="M377.79,307.8c-14.05-1.32-28.41-.12-42.24,2.5a200.93,200.93,0,0,0-50.8,16.88q-7.54,3.69-14.77,8a115.12,115.12,0,0,0-14.31,9.73c-.49.39.09,1,.59.73,4.45-2.77,8.78-5.69,13.27-8.39q6.32-3.78,12.88-7.08a206.1,206.1,0,0,1,25.94-10.89,196.41,196.41,0,0,1,47.56-10.07,155.24,155.24,0,0,1,21.78-.32.55.55,0,0,0,.1-1.09Z"/></g><path class="cls-24" d="M23.77,249c1.49,6.81,8.26,8.57,12,14.45C39,268.36,39.43,275,43.67,279c2.61,2.51,6.3,3.63,9,6.07,5.13,4.66,5.33,12.74,9.36,18.38A24.12,24.12,0,0,0,67.92,309c3.5,2.45,7.7,4.53,11.91,3.8,4.47-.78,7.91-4.62,9.52-8.86s1.74-8.87,1.9-13.4c0-1.39-1-2.27.22-3,.54-.33,12.43-3,16-6.08a7.74,7.74,0,0,0,2.62-3.72,7.94,7.94,0,0,0,0-3.43c-1.06-6-5.33-11.16-10.57-14.32s-11.37-4.55-17.45-5.19a32.68,32.68,0,0,1-7.25-1.19c-3.79-1.28-6.9-4.16-10.72-5.35-3.42-1.08-7.11-.7-10.7-.7a49.66,49.66,0,0,1-15.9-2.61c-4.69-1.59-10.23-3.77-14.19-.8C23.33,244.13,23.51,247.79,23.77,249Z"/><g class="cls-25"><path class="cls-26" d="M86.58,283.24a24.53,24.53,0,0,1,.8-5.91,35.88,35.88,0,0,1,2.14-5.58c.83-1.8,1.76-3.55,2.67-5.3a33.74,33.74,0,0,0,2.54-5.24.07.07,0,0,0-.12,0c-.5.84-.89,1.76-1.33,2.64s-.92,1.81-1.39,2.7c-1,1.85-1.93,3.69-2.79,5.59-1.54,3.39-3,7.35-2.6,11.15a0,0,0,0,0,.08,0Z"/><path class="cls-27" d="M89.47,285.28c.52.86,1.89-1.83,2.08-2.12A55.45,55.45,0,0,1,95,278.54a63.56,63.56,0,0,1,7.87-7.78c.06-.05,0-.15-.08-.1a47.43,47.43,0,0,0-7.17,6.78q-1.58,1.81-3,3.77-.7,1-1.38,2c-.2.31-1.35,2.5-1.78,2.06Z"/><path class="cls-28" d="M25,244.74a142.68,142.68,0,0,1,14.06,7.66c6.37,3.78,12.61,7.79,18.79,11.87q10.47,6.93,20.68,14.23,9.81,7,19.33,14.34c5.16,4,10.3,8.05,15.16,12.41.48.43,1,.86,1.43,1.3.29.27.72-.16.43-.44-4.57-4.31-9.35-8.36-14.27-12.27-6.2-4.94-12.57-9.68-19-14.31q-10.25-7.39-20.78-14.38c-6.35-4.22-12.78-8.32-19.35-12.21a133.27,133.27,0,0,0-15-7.93l-1.37-.56c-.17-.07-.29.21-.12.29Z"/><path class="cls-29" d="M27.29,253.8a24.53,24.53,0,0,1,5.45-1.53c1.87-.35,3.75-.41,5.64-.64a.07.07,0,0,0,0-.14,22.8,22.8,0,0,0-5.7.57,20.14,20.14,0,0,0-5.43,1.68s0,.08,0,.06Z"/><path class="cls-30" d="M31.79,257.68a19.86,19.86,0,0,1,3.26-1.19c1-.25,2.09-.41,3.15-.56a39.34,39.34,0,0,1,6.42-.41c.06,0,.08-.1,0-.11a19.64,19.64,0,0,0-6.39.31c-2.17.3-4.65.6-6.49,1.89a0,0,0,0,0,0,.07Z"/><path class="cls-31" d="M36.28,261.81a14.61,14.61,0,0,0,1.54-.51c.57-.18,1.14-.34,1.72-.49,1.21-.32,2.44-.58,3.67-.81,2.43-.44,4.86-.69,7.31-.92.11,0,.12-.18,0-.18a44.39,44.39,0,0,0-7.27.86c-1.27.23-2.53.51-3.77.84a11.85,11.85,0,0,0-3.23,1.15s0,.07,0,.06Z"/><path class="cls-32" d="M39.1,267.33a44,44,0,0,1,8.7-3,45.22,45.22,0,0,1,4.6-.82c1.5-.19,3-.22,4.51-.33a.09.09,0,1,0,0-.18,24.62,24.62,0,0,0-4.61.28,44.51,44.51,0,0,0-4.56.83,40,40,0,0,0-8.69,3.1s0,.12.05.09Z"/><path class="cls-33" d="M43.27,276.73c1.63-.82,3.2-1.75,4.82-2.58,1.85-.94,3.73-1.83,5.65-2.61a35.13,35.13,0,0,1,11.11-2.8.07.07,0,0,0,0-.14,23.79,23.79,0,0,0-8.6,1.71,64.59,64.59,0,0,0-8.67,3.85,44.54,44.54,0,0,0-4.35,2.5,0,0,0,1,0,0,.07Z"/><path class="cls-34" d="M56.05,286.48a76.56,76.56,0,0,1,9.65-6.26,38.39,38.39,0,0,1,5.39-2.32,41.57,41.57,0,0,1,5.51-1.29.08.08,0,0,0,0-.16A21.26,21.26,0,0,0,71,277.66a38.17,38.17,0,0,0-5.26,2.25,56.47,56.47,0,0,0-9.8,6.46c-.06.05,0,.16.09.11Z"/><path class="cls-35" d="M50.23,281.45c5.36-2.65,10-6.87,16-8a14.82,14.82,0,0,1,2.74-.29,28.46,28.46,0,0,1,2.92.21.09.09,0,0,0,0-.18,12.15,12.15,0,0,0-4.73-.13,19.22,19.22,0,0,0-4.71,1.28,49.53,49.53,0,0,0-8.13,4.57c-1.36.88-2.72,1.77-4.14,2.53,0,0,0,.06,0,0Z"/><path class="cls-36" d="M61.11,295.25c4.33-4.9,8.63-10.36,14.42-13.61a21.37,21.37,0,0,1,5-1.95c.11,0,.06-.18,0-.17-3.08.43-6,2.27-8.39,4.14a56.25,56.25,0,0,0-7.4,7.24c-1.24,1.41-2.44,2.85-3.67,4.26-.05.06,0,.15.09.09Z"/><path class="cls-37" d="M66.09,305c4-6.33,7.9-12.91,13.18-18.28a28.37,28.37,0,0,1,4.56-3.84c.09-.07,0-.21-.08-.15a32.74,32.74,0,0,0-7.83,7.44,98.2,98.2,0,0,0-6.78,9.64c-1.07,1.7-2.12,3.41-3.17,5.12,0,.08.07.14.12.07Z"/><path class="cls-38" d="M78,309.22A41.7,41.7,0,0,1,79.58,298a34.32,34.32,0,0,1,4.65-8.82c1.11-1.57,2.29-3.09,3.44-4.63.06-.07-.06-.16-.12-.09a58.52,58.52,0,0,0-5.89,8.33,28,28,0,0,0-3.38,10,60.94,60.94,0,0,0-.42,6.48.05.05,0,1,0,.1,0Z"/><path class="cls-39" d="M37.62,250.59a14.54,14.54,0,0,1-3.26-5.2c0-.07-.15,0-.12.05a15,15,0,0,0,1.62,3.41,6.89,6.89,0,0,0,1.68,1.85c.06,0,.14-.06.08-.11Z"/><path class="cls-40" d="M44.82,255a21.4,21.4,0,0,0-1-2l-1-2c-.66-1.36-1.25-2.77-2-4.07,0-.06-.13,0-.11,0a39.13,39.13,0,0,0,1.87,4l1,2A19.55,19.55,0,0,0,44.76,255a0,0,0,0,0,.06,0Z"/><path class="cls-41" d="M50.84,258.68c-.33-.82-.77-1.59-1.14-2.4s-.78-1.76-1.12-2.67c-.67-1.73-1.12-3.53-1.72-5.29a.07.07,0,0,0-.13,0,27,27,0,0,0,1.66,5.4q.49,1.25,1,2.46a18.07,18.07,0,0,0,1.32,2.5s.1,0,.08,0Z"/><path class="cls-42" d="M57.4,262.91c-.9-2.35-1.89-4.63-2.61-7s-1.16-4.87-1.67-7.33c0-.06-.11,0-.11,0a37.2,37.2,0,0,0,1.56,7.37,35.84,35.84,0,0,0,2.73,7c0,.05.12,0,.1,0Z"/><path class="cls-43" d="M65.55,268.59a69.47,69.47,0,0,1-2.72-10c-.69-3.38-1.12-6.8-1.68-10.21,0-.06-.11,0-.11,0A76,76,0,0,0,62.6,258.6a59.06,59.06,0,0,0,2.86,10c0,.06.12,0,.09,0Z"/><path class="cls-44" d="M72.27,272.88a66,66,0,0,1-3-17.24c-.06-1.23-.1-2.46,0-3.69,0-.12-.18-.11-.18,0a46.45,46.45,0,0,0,.25,7.46,67.26,67.26,0,0,0,1.45,9,25,25,0,0,0,1.41,4.47c0,.05.11,0,.09,0Z"/><path class="cls-45" d="M77.36,276.81c-1.09-3.3-1-6.91-.9-10.34A103.89,103.89,0,0,0,76.85,256c0-.09-.15-.09-.15,0,0,3.55-.33,7.08-.46,10.62-.13,3.37-.17,7,1,10.18,0,.05.11,0,.09,0Z"/><path class="cls-46" d="M82.74,280.31a25.29,25.29,0,0,1-.16-8.46c.34-3.12.91-6.2,1.36-9.29a28.67,28.67,0,0,0,.45-4.42.08.08,0,0,0-.16,0c-.35,2.93-.76,5.84-1.21,8.76A58.57,58.57,0,0,0,82.1,276a17.17,17.17,0,0,0,.49,4.4c0,.1.18,0,.15,0Z"/></g><path class="cls-47" d="M72.5,304.55c-21.35-9.34-38.1-18.68-38.1-18.68,36-18.09,72,2.24,72,2.24C97.21,275.45,71,251.06,71,251.06c42.72-.16,68.29,28,68.29,28-9.84-19.38-23.88-67-23.88-67,48.62,24.69,60,63.2,60,63.2V314H55.7C54.2,308.56,61.2,302.1,72.5,304.55Z"/><path class="cls-48" d="M182,340.12s-2.09-11.79-8.4-29.82c5.37-5.1,25-24.5,18.69-30.23-6.89-6.26-16.34,18.32-19.61,27.67-2.43-6.74-5.41-14.23-9.08-22.27,3.7-6.49,16.79-30.67,9.12-34.32-8.07-3.84-10.17,20.22-10.7,30.91-3.53-7.5-7.61-15.39-12.37-23.5,2.4-6.41,11.88-33.3,3.57-35.7-8.64-2.5-6.72,21.94-5.52,32.45-4.26-7.06-9-14.25-14.31-21.45,1-6.41,4.8-35.22-3.91-35.84s-1.36,23.17,2.09,33.62c-1.16-1.51-3.83-5.17-5.46-7.18a90.89,90.89,0,0,1-9.36-13.87c-5.18-9.44-14.89-25.07-20.85-21.5-7.72,4.62,11.44,19.85,20,26.14a33.94,33.94,0,0,1,7.18,7.18c3.22,4.36,8.22,11,12.12,17-8.1-5.53-28.47-19-32.44-12.41-5.24,8.71,26.19,13.26,33.21,14.16,4.15,6.48,8.52,13.76,12.88,21.74-8-5.45-27.34-17.75-31.35-11.1-5.19,8.62,25.51,13.16,33,14.13,3.83,7.18,7.6,14.9,11.19,23.09-7.58-5.24-27.8-18.29-31.9-11.48-5.21,8.64,25.72,13.18,33,14.13,3.2,7.51,6.22,15.39,8.94,23.61-7.57-5.23-27.8-18.29-31.9-11.48-5.14,8.53,24.93,13.07,32.76,14.1,2.44,7.63,4.64,15.52,6.47,23.67Z"/><path class="cls-49" d="M123.25,318.72s.55-3.92,7,.62c5.64,4,15.45,10.44,24.9,5.75a17.9,17.9,0,0,0,3.83-2.58,14.33,14.33,0,0,0,4.68-7.35,21.38,21.38,0,0,0,.42-7.52c-.33-3.3-1.12-6.5-1.6-9.3a14.44,14.44,0,0,1-.2-5.6,18.84,18.84,0,0,0-6.29,7.1,21.12,21.12,0,0,0-1.16,2.57c-1.6,4.32-4,7.6-6.28,8.6a3.23,3.23,0,0,1-3.8-.71,3.74,3.74,0,0,1-1-3.46c.47-2.84,3.1-5.95,4.38-7.27a.89.89,0,0,1,.14-.13c1.42-1.4,6.4-5.2,9.54-9,1.64-2,2.77-3.94,2.61-5.54-.39-4.05-3.39-7.91-5.72-10.09-.42-.4-.82-.74-1.18-1,0,0-.05.23-.16.64a77.51,77.51,0,0,1-5.69,14.75,31.37,31.37,0,0,1-6.26,8.64l-.41.37a11.88,11.88,0,0,1-5,2.68c-11.54,2.66-1.16-8.39,1.47-11.1.76-.8,2.08-2.1,3.52-3.76,2.87-3.33,6.25-8.12,6.87-13.29a13.26,13.26,0,0,0,0-3.21l-.48-.48c-.81-.76-2.49-2.36-4.52-4a42.52,42.52,0,0,0-6.59-4.67s0,15.92-7.64,23.61-10,3.58-9.45,1,5.53-15.59,5.42-19.77,1.06-12.33-7.51-16.39a47.12,47.12,0,0,0-12.22-2.43,35,35,0,0,1,2,12.1c-.26,6.2-.06,13-2.56,14.85s-5,.06-3.24-5.62,1.44-19.39.76-21.32c0,0-20.4-2.23-22.27-3.77,0,0-6.3,16.22-4.69,20.88s10.39,7.7,12.13,9.93,4.89,5.36,2.8,6.7-5.12-1.18-8.36-3.46-7-6.62-8-6.3S71,277,71.21,279.81s1.58,5.15,5,7.72,12,5.3,13.93,6.57,4.16,3.13,2.28,5.09-11,2.64-15.86,2.21-12-.27-12-.27.6,9.14,4.09,13.75,21.9-1.27,24.6-1.86,6.63-2.7,9.07-1.46,3.77,2.92,2.49,4.75-6.39,3.71-9.91,3.88-18.59,1.42-18.59,1.42,7,15.09,13.47,18.68S124,347.67,123.25,318.72ZM89.1,257.31c-.74-2.87.57-3.49.57-3.49.51-.57,3.45-1.52,3.54-.27S89.84,260.19,89.1,257.31Zm28.28,37a5.25,5.25,0,0,1,1.28-2.92,1.85,1.85,0,0,1,3.08.32c.33,1.08-1.06,3.46-2.08,4.64S117.35,295.89,117.38,294.31Zm-27.07-4.95c-.7-.88,1.6-2.7,1.6-2.7C92.82,285.81,91,290.26,90.31,289.36Zm16.13,29.94c.72-1.56,4.41-4,4.41-4,1.07-.78,1.19-.17,2,.36s.12,2.3-1.07,4-3.42,3.09-4.34,2.84S105.73,320.87,106.44,319.3Z"/><g class="cls-12"><path class="cls-50" d="M89.46,264.56c1.36,2.06,2.64,4.17,4,6.25q4.62,7.17,9.19,14.39c4.07,6.44,8.14,12.89,12.14,19.38,4.31,7,8.57,14,12.72,21,3.79,6.44,7.44,13,11.06,19.5.4.72.79,1.43,1.2,2.13.2.33.66,0,.51-.3-1.42-3.18-3.11-6.24-4.76-9.3-1.83-3.38-3.75-6.71-5.67-10q-6.14-10.62-12.57-21.06-6.1-9.92-12.38-19.74-4.86-7.56-9.79-15.08-2.41-3.68-4.91-7.3l-.15-.21c-.24-.35-.82,0-.58.34Z"/><path class="cls-51" d="M112.89,252.29c1.75,9,.62,18.28-2.13,26.91-.58,1.84-1.25,3.64-2,5.42-.79,1.94-1.78,3.82-2.47,5.8-.11.33.36.48.54.22a28.46,28.46,0,0,0,2.57-5c.69-1.61,1.34-3.24,1.91-4.9a60.73,60.73,0,0,0,2.44-9,50.22,50.22,0,0,0,.74-14.16,33.23,33.23,0,0,0-1-5.43c-.11-.43-.73-.25-.65.18Z"/><path class="cls-52" d="M139.08,273.48a61.27,61.27,0,0,1-9.58,18.57,89.45,89.45,0,0,1-9.75,10.1,16.67,16.67,0,0,0-3.52,4c-.15.28.23.61.46.35,2.48-2.68,5.29-5,7.92-7.52A54.46,54.46,0,0,0,135,285.6a53.35,53.35,0,0,0,4.7-11.94.34.34,0,0,0-.65-.18Z"/><path class="cls-53" d="M159.15,309.27c-1,3.1-2.7,6.23-5.62,7.92a13.37,13.37,0,0,1-8.07,1.33,41,41,0,0,1-9.24-2.32c-2.94-1-5.83-2.22-8.76-3.28a34.19,34.19,0,0,0-4.15-1.27,8.79,8.79,0,0,0-3.42-.24c-.34.06-.24.56.08.58a23.12,23.12,0,0,1,6.72,1.69c3,1.09,5.91,2.34,8.9,3.42a42.56,42.56,0,0,0,9.47,2.45,14.45,14.45,0,0,0,8.48-1.22c3.41-1.8,5.31-5.28,6.27-8.88a.34.34,0,0,0-.66-.18Z"/><path class="cls-54" d="M77.94,307.43a68.46,68.46,0,0,0,29.09-3c1.1-.37,2.2-.76,3.27-1.22a21.83,21.83,0,0,0,3.27-1.57.3.3,0,0,0-.22-.54c-1,.29-2,.73-2.94,1.08s-2,.74-3,1.08c-2,.68-4.08,1.26-6.16,1.74a77,77,0,0,1-14.18,1.82c-3,.12-6.09.05-9.13-.05-.44,0-.42.64,0,.68Z"/><path class="cls-55" d="M89.6,328.89a16,16,0,0,0,14.82,3.53,23.63,23.63,0,0,0,13.49-9.34,18,18,0,0,0,3.59-9c0-.34-.48-.38-.57-.07-.42,1.33-.76,2.67-1.31,4a24.6,24.6,0,0,1-1.92,3.67,23,23,0,0,1-5.55,5.91c-4.06,3-9.2,4.91-14.32,4.28a15.21,15.21,0,0,1-7.75-3.39c-.33-.27-.8.18-.48.48Z"/><path class="cls-56" d="M76,279a55.27,55.27,0,0,0,14.52,9.29,25.83,25.83,0,0,0,10.62,2.14,15,15,0,0,0,4.85-.78c.29-.11.28-.6-.07-.58-1.41.06-2.8.31-4.2.37a21.55,21.55,0,0,1-4.68-.31,35.28,35.28,0,0,1-11.77-4.72c-3.07-1.81-6-3.86-8.86-5.94-.31-.23-.71.28-.41.53Z"/></g><path class="cls-57" d="M187.78,322.21s6.92-104.41-26.84-110,5.55,73,10.41,97.51c0,0-28.6-76-48.07-61.29s28,53.43,30.87,58.42c0,0-67.16-55.49-71.09-25.35-.62,4.81,6.83,13,20.29,17.85,16.42,5.93,39.42,10.25,51.66,28.19"/><g class="cls-12"><path class="cls-58" d="M160.22,224a50.72,50.72,0,0,1,3.46,8.1c1.26,3.64,2.33,7.34,3.29,11.07,1.12,4.36,2.1,8.77,3,13.18q1.49,7.32,2.74,14.68,1.31,7.62,2.41,15.27c.74,5.07,1.43,10.13,2.08,15.21q.92,7.22,1.7,14.44.71,6.4,1.28,12.81c.32,3.49.62,7,.88,10.49.18,2.49.32,5,.43,7.46,0,.42.07.85.06,1.27a.3.3,0,0,0,.59,0c0-2.21,0-4.4-.1-6.61q-.24-4.93-.64-9.87-.51-6.19-1.15-12.38-.72-7.11-1.58-14.22-.9-7.57-2-15.14t-2.35-15.4c-.82-5-1.7-9.95-2.69-14.89-.92-4.57-1.91-9.12-3-13.64-1-3.91-2-7.8-3.3-11.62a61.92,61.92,0,0,0-3.62-8.9q-.42-.84-.9-1.65a.34.34,0,0,0-.59.34Z"/></g><g class="cls-12"><path class="cls-59" d="M128.64,255.52a87.12,87.12,0,0,1,11.79,14.26c4.57,6.53,8.72,13.35,12.71,20.24,4.21,7.29,8.2,14.7,12,22.19q5.15,10,9.82,20.28c2.16,4.76,4.27,9.54,6.12,14.42.15.39.33.77.45,1.16s.69.21.57-.15c-.63-1.95-1.26-3.88-2-5.79q-1.55-3.93-3.25-7.79c-3-6.72-6.12-13.34-9.4-19.91q-5.65-11.3-11.89-22.31c-4-7.07-8.26-14-12.88-20.75a95.53,95.53,0,0,0-12.21-15.06c-.45-.43-.91-.85-1.38-1.27-.32-.28-.8.18-.48.48Z"/></g><g class="cls-12"><path class="cls-60" d="M96.27,282.85a125.37,125.37,0,0,1,15.26,5.8,157.54,157.54,0,0,1,17,9A167.12,167.12,0,0,1,146.16,310a174.51,174.51,0,0,1,17.33,15.85,185.24,185.24,0,0,1,16.18,19.62c.64.89,1.27,1.78,1.92,2.65.22.3.71,0,.51-.29a107.87,107.87,0,0,0-7.49-10.65q-3.92-5-8.19-9.68A168.63,168.63,0,0,0,149.05,311a171.1,171.1,0,0,0-17.83-12.89,152.76,152.76,0,0,0-17.3-9.38,115.83,115.83,0,0,0-15.69-6l-1.78-.51a.34.34,0,0,0-.18.66Z"/></g><path class="cls-61" d="M188.76,368.15c-2.6,14.12-10.19,27.14-22.48,34.93-14.86,9.35-33,10.45-50,10.29l-5.63-.1-5.63.1c-17.08.16-35.18-.94-50-10.29a47,47,0,0,1-12-11,55.54,55.54,0,0,1-10.45-23.89,68.88,68.88,0,0,1-.13-23.83,85.87,85.87,0,0,1,5.92-20.17c6.56-15.31,16.66-28.78,27.3-41.49l.36-.38a138.49,138.49,0,0,0,32.74-89.09V125.25h23.92v67.94a137.11,137.11,0,0,0,11.49,54.87,139.63,139.63,0,0,0,21.25,34.22l.36.38c4.47,5.37,8.84,10.84,12.89,16.53a131.71,131.71,0,0,1,14.41,25C188.89,338,191.56,353.16,188.76,368.15Z"/><path class="cls-62" d="M184,366.52c-2.45,13.26-9.58,25.5-21.12,32.81-14,8.79-31,9.82-47,9.66l-5.29-.09-5.29.09c-16,.16-33-.87-47-9.66A44.26,44.26,0,0,1,47,389a52.26,52.26,0,0,1-9.82-22.45,64.72,64.72,0,0,1-.12-22.38,80.94,80.94,0,0,1,5.56-18.94c6.16-14.38,15.65-27,25.65-39,.12-.13.21-.25.33-.37,19.73-23.44,33.64-53,33.64-83.68V125.25H118.1v76.93a128.81,128.81,0,0,0,10.78,51.54c5,11.54,15.5,22.39,23.72,32.14.12.12.21.24.33.37,4.2,5,8.31,10.18,12.12,15.52a124.34,124.34,0,0,1,13.53,23.44C184.14,338.24,186.65,352.44,184,366.52Z"/><path class="cls-63" d="M145.83,366.52c-1.17,13.26-4.59,25.5-10.13,32.81-6.7,8.79-14.85,9.82-22.55,9.66l-2.54-.09-2.53.09c-7.7.16-15.86-.87-22.56-9.66A41,41,0,0,1,80.1,389a88.73,88.73,0,0,1-4.71-22.45,134.9,134.9,0,0,1,0-22.38A153.67,153.67,0,0,1,78,325.2c3-14.38,7.51-27,12.31-39,.06-.13.1-.25.16-.37a228.66,228.66,0,0,0,16.14-83.68V125.25h7.6v76.93a253.29,253.29,0,0,0,5.17,51.54c2.41,11.54,7.44,22.39,11.38,32.14.06.12.1.24.16.37,2,5,4,10.18,5.81,15.52a186.83,186.83,0,0,1,6.49,23.44A144.1,144.1,0,0,1,145.83,366.52Z"/><path class="cls-64" d="M126.51,125.28H96.77a5.2,5.2,0,0,1-5.2-5.2h0a5.2,5.2,0,0,1,5.2-5.2h29.74a5.2,5.2,0,0,1,5.2,5.2h0A5.2,5.2,0,0,1,126.51,125.28Z"/><path class="cls-65" d="M184,367.26c-2.54,13.77-9.77,25.08-20.3,31.72-13.37,8.45-30,9.55-44.46,9.55h-3l-2.79,0-2.93,0-2.83,0-2.79,0h-3c-14.5,0-31.09-1.1-44.42-9.55-10.57-6.64-17.8-18-20.34-31.72-2.42-13.07-.58-27,5.51-41.22A112.48,112.48,0,0,1,48,315.32a11.3,11.3,0,0,1,2.94.88c.48.22.92.44,1.36.69a38.36,38.36,0,0,1,4.77,3.27c2.09,1.62,4.11,3.38,6.24,4.92,4.78,3.49,10.25,5.84,16.27,5.54,6.75-.36,12.59-4.07,18.61-6.79,3.82-1.69,7.67-3.3,11.86-3.78a29.6,29.6,0,0,1,11.34,1.18c7.23,2.13,13.59,6.09,21.11,7.34a38.57,38.57,0,0,0,23.39-3.42,42.89,42.89,0,0,0,5.47-3.08,39.63,39.63,0,0,0,3.89-2.83c1.17,2.24,2.28,4.48,3.23,6.8C184.63,340.28,186.47,354.19,184,367.26Z"/><g class="cls-66"><path class="cls-67" d="M176.85,364.27c-2.31,12.45-8.81,22.62-18.36,28.64-12,7.6-27,8.63-40.09,8.63h-2.68l-2.49-.08-2.65,0-2.57,0-2.53.08h-2.64c-13.11,0-28.09-1-40.09-8.63-9.55-6-16.08-16.19-18.36-28.64-2.2-11.78-.55-24.3,5-37.19.91-2.12,1.9-4.18,3-6.24a38.36,38.36,0,0,1,4.77,3.27c2.09,1.62,4.11,3.38,6.24,4.92,4.78,3.49,10.25,5.84,16.27,5.54,6.75-.36,12.59-4.07,18.61-6.79,3.82-1.69,7.67-3.3,11.86-3.78a29.6,29.6,0,0,1,11.34,1.18c7.23,2.13,13.59,6.09,21.11,7.34a38.64,38.64,0,0,0,23.39-3.42,42.89,42.89,0,0,0,5.47-3.08,9.41,9.41,0,0,1,.51,1.06C177.4,340,179.05,352.49,176.85,364.27Z"/></g><g class="cls-66"><path class="cls-68" d="M167.63,354.14c-2,10.68-7.6,19.46-15.78,24.64-10.36,6.53-23.28,7.41-34.51,7.41H115l-2.16,0-2.28,0-2.2,0-2.17,0H103.9c-11.27,0-24.16-.88-34.51-7.41-8.19-5.18-13.8-14-15.79-24.64-1.79-9.54-.62-19.68,3.49-30,2.09,1.62,4.11,3.38,6.24,4.92,4.78,3.49,10.25,5.84,16.27,5.54,6.75-.36,12.59-4.07,18.61-6.79,3.82-1.69,7.67-3.3,11.86-3.78a29.6,29.6,0,0,1,11.34,1.18c7.23,2.13,13.59,6.09,21.11,7.34a38.64,38.64,0,0,0,23.39-3.42A52,52,0,0,1,167.63,354.14Z"/></g><path class="cls-69" d="M82,348.79a8.73,8.73,0,1,1-8.73-8.73A8.73,8.73,0,0,1,82,348.79Z"/><path class="cls-70" d="M85.21,387a8.73,8.73,0,1,1-8.73-8.73A8.73,8.73,0,0,1,85.21,387Z"/><circle class="cls-71" cx="162.56" cy="347.6" r="8.73" transform="translate(-213.02 426.28) rotate(-76.77)"/><path class="cls-72" d="M125.81,366.36a8.73,8.73,0,1,1-8.73-8.73A8.73,8.73,0,0,1,125.81,366.36Z"/><path class="cls-73" d="M117.08,344a5.17,5.17,0,1,1-5.17-5.17A5.16,5.16,0,0,1,117.08,344Z"/><path class="cls-74" d="M92.31,366.36a5.18,5.18,0,1,1-5.18-5.17A5.18,5.18,0,0,1,92.31,366.36Z"/><path class="cls-75" d="M129.6,383.44a5.17,5.17,0,1,1-5.17-5.17A5.17,5.17,0,0,1,129.6,383.44Z"/><path class="cls-76" d="M149.42,346.56a8.73,8.73,0,1,1-8.73-8.73A8.73,8.73,0,0,1,149.42,346.56Z"/><path class="cls-77" d="M158.15,382.22a8.73,8.73,0,1,1-8.73-8.73A8.73,8.73,0,0,1,158.15,382.22Z"/><path class="cls-78" d="M375.92,258a4.14,4.14,0,0,1-1.24,3l-.28.26-.1.07a4.07,4.07,0,0,1-2.13.88l-.45,0-46.26-.63-.4,0a4.2,4.2,0,0,1-3.8-4.18,4.23,4.23,0,0,1,4.2-4.2l46.26.64A4.19,4.19,0,0,1,375.92,258Z"/><path class="cls-79" d="M372.64,257.16a3.43,3.43,0,0,1-.93,2.36,2,2,0,0,1-.21.2l-.08.06a2.88,2.88,0,0,1-1.59.7l-.34,0-41.8-.63-.31,0a3.26,3.26,0,0,1-2.84-3.32,3.41,3.41,0,0,1,.93-2.36,3,3,0,0,1,2.22-1l41.8.64A3.25,3.25,0,0,1,372.64,257.16Z"/><path class="cls-80" d="M294.36,301A67.63,67.63,0,0,1,314.72,288l.5-25.67h-.34a5,5,0,1,1,.19-9.92l48.43.88a5,5,0,1,1-.19,9.92H363l-.44,22.94a67.44,67.44,0,0,1,27.22,16.65A63.87,63.87,0,0,1,388,395.11c-26.83,25-69.54,24.25-95.39-1.74A63.88,63.88,0,0,1,294.36,301Z"/><path class="cls-81" d="M282.08,366.65c10.59,31.23,45.63,48.53,78.23,38.63,28-8.48,45.07-34.23,42.67-61.09-7.2,1.28-16-1-22.06-2.6-6.67-1.7-11.67-3.92-18.55-1.2-4.65,1.86-6.93,5.66-11.17,8-13.37,7.45-23.41,2.21-35.86-3.3-10.54-4.68-18.86-3.32-28.15,2.06a58.62,58.62,0,0,1-8.06,4A56.38,56.38,0,0,0,282.08,366.65Z"/><path class="cls-82" d="M287.62,368.35c9.73,28.67,41.89,44.56,71.83,35.47,22.19-6.74,36.93-25.31,39.1-46.15a9,9,0,0,0-8-9.82,87.69,87.69,0,0,1-12.2-2.51c-6.12-1.56-10.72-3.6-17-1.1-4.27,1.71-6.36,5.2-10.25,7.38-12.28,6.84-21.5,2-32.93-3-9.68-4.3-17.32-3-25.84,1.89q-1,.57-1.92,1.08a9.12,9.12,0,0,0-4.65,9.7A53,53,0,0,0,287.62,368.35Z"/><g class="cls-83"><path class="cls-84" d="M307.33,358.84a4.06,4.06,0,0,0-1.6-1.3,4.28,4.28,0,0,0-2-.55,4.06,4.06,0,0,0-2.1.17l-1.29.58a5.09,5.09,0,0,0-1.8,2L298.1,361a5.15,5.15,0,0,0,.16,2.75l.09.27a4.18,4.18,0,0,0,1.1,1.81,4,4,0,0,0,1.59,1.29,6.06,6.06,0,0,0,4.09.39l1.29-.59a5.11,5.11,0,0,0,1.81-2l.45-1.26a5.16,5.16,0,0,0-.17-2.75l-.09-.27A4.07,4.07,0,0,0,307.33,358.84Z"/><path class="cls-85" d="M329.59,383c-6.54,2-3.15,12,3.4,10S336.13,381,329.59,383Z"/><path class="cls-86" d="M378.85,373.87c-6.54,2-3.15,12,3.4,10S385.4,371.88,378.85,373.87Z"/><path class="cls-87" d="M331.34,362.55c-6.54,2-3.15,12,3.4,10S337.89,360.56,331.34,362.55Z"/><path class="cls-88" d="M354.88,383.58c-6.54,2-3.15,12,3.4,10.05S361.43,381.6,354.88,383.58Z"/><path class="cls-89" d="M308.05,376.1c-6.53,2-3.15,12,3.4,10S314.6,374.12,308.05,376.1Z"/><path class="cls-90" d="M386.51,360.83c-6.53,2-3.15,12,3.4,10S393.06,358.84,386.51,360.83Z"/><path class="cls-91" d="M363.94,353.63c-6.54,2-3.15,12,3.4,10S370.49,351.64,363.94,353.63Z"/></g><path class="cls-92" d="M365.93,306.17c-4-7.23-8.78-12.31-13.88-15.27l.22-28.2H327.93l-.24,29.9a40.45,40.45,0,0,0-10.38,12c-13.68,23-14.08,60.9-.91,84.74s34.94,24.56,48.61,1.59S379.1,330,365.93,306.17Z"/><g class="cls-12"><path class="cls-93" d="M310.23,340.08,303,411c-.14,1.35-1.63,2.4-3.42,2.4H169c-1.8,0-3.29-1-3.42-2.41l-7.25-70.89a4.44,4.44,0,0,0,3.77,1.69h144a4.4,4.4,0,0,0,3.78-1.71Z"/><path class="cls-94" d="M301.32,351.29l-8.1,52.92c-.21,2.19-2.63,3.89-5.53,3.89H180.89c-2.91,0-5.32-1.7-5.54-3.89,0,0-6-39.06-7.1-52-.19-2.24,2.13-4.14,5.09-4.17l4.72,0,113.31-1,4.77-.05C299.24,346.86,301.68,348.93,301.32,351.29Z"/><path class="cls-95" d="M291.37,347l-6.47,42.27c-.2,1.88-2.27,3.34-4.75,3.34H188.57c-2.49,0-4.56-1.46-4.75-3.34,0,0-4.31-27.94-5.76-41.26Z"/><path class="cls-96" d="M309.89,340.08a4.4,4.4,0,0,1-3.78,1.71h-144a4.44,4.44,0,0,1-3.77-1.69,2,2,0,0,1,.14-2.44l5.69-7.37a4.62,4.62,0,0,1,3.63-1.49H300.43a4.6,4.6,0,0,1,3.62,1.49l5.69,7.37A2,2,0,0,1,309.89,340.08Z"/><path class="cls-97" d="M309.9,340.07a4.43,4.43,0,0,1-3.79,1.72h-144a4.42,4.42,0,0,1-3.76-1.69,2,2,0,0,1,.15-2.44l5.68-7.37a4.65,4.65,0,0,1,3.62-1.49H300.43a4.69,4.69,0,0,1,3.63,1.49l5.67,7.37A2,2,0,0,1,309.9,340.07Z"/><path class="cls-98" d="M302.77,337.9a4.09,4.09,0,0,1-3.48,1.58H166.79a4.11,4.11,0,0,1-3.47-1.56,1.9,1.9,0,0,1,.13-2.24l3.66-4.74a3.29,3.29,0,0,1,2.58-1.12h126.7a3.29,3.29,0,0,1,2.58,1.12l3.66,4.74A1.84,1.84,0,0,1,302.77,337.9Z"/></g><path class="cls-99" d="M234.29,67.05c-32,0-57.93,2.58-57.93,5.76v258h0c0,3.18,25.95,5.76,57.93,5.76s57.92-2.58,57.94-5.76h0v-258C292.23,69.63,266.29,67.05,234.29,67.05Z"/><path class="cls-100" d="M270.05,117a4.45,4.45,0,0,1-1.42.23l-64.12.21a4.59,4.59,0,0,1,0-9.18L268.6,108a4.59,4.59,0,0,1,1.45,9Z"/><path class="cls-101" d="M270.05,114.39a4.45,4.45,0,0,1-1.42.23l-64.12.21a4.57,4.57,0,0,1-4.39-3.3,4.38,4.38,0,0,0-.21,1.31,4.59,4.59,0,0,0,4.6,4.57l64.12-.21a4.45,4.45,0,0,0,1.42-.23,4.57,4.57,0,0,0,3.15-4.37,4.37,4.37,0,0,0-.2-1.26A4.57,4.57,0,0,1,270.05,114.39Z"/><path class="cls-102" d="M196.56,318.2a4.53,4.53,0,0,1-2.8.07,4.58,4.58,0,0,1-3.11-5.69c5.31-18.14,21.47-37.21,46.74-55.14,23.31-16.53,34.45-33.95,33.11-51.76-2.21-29.65-39-55.76-58.11-65.42a32,32,0,0,1-10-7.83c-4.85-5.67-10.84-15.73-11.83-31.5a4.59,4.59,0,1,1,9.16-.57c.83,13.23,5.7,21.5,9.64,26.1a23.22,23.22,0,0,0,7.16,5.61c2.45,1.23,60,30.75,63.14,72.92,1.59,21.25-10.84,41.41-37,59.94-23.56,16.72-38.52,34.09-43.24,50.23A4.61,4.61,0,0,1,196.56,318.2Z"/><path class="cls-103" d="M240.2,266.73c-2.35-1.16-6-3.21-8.84-4.85q-3.53,2.69-6.77,5.39l5.09,7.7Q234.58,270.83,240.2,266.73Z"/><path class="cls-104" d="M228,149.56a157.74,157.74,0,0,1,13,9.81c1.35-2.7,2.93-6.21,4-8.56-2.44-2-4.84-3.8-7.17-5.48Z"/><path class="cls-105" d="M271.68,318.54a5.53,5.53,0,0,1-.7.18,4.6,4.6,0,0,1-5.34-3.7c-2.71-14.92-14.34-31.21-34.56-48.43-27.89-23.73-40.34-47.5-37-70.65,5.44-37.77,51.18-59.95,60.3-64,6.63-3,12-9.08,14.73-16.8a57.11,57.11,0,0,0,3-14,4.59,4.59,0,1,1,9.14.83,66.54,66.54,0,0,1-3.48,16.19c-3.56,10.09-10.73,18.15-19.65,22.13-8.35,3.72-50.2,23.93-55,56.93-2.85,19.82,8.54,40.8,33.87,62.35,21.88,18.63,34.54,36.72,37.65,53.78A4.61,4.61,0,0,1,271.68,318.54Z"/><path class="cls-106" d="M265.08,188.44a4.63,4.63,0,0,1-1.45.22l-56.46-.57a4.59,4.59,0,1,1,.09-9.18l56.46.57a4.59,4.59,0,0,1,1.36,9Z"/><path class="cls-107" d="M265.08,185.86a4.63,4.63,0,0,1-1.45.22l-56.46-.57a4.58,4.58,0,0,1-4.34-3.3,4.67,4.67,0,0,0-.21,1.25,4.59,4.59,0,0,0,4.55,4.63l56.46.57a4.6,4.6,0,0,0,4.64-4.54,4.79,4.79,0,0,0-.2-1.32A4.62,4.62,0,0,1,265.08,185.86Z"/><path class="cls-108" d="M272.8,212.21a4.7,4.7,0,0,1-1.36.17L200.73,211a4.59,4.59,0,0,1,.18-9.18l70.7,1.36a4.59,4.59,0,0,1,1.19,9Z"/><path class="cls-109" d="M272.8,209.23a4.7,4.7,0,0,1-1.36.17l-70.71-1.35A4.57,4.57,0,0,1,196.5,205a4.52,4.52,0,0,0,4.23,6.07l70.71,1.35a4.7,4.7,0,0,0,1.36-.17,4.58,4.58,0,0,0,3.31-4.33,4.71,4.71,0,0,0-.25-1.55A4.62,4.62,0,0,1,272.8,209.23Z"/><path class="cls-110" d="M261.09,303.79a4.74,4.74,0,0,1-1.42.22L205.86,304a4.59,4.59,0,0,1,0-9.18l53.81.05a4.59,4.59,0,0,1,1.41,9Z"/><path class="cls-111" d="M261.09,301a4.45,4.45,0,0,1-1.42.23l-53.81-.06a4.58,4.58,0,0,1-4.35-3.21,4.36,4.36,0,0,0-.23,1.36,4.6,4.6,0,0,0,4.58,4.6l53.81.05a4.74,4.74,0,0,0,1.42-.22,4.48,4.48,0,0,0,3-5.71A4.58,4.58,0,0,1,261.09,301Z"/><circle class="cls-112" cx="199.23" cy="207.12" r="8.65"/><circle class="cls-113" cx="199.23" cy="207.12" r="7.01"/><circle class="cls-114" cx="202.86" cy="299.97" r="8.65" transform="translate(-125.66 452.31) rotate(-80.81)"/><path class="cls-115" d="M209.87,300a7,7,0,1,1-7-7A7,7,0,0,1,209.87,300Z"/><circle class="cls-116" cx="201.28" cy="182.62" r="8.65" transform="translate(-67.51 222.86) rotate(-50.73)"/><path class="cls-117" d="M208.28,182.62a7,7,0,1,1-7-7A7,7,0,0,1,208.28,182.62Z"/><circle class="cls-118" cx="199.23" cy="114.38" r="8.65" transform="translate(-22.52 174.38) rotate(-45)"/><path class="cls-119" d="M206.24,114.38a7,7,0,1,1-7-7A7,7,0,0,1,206.24,114.38Z"/><circle class="cls-120" cx="276.12" cy="209.25" r="8.65"/><path class="cls-121" d="M283.12,209.25a7,7,0,1,1-7-7A7,7,0,0,1,283.12,209.25Z"/><circle class="cls-122" cx="269.84" cy="184.99" r="8.65" transform="translate(28 405.32) rotate(-76.77)"/><circle class="cls-123" cx="269.84" cy="184.99" r="7"/><circle class="cls-124" cx="274.41" cy="112.72" r="8.65" transform="translate(0.67 227.05) rotate(-45)"/><path class="cls-125" d="M281.42,112.72a7,7,0,1,1-7-7A7,7,0,0,1,281.42,112.72Z"/><circle class="cls-126" cx="265.76" cy="299.97" r="8.65" transform="translate(-72.81 514.4) rotate(-80.81)"/><path class="cls-127" d="M272.77,300a7,7,0,1,1-7-7A7,7,0,0,1,272.77,300Z"/><path class="cls-128" d="M200.63,332.25c7.11.85,16.44,1.43,26.88,1.61-12-.16-22.76-.74-30.89-1.61-9.65-1-15.61-2.43-15.62-4V75.37c0-2.87,20.27-5.23,46.51-5.59-23.1.4-40.85,2.75-40.85,5.59v252.9C186.67,329.82,192,331.23,200.63,332.25Z"/><path class="cls-129" d="M287.6,75.37v252.9h0c0,2.87-20.29,5.24-46.51,5.59,23.07-.4,40.83-2.75,40.85-5.59V75.37c0-2.84-17.76-5.19-40.85-5.59C267.31,70.14,287.6,72.5,287.6,75.37Z"/><path class="cls-130" d="M290.14,87.91V259.36a3.18,3.18,0,0,1-2.47,3.11c-6.6,1.49-17.32,2.64-30.14,3.17a3.19,3.19,0,0,1-3.33-3.19V90.86a3.19,3.19,0,0,1,3.06-3.19c12.08-.49,22.32-1.53,29-2.89A3.21,3.21,0,0,1,290.14,87.91Z"/><path class="cls-131" d="M185,264.11V319a3.18,3.18,0,0,0,2.47,3.11c6.6,1.49,17.32,2.64,30.13,3.17A3.2,3.2,0,0,0,221,322.1v-55a3.2,3.2,0,0,0-3.07-3.19c-12.07-.49-22.31-1.53-29-2.89A3.2,3.2,0,0,0,185,264.11Z"/><path class="cls-132" d="M292.23,72.81c0,3.18-25.94,5.76-57.94,5.76S176.36,76,176.36,72.81s25.93-5.76,57.93-5.76S292.23,69.63,292.23,72.81Z"/><path class="cls-133" d="M443.89,203.34l-16.13,20.49-5.27,6.69a7.27,7.27,0,0,1-11,.52l-26.44-27.62s-3.68,1-8.61-2.52l-6.91-1s-2.3-1.92,3.76-.92l.41-1.06-6.21-1.75s-1.86-2.83,6.88.59l.57-1.25-6.27-4.48s-.55-3.28,7.09,3.13l.76-1.09L370.87,188s-.29-3.69,7.82,4.21l3.9,1.7,1.3-1.72s-2.35-4.49.12-5.39a11.75,11.75,0,0,0,2.24,5.5,6.79,6.79,0,0,1,1.33,3.82l.07,3s23.32,16.67,27.58,19.62l4.19-5.45h0l16.31-21.25a1.14,1.14,0,0,1,1.9.13Z"/><path class="cls-134" d="M443.88,203.33l-16.12,20.5-5.26,6.68a7.28,7.28,0,0,1-11,.54L387.93,206.4a30.69,30.69,0,0,0,1.7-2.56c.46-.77.89-1.56,1.29-2.35.16.1.31.21.46.32,6.77,4.82,20.65,14.74,23.85,16.94l4.19-5.44h0l16.32-21.25a1.13,1.13,0,0,1,1.89.14l3.57,6.37,1.27,2.24Z"/><path class="cls-135" d="M442.46,200.8l-14.7,18.68-5.26,6.68a7.28,7.28,0,0,1-11,.53l-21.89-22.85c.46-.77.89-1.56,1.29-2.35.16.1.31.21.46.32,6.77,4.82,20.65,14.74,23.85,16.94l4.19-5.44h0l16.32-21.25a1.13,1.13,0,0,1,1.89.14l3.57,6.37Z"/><path class="cls-136" d="M441.19,198.56l-13.43,17.08-5.26,6.68a7.28,7.28,0,0,1-11,.53l-20.14-21c6.77,4.82,20.65,14.74,23.85,16.94l4.19-5.44h0l16.32-21.25a1.13,1.13,0,0,1,1.89.14Z"/><polygon class="cls-137" points="296.33 237.92 287.17 259.13 290.61 260.84 302.14 240.81 296.33 237.92"/><path class="cls-138" d="M297.75,244.93A13.47,13.47,0,0,1,299,246.3l3.16-5.49-5.81-2.89-2,4.69A11.15,11.15,0,0,1,297.75,244.93Z"/><polygon class="cls-139" points="306.76 243.09 297.6 264.3 301.03 266.01 312.57 245.98 306.76 243.09"/><path class="cls-140" d="M308.17,250.1a13.56,13.56,0,0,1,1.24,1.37l3.16-5.49-5.81-2.89-2,4.69A11,11,0,0,1,308.17,250.1Z"/><polygon class="cls-141" points="325.15 252.5 315.99 273.7 319.42 275.42 330.96 255.39 325.15 252.5"/><path class="cls-142" d="M326.57,259.51a14.78,14.78,0,0,1,1.23,1.37l3.16-5.49-5.81-2.89-2,4.69A11,11,0,0,1,326.57,259.51Z"/><polygon class="cls-143" points="294.17 230.72 294.97 237.24 314.26 246.84 319.28 243.41 294.17 230.72"/><polygon class="cls-144" points="340.27 254.01 333.15 256.88 330.33 255.41 324.98 252.64 322.98 251.59 322.34 244.95 340.27 254.01"/><path class="cls-145" d="M349.31,252h0a6.9,6.9,0,0,1-8.93,2.43l-47.05-23.78a6.9,6.9,0,0,1-2.76-9.79l.3-.48a6.9,6.9,0,0,1,9.05-2.49l46.75,24.26A6.91,6.91,0,0,1,349.31,252Z"/><path class="cls-146" d="M323.3,333.16v1.41l-8-.77-6.54-.64c-1.51-5.85-16.16-6-16.16-6v-8.13C308.38,317.69,323.3,333.16,323.3,333.16Z"/><path class="cls-147" d="M315.3,333.8l-6.54-.64c-1.51-5.85-16.16-6-16.16-6v-5l1.71-1.16S314.34,323.64,315.3,333.8Z"/><path class="cls-148" d="M398.93,296.51c-16.72,63.46-76.48,53.26-76.48,53.26V333.06c53.82,6.8,63.45-47.88,63.45-47.88,7.94-58.18-31.43-50.26-39-48.23-.8.21-1.24.36-1.24.36l.16-.21,13.28-18.88,3-4.25C416.49,232.56,398.93,296.51,398.93,296.51Z"/><path class="cls-149" d="M389.38,293.23c-13,49.29-54,50.62-66.93,49.76v-9.93c53.82,6.8,63.45-47.88,63.45-47.88,7.94-58.18-31.43-50.26-39-48.23-.37,0-.73.1-1.08.15l13.28-18.88C404.8,237.08,389.38,293.23,389.38,293.23Z"/><path class="cls-150" d="M375.7,240.69a41.57,41.57,0,0,1,12-7.62c.47-.22,1-.4,1.42-.6-6-7.66-14.63-14.26-27-18.5l-16.43,23.34S363.47,231.35,375.7,240.69Z"/><path class="cls-151" d="M346.18,339.16a61.14,61.14,0,0,0-14-3.17c-2.47-.26-5-.35-7.43-.39-.66,0-1.46-.07-2.29-.07v14.24a75.15,75.15,0,0,0,36.24-4.34A58.28,58.28,0,0,0,346.18,339.16Z"/><path class="cls-152" d="M383.92,192.27l-34.72,53a6.27,6.27,0,0,1-5.61,2.84,17.27,17.27,0,0,1-15-9.53,6.17,6.17,0,0,1-.23-5.43,5.56,5.56,0,0,1,.57-1l35.14-52.33,2.3,1.44,15,9.45.65.41Z"/><path class="cls-153" d="M334.23,231.92a16.36,16.36,0,0,0,6,.2c9.5-1.49,15.4-10.22,20.81-17.31A132.42,132.42,0,0,0,371,200c1.46-2.58,2.85-5.14,4.54-7.59a17.8,17.8,0,0,0,2-3.55c.07-.18.15-.35.22-.53l-11.32-7.12-2.3-1.44-33.85,50.4A8.55,8.55,0,0,0,334.23,231.92Z"/><polygon class="cls-154" points="384.19 185.88 381.41 190.69 366.38 181.24 368.82 177.01 384.19 185.88"/><path class="cls-155" d="M388.57,185.42l-.32.55a3.33,3.33,0,0,1-4.66,1.16L369.09,178a3.34,3.34,0,0,1-1.11-4.49h0a3.33,3.33,0,0,1,4.56-1.22l14.81,8.55A3.33,3.33,0,0,1,388.57,185.42Z"/><circle class="cls-156" cx="375.77" cy="212.45" r="16.78" transform="translate(-53.37 259.09) rotate(-35.69)"/><circle class="cls-157" cx="375.77" cy="212.45" r="13.55" transform="translate(-53.36 259.25) rotate(-35.71)"/><circle class="cls-158" cx="375.77" cy="212.45" r="11.46" transform="translate(-23.09 47.37) rotate(-7)"/><path class="cls-159" d="M366.42,231.16a7.44,7.44,0,1,1-7.43-7.44A7.43,7.43,0,0,1,366.42,231.16Z"/><path class="cls-157" d="M365.35,231.16A6.36,6.36,0,1,1,359,224.8,6.35,6.35,0,0,1,365.35,231.16Z"/><path class="cls-160" d="M364.06,231.16a5.08,5.08,0,1,1-5.07-5.08A5.07,5.07,0,0,1,364.06,231.16Z"/><path class="cls-161" d="M363.52,383.58H264a12.7,12.7,0,0,0-12.16,9l-1.22,4H370.7Z"/><path class="cls-162" d="M361,385.18H268.31c-5.6,0-10.53,3-12.16,7.29l-1.22,3.26H366.36Z"/><path class="cls-163" d="M361.77,386.71H282.55c-4.78,0-9,2.53-10.4,6.24l-1,2.78h95.25Z"/><rect class="cls-164" x="250.59" y="396.61" width="120.11" height="13.98"/><rect class="cls-165" x="254.86" y="397.18" width="111.56" height="13.41"/><rect class="cls-166" x="256.87" y="399.67" width="107.55" height="10.91"/><path class="cls-167" d="M245.27,321.88v8.78c0,4.15,13,7.51,29.11,7.51s29.11-3.36,29.11-7.51v-8.78Z"/><ellipse class="cls-168" cx="274.38" cy="321.88" rx="29.11" ry="7.51"/><path class="cls-169" d="M298.64,321.88c0,3.46-10.86,6.26-24.26,6.26s-24.25-2.8-24.25-6.26,10.86-6.26,24.25-6.26S298.64,318.42,298.64,321.88Z"/><path class="cls-170" d="M250.59,314.37v7.18c0,3.39,10.65,6.14,23.79,6.14s23.8-2.75,23.8-6.14v-7.18Z"/><ellipse class="cls-171" cx="274.38" cy="314.37" rx="23.8" ry="6.14"/><ellipse class="cls-172" cx="274.38" cy="314.37" rx="19.83" ry="5.11"/><path class="cls-173" d="M284,315c-1.32-1.36-3.33-1.84-5.06-2.45a42.74,42.74,0,0,0-6.2-2,6.55,6.55,0,0,0-5,.79c-1,.7-2.44,2.5-1.38,3.74.63.73,1.75.56,2.6.56l3.81,0a8,8,0,0,0,1.14.54,10.18,10.18,0,0,0,3,.59,24.18,24.18,0,0,0,6.81-.94A.48.48,0,0,0,284,315Z"/><path class="cls-174" d="M322.45,334.49v15.28c-18.19,7.23-35.62,8-51.21-6.81a6.41,6.41,0,0,1-2-4.66,5.26,5.26,0,0,1,.08-1,6.38,6.38,0,0,1,8.12-5.15c.92.28,1.81.54,2.69.78,18.5,5.25,28.36,5.5,28.65.19l5.87.58Z"/><path class="cls-175" d="M315.33,334.13c-6.58,15-29,2.68-35.22-1.16,18.5,5.25,28.36,5.5,28.65.19l5.87.58Z"/><path class="cls-176" d="M280,338.17a4.71,4.71,0,1,1-4.71-4.71A4.71,4.71,0,0,1,280,338.17Z"/><path class="cls-177" d="M279.28,338.17a4,4,0,1,1-4-4A4,4,0,0,1,279.28,338.17Z"/><path class="cls-178" d="M278.46,338.17a3.22,3.22,0,1,1-3.21-3.22A3.21,3.21,0,0,1,278.46,338.17Z"/><path class="cls-179" d="M363.52,383.58H283.07c2-17.35,8.69-30.43,22.1-37.32a40.53,40.53,0,0,1,35.55-.58l.67.32C354.82,352.52,361.9,365.34,363.52,383.58Z"/><path class="cls-180" d="M363.52,383.58H283.07c2-17.35,8.69-30.43,22.1-37.32a40.53,40.53,0,0,1,35.55-.58l.67.32C354.82,352.52,361.9,365.34,363.52,383.58Z"/><path class="cls-181" d="M358,383.58H288.64c1.73-14.95,7.48-26.21,19-32.15a34.94,34.94,0,0,1,30.63-.5l.58.27C350.45,356.82,356.56,367.86,358,383.58Z"/><path class="cls-182" d="M346.18,383.58H300.41c1.14-9.87,4.94-17.31,12.57-21.23a23.1,23.1,0,0,1,20.23-.34l.38.19C341.23,365.91,345.26,373.2,346.18,383.58Z"/><path class="cls-183" d="M454.63,156.36c-1.85-1.32-3.93-1.82-5.81-3-5.67-3.67-8-12.47-12.3-18.62-3.28-4.7-7.9-7.9-12.52-8.66a13.05,13.05,0,0,0-4.95.12,19.3,19.3,0,0,0-6.19-1c-5.23-.15-10.56.62-14.62,4.1s-6.53,10.19-4.86,16.79c.9,3.58,2.94,7.09,2.65,10.61-.24,2.91-2,4.91-3.46,7a17.66,17.66,0,0,0-3.34,10.19c.06,3.94,2,8.36,5,9.91,2.69,1.39,6.13.68,7.94,3.67,1.46,2.41.76,5.61,1.49,8.41a8,8,0,0,0,6.84,6.05c2.81.15,5.3-1.45,7.44-3.36s4.08-4.21,6.45-5.71,5.33-2.13,8-.6c1.6.91,3,2.5,4.61,3.27a8.57,8.57,0,0,0,4.94.4c2.82-.39,6-1.46,6.71-4.89.23-1.18.12-2.5.35-3.68.6-3.09,3.21-4.37,5.28-6a15.73,15.73,0,0,0,5.89-11.61C460.48,164.72,458.32,159,454.63,156.36Z"/><rect class="cls-133" x="423.98" y="157.85" width="11.36" height="15.26" transform="translate(-30.4 183.74) rotate(-23.34)"/><path class="cls-133" d="M419.65,164.32c3.86-2.73,7.58-5.65,11.53-8.25a1.3,1.3,0,0,1,.63-.2c1.77-2,7.16-9.34,0-19.34,0,0-11.52-15.12-26.63,2.09,0,0-4.39,4.83.4,13.93a3.9,3.9,0,0,1,0,2.34c0,.14-.07.28-.13.44a21.64,21.64,0,0,1-1.25,2.15,1.49,1.49,0,0,0,.41,2,5.71,5.71,0,0,0,1,.57l1.21.37,2.72,3.38c.13.25.25.48.35.72.41.88,2,3.79,5.13,2.59l2.58-1.47.81-.45.16-.09.29-.18.46-.27A2.7,2.7,0,0,1,419.65,164.32Z"/><path class="cls-184" d="M416.07,154a2.8,2.8,0,1,1-2.79-2.8A2.79,2.79,0,0,1,416.07,154Z"/><g class="cls-185"><path class="cls-133" d="M409.25,160.53a4.4,4.4,0,0,0,3-2.88.36.36,0,0,1,.41-.27.33.33,0,0,1,.26.4,5.08,5.08,0,0,1-3.41,3.4C409,161.31,408.82,160.66,409.25,160.53Z"/></g><path class="cls-183" d="M440.17,150.1a22,22,0,0,0-3.05-10.25,26,26,0,0,0-11.65-10.21,15.06,15.06,0,0,0-4.77-1.4,19.29,19.29,0,0,0-6.13.72,26.86,26.86,0,0,0-8.47,3.49,12.89,12.89,0,0,0-4.92,5.15,6.58,6.58,0,0,0,0,5.88,3.63,3.63,0,0,0,2.46,1.9,12.72,12.72,0,0,0,3.1-.39,4.8,4.8,0,0,1,4.85,3.09c.4,1.15.35,2.46,1,3.51,1.35,2.33,4.67,1.7,5.72-.48a10.83,10.83,0,0,1,1.17-2.27,3.25,3.25,0,0,1,2.55-1.17,3.45,3.45,0,0,1,3.21,2.89,4.32,4.32,0,0,1-.62,2.95,2.69,2.69,0,0,0-.06,2.49,2.12,2.12,0,0,0,.51.71,6.45,6.45,0,0,0,9.42-.35C436.6,154,438.94,151.29,440.17,150.1Z"/><g class="cls-186"><path class="cls-133" d="M421,157.05l.07,0c2-1.25,3.22-2.68,3.57-4.26a4.17,4.17,0,0,0-.43-3,.35.35,0,0,0-.47-.1.34.34,0,0,0-.1.48h0a3.6,3.6,0,0,1,.33,2.51c-.32,1.39-1.41,2.67-3.26,3.82a.35.35,0,0,0,.29.62Z"/><path class="cls-133" d="M419.61,156.06h0a.33.33,0,0,0,.18-.45C419.14,154,421,153,421,153a.34.34,0,0,0-.32-.61c-.85.46-2.27,1.78-1.54,3.5A.34.34,0,0,0,419.61,156.06Z"/></g><path class="cls-183" d="M409.49,149.41h0l.09,0a3.39,3.39,0,0,0-3.26-1.1,1.07,1.07,0,0,0-.52.23.5.5,0,0,0-.15.54.59.59,0,0,0,.54.28,5.23,5.23,0,0,0,1.3-.14,3.62,3.62,0,0,1,1.31-.07A1.49,1.49,0,0,1,409.49,149.41Z"/><path class="cls-183" d="M408.6,152.3c.19.74-.06,1.47-.54,1.63s-1-.3-1.22-1,.05-1.47.54-1.63S408.41,151.57,408.6,152.3Z"/><path class="cls-187" d="M445,230.26h-.06C444.79,230,444.79,230,445,230.26Z"/><path class="cls-183" d="M461.25,384.66a7.61,7.61,0,0,0-4.22-1.25,5.21,5.21,0,0,0-4,1.82c-1.88,2.32-.75,5.06-.42,7.69a12.61,12.61,0,0,1-1.92,8.37c-.2.31-.42.62-.64.93a8.73,8.73,0,0,0-1.72,5.11c0-.35,0-.73,0-1.12V406c0-.17,0-.34,0-.51s0-.54,0-.81c0-.93,0-1.93,0-3,0-.26,0-.53,0-.79-.05-3.87-.09-8.22-.06-11.61,0-.88,0-1.69,0-2.42,0-.22,0-.41,0-.6l0-.93c0-.92,0-1.84,0-2.76,0-.56-.05-1.14-.09-1.7,0-.18,0-.37-.06-.55-.07-.94-.18-1.88-.32-2.81a14.53,14.53,0,0,1,8.11-1.75l.12,1.5h0a.2.2,0,0,0,.07.06,7.57,7.57,0,0,1,.95.76l.17.17h0l.17.17,0,0,.23.22c.24.26.5.54.76.86s.29.35.43.54.3.4.44.62a15.54,15.54,0,0,1,1.65,3.11C461.05,384.06,461.15,384.36,461.25,384.66Z"/><path class="cls-183" d="M462.32,401.17q0,1.21-.09,2.34c0,.34,0,.68-.07,1-.05.76-.11,1.51-.18,2.21l-.12,1a3.46,3.46,0,0,1-.62,1.61,4.87,4.87,0,0,1-.35.42,3.36,3.36,0,0,1-.88.58,2.65,2.65,0,0,1-.37.12l-.39.07a1.15,1.15,0,0,1-.26,0h-8a2.61,2.61,0,0,1-2.19-1.31,3.35,3.35,0,0,1-.47-1.68v-.27a8.73,8.73,0,0,1,1.72-5.11c.22-.31.44-.62.64-.93a12.61,12.61,0,0,0,1.92-8.37c-.33-2.63-1.46-5.37.42-7.69a5.21,5.21,0,0,1,4-1.82,7.61,7.61,0,0,1,4.22,1.25,16.76,16.76,0,0,1,.64,2.6,2.88,2.88,0,0,1,.05.33c0,.18.05.36.07.56s.05.43.07.64,0,.44,0,.67,0,.25,0,.38,0,.29,0,.44c0,.35,0,.7,0,1s0,.69.05,1v.07c0,.08,0,.17,0,.25,0,.25,0,.48,0,.72s0,.64,0,1v.1c0,.64,0,1.27,0,1.89C462.36,398,462.36,399.64,462.32,401.17Z"/><path class="cls-188" d="M462.32,401.17q0,1.21-.09,2.34c0,.34,0,.68-.07,1-.05.76-.11,1.51-.18,2.21l-.12,1a3.46,3.46,0,0,1-.62,1.61,4.87,4.87,0,0,1-.35.42,3.36,3.36,0,0,1-.88.58,2.65,2.65,0,0,1-.37.12l-.39.07a1.15,1.15,0,0,1-.26,0h-8a2.61,2.61,0,0,1-2.19-1.31,3.35,3.35,0,0,1-.47-1.68v-.27a8.73,8.73,0,0,1,1.72-5.11c.22-.31.44-.62.64-.93a12.61,12.61,0,0,0,1.92-8.37c-.33-2.63-1.46-5.37.42-7.69a5.21,5.21,0,0,1,4-1.82,7.61,7.61,0,0,1,4.22,1.25,16.76,16.76,0,0,1,.64,2.6,2.88,2.88,0,0,1,.05.33c0,.18.05.36.07.56s.05.43.07.64,0,.44,0,.67,0,.25,0,.38,0,.29,0,.44c0,.35,0,.7,0,1s0,.69.05,1v.07c0,.08,0,.17,0,.25,0,.25,0,.48,0,.72s0,.64,0,1v.1c0,.64,0,1.27,0,1.89C462.36,398,462.36,399.64,462.32,401.17Z"/><path class="cls-187" d="M448.17,380.85a44.13,44.13,0,0,1,.11,4.46C448.31,383.82,448.28,382.33,448.17,380.85Z"/><path class="cls-187" d="M448.34,406.21c0,.39,0,.77,0,1.12,0-.14,0-.26,0-.4Z"/><path class="cls-189" d="M455.9,375.73h0a14.53,14.53,0,0,0-8.11,1.75q-.06-.42-.15-.84c0-.19-.06-.39-.11-.58a41.59,41.59,0,0,0-2-7.32L429.57,328.5c-.08-.21-.16-.4-.23-.6h0c-.4-1.08-.78-2.19-1.11-3.31a48.38,48.38,0,0,1-2-15l1.48-58.08.52-20.33,0-.81v-.11H444.9l.18.39a65.65,65.65,0,0,1,2.7,6.06c.2.53.41,1.08.6,1.66s.4,1.18.6,1.8a52.64,52.64,0,0,1,1.88,8.05c1,6.88.61,14.76-3.71,21.83a7.89,7.89,0,0,0-1.4,3.25l-4.33,42,2.29,5.62,2.36,5.81A127.73,127.73,0,0,1,455,364.64Z"/><path class="cls-190" d="M451.92,375.73h0a18.94,18.94,0,0,0-3.62.2c-.26,0-.51.08-.77.13a41.59,41.59,0,0,0-2-7.32L429.57,328.5c-.08-.21-.16-.4-.23-.6h0c-.4-1.08-.78-2.19-1.11-3.31a48.38,48.38,0,0,1-2-15l1.48-58.08.52-20.33h-4l0-.81v-.11h16.61l.18.39a62.94,62.94,0,0,1,2.7,6.06c.21.53.41,1.08.61,1.66s.39,1.18.6,1.8a53.85,53.85,0,0,1,1.88,8.05c1,6.88.6,14.76-3.71,21.83a7.76,7.76,0,0,0-1.4,3.25l-4.33,42,2.29,5.62,2.36,5.81a128,128,0,0,1,9,37.94Z"/><path class="cls-190" d="M448.36,376.65h-.72a17.54,17.54,0,0,0-2.51.16,10.79,10.79,0,0,1,2.4-.74,41.59,41.59,0,0,0-2-7.32L429.57,328.5c-.08-.21-.16-.4-.23-.6h0c-.4-1.08-.78-2.19-1.11-3.31a48.38,48.38,0,0,1-2-15l1.48-58.08.52-20.33h9.09c0,.09.11.21.19.39a64.37,64.37,0,0,1,2.7,6.06c.2.53.41,1.08.6,1.66s.4,1.18.6,1.8a52.64,52.64,0,0,1,1.88,8c1,6.88.61,14.76-3.71,21.83a7.89,7.89,0,0,0-1.4,3.25l-4.33,42,2.29,5.62,2.36,5.81a127.73,127.73,0,0,1,9,37.94l.82,10.38Z"/><path class="cls-187" d="M456.11,377.31l-.09-.07s0,0,0,0Z"/><path class="cls-187" d="M457.41,378.41l-.17-.17.09.08Z"/><g class="cls-12"><path class="cls-187" d="M445,230.26h-.06C444.79,230,444.79,230,445,230.26Z"/></g><path class="cls-187" d="M448.2,389.26c0-.88,0-1.7,0-2.42C448.22,387.57,448.21,388.38,448.2,389.26Z"/><path class="cls-187" d="M448.32,405.44c0,.17,0,.34,0,.51v.26C448.33,406,448.32,405.7,448.32,405.44Z"/><path class="cls-187" d="M420.61,399.26l.7-.11Z"/><path class="cls-189" d="M438.85,250.49a1.41,1.41,0,0,1,0,.2c0,.79,0,1.56-.1,2.31a26.09,26.09,0,0,1-5.6,14.26c-.43.55-.87,1-1.27,1.47-.16.14-.28.28-.41.41s-.49.48-.73.69a14.38,14.38,0,0,1-1.49,1.23l.09,53.37v3.46h0l2,67.9.33,2.45,1.16,8.47-1.17-8.47-3.63.11-5.17.16h-.52l0-.11,0-.17L412,325l-.2-1.31c-6.09-28-7.87-47.9-7.61-61.9,0-.41,0-.82,0-1.22,0-.81.05-1.59.08-2.35s.06-1.43.11-2.11.11-1.51.17-2.25c0-.34.05-.68.08-1l.06-.59c0-.46.09-.93.14-1.37l0-.19c.05-.46.12-.93.18-1.37l0-.23a.09.09,0,0,1,0,0c0-.21.05-.43.09-.64s.06-.46.1-.68.1-.7.16-1c0-.07,0-.14,0-.21,0-.25.08-.48.12-.72.08-.4.15-.78.22-1.15,0-.16.07-.32.1-.47s.07-.34.11-.5a1.89,1.89,0,0,1,.05-.23c.05-.24.1-.48.15-.7s.15-.62.22-.9.15-.6.22-.87l.24-.82c.06-.19.11-.4.17-.59l.08-.27c0-.11.06-.21.1-.32s.14-.45.21-.65h0l.06-.17c.09-.28.18-.53.28-.8s.19-.5.27-.73l.12-.3c.06-.13.11-.27.16-.4l.13-.31.15-.34c.06-.11.11-.21.16-.32l.24-.56c.05-.08.09-.17.14-.24s0,0,0,0a0,0,0,0,1,0,0c.05-.12.1-.22.16-.34l.17-.31a3.72,3.72,0,0,0,.21-.39l.19-.32c.1-.17.21-.33.31-.49l.06-.12.12-.17a.53.53,0,0,0,.06-.1l.11-.15.06-.08.11-.16a.21.21,0,0,1,.05-.07l0,0h0l.13-.16a.81.81,0,0,1,.12-.14l.1-.14s.05-.07.08-.09l.07-.08.13-.15a.26.26,0,0,0,.12-.12h0l.06-.06.13-.12h21.5a57.33,57.33,0,0,1,3.52,8.41,8.46,8.46,0,0,1,.27.91,38.73,38.73,0,0,1,1,4.12c0,.26.1.53.15.77A34.55,34.55,0,0,1,438.85,250.49Z"/><path class="cls-190" d="M435.19,250.49a1.41,1.41,0,0,1,0,.2q0,1.19-.09,2.31a26.16,26.16,0,0,1-5.61,14.26c-.43.55-.87,1-1.27,1.47l-.41.41c-.25.24-.49.48-.72.69a13.72,13.72,0,0,1-1.5,1.23l.1,53.37v3.46h0l2,67.9.34,2.45v.11l0-.11-5.18.17h-.51l0-.17L412,325l-.2-1.31c-6.09-28-7.87-47.9-7.61-61.9,0-.41,0-.82,0-1.22,0-.81.05-1.59.08-2.35s.06-1.43.11-2.11.11-1.51.17-2.25c0-.34.05-.68.08-1l.06-.59c0-.46.09-.93.14-1.37l0-.19c.05-.46.12-.93.18-1.37l0-.23a.09.09,0,0,1,0,0c0-.21.05-.43.09-.64s.06-.46.1-.68.1-.7.16-1c0-.07,0-.14,0-.21,0-.25.08-.48.12-.72.08-.4.15-.78.22-1.15,0-.16.07-.32.1-.47s.07-.34.11-.5a1.89,1.89,0,0,1,.05-.23c.05-.24.1-.48.15-.7s.15-.62.22-.9.15-.6.22-.87l.24-.82c.06-.19.11-.4.17-.59l.08-.27c0-.11.06-.21.1-.32s.14-.45.21-.65h0l.06-.17c.09-.28.18-.53.28-.8s.19-.5.27-.73l.12-.3c.06-.13.11-.27.16-.4l.13-.31.15-.34c.06-.11.11-.21.16-.32l.24-.56c.05-.08.09-.17.14-.24s0,0,0,0a0,0,0,0,1,0,0c.05-.12.1-.22.16-.34l.17-.31a3.72,3.72,0,0,0,.21-.39l.19-.32c.1-.17.21-.33.31-.49l.06-.12.12-.17a.53.53,0,0,0,.06-.1l.11-.15.06-.08.11-.16a.21.21,0,0,1,.05-.07l0,0h0l.13-.16a.81.81,0,0,1,.12-.14l.1-.14s.05-.07.08-.09l.07-.08.13-.15a.26.26,0,0,0,.12-.12h0l.06-.06.13-.12h17.84a58.57,58.57,0,0,1,3.53,8.41c.1.31.19.61.26.91a38.73,38.73,0,0,1,1,4.12c.06.26.11.53.15.77A33.6,33.6,0,0,1,435.19,250.49Z"/><path class="cls-190" d="M430,250.49a1.41,1.41,0,0,1,0,.2q0,1.19-.09,2.31a26.16,26.16,0,0,1-5.61,14.26c-.43.55-.87,1-1.27,1.47l-.41.41c-.26.24-.49.48-.73.69a13.19,13.19,0,0,1-1.49,1.23l.1,53.37v3.46h0l2,67.9.33,2.45,0,.17,0,.1h0l0-.11,0-.17h-.5L412,325l-.2-1.31c-6.09-28-7.87-47.9-7.61-61.9,0-.41,0-.82,0-1.22,0-.81.05-1.59.08-2.35s.06-1.43.11-2.11.11-1.51.17-2.25c0-.34.05-.68.08-1l.06-.59c0-.46.09-.93.14-1.37l0-.19c.05-.46.12-.93.18-1.37l0-.23a.09.09,0,0,1,0,0c0-.21.05-.43.09-.64s.06-.46.1-.68.1-.7.16-1c0-.07,0-.14,0-.21,0-.25.08-.48.12-.72.08-.4.15-.78.22-1.15,0-.16.07-.32.1-.47s.07-.34.11-.5a1.89,1.89,0,0,1,.05-.23c.05-.24.1-.48.15-.7s.15-.62.22-.9.15-.6.22-.87l.24-.82c.06-.19.11-.4.17-.59l.08-.27c0-.11.06-.21.1-.32s.14-.45.21-.65h0l.06-.17c.09-.28.18-.53.28-.8s.19-.5.27-.73l.12-.3c.06-.13.11-.27.16-.4l.13-.31.15-.34c.06-.11.11-.21.16-.32l.24-.56c.05-.08.09-.17.14-.24s0,0,0,0a0,0,0,0,1,0,0c.05-.12.1-.22.16-.34l.17-.31a3.72,3.72,0,0,0,.21-.39l.19-.32c.1-.17.21-.33.31-.49l.06-.12.12-.17a.53.53,0,0,0,.06-.1l.11-.15.06-.08.11-.16a.21.21,0,0,1,.05-.07l0,0h0l.13-.16a.81.81,0,0,1,.12-.14l.1-.14s.05-.07.08-.09l.07-.08.13-.15a.26.26,0,0,0,.12-.12h0l.06-.06.13-.12h12.64a58.57,58.57,0,0,1,3.53,8.41c.1.31.19.61.26.91a38.73,38.73,0,0,1,1,4.12c.05.26.11.53.15.77A34.55,34.55,0,0,1,430,250.49Z"/><path class="cls-183" d="M429.93,410.59H405.19a1.34,1.34,0,0,1-.35,0l-.23-.05c-1-.26-1.47-1.24-1.65-2.45a7.73,7.73,0,0,1-.06-1.37A2.41,2.41,0,0,1,403,406a3.28,3.28,0,0,1,.77-1.15l.21-.21.24-.2a5,5,0,0,1,.52-.39h0c.28-.2.58-.38.91-.57a22.26,22.26,0,0,1,2.23-1l.8-.3.43-.16.43-.14.44-.15c1.62-.52,3.33-1,5-1.35.58-.14,1.16-.26,1.72-.38s1.05-.2,1.53-.31l.5-.09.94-.16.1,0,.85-.15.7-.11,1.08-.16h0l-.08-.45,9.32-.29,1.17,8.47A3.24,3.24,0,0,1,429.93,410.59Z"/><path class="cls-187" d="M403,406a2.41,2.41,0,0,0-.12.64,7.73,7.73,0,0,0,.06,1.37,6.88,6.88,0,0,1-.07-1.37A2,2,0,0,1,403,406Z"/><path class="cls-187" d="M422.4,399h0l-.07-.45Z"/><path class="cls-191" d="M455.88,315.62q-27.48,17.06-55.59,1.73c-.19-.11-.25-.84-.24-1.81,0-.65,0-1.41.09-2.15.09-1.47.21-2.84.22-3.12q.13-9.25.51-18.51c.46-11.67,1.17-23.71,2.81-35.43A157.59,157.59,0,0,1,407,238.57c1.38-5.37,4.09-10.7,3.67-16.34-.13-1.84.46-5.7-1-7.14,0,0-8.24-8-1.51-21l4.34-7.45.79-11.5,11.38-5.28a7.63,7.63,0,0,1,3.22-.71h7.91a7.45,7.45,0,0,1,2.34.38,8.07,8.07,0,0,1,2.59,1.4l1.8,1.46,1.58,1.28c7,5.66,10.12,15.32,8,24.51a122.38,122.38,0,0,1-3.83,14.32c-1.55,4.35-2.9,8-2.36,12.72.48,4.21,1.89,8.28,3.13,12.35.27.88.53,1.77.78,2.65C456.58,264.51,455.88,290.67,455.88,315.62Z"/><g class="cls-66"><path class="cls-192" d="M451.68,311.81q-25.55,15.85-51.63,3.73c0-.65,0-1.41.09-2.15.09-1.47.21-2.84.22-3.12q.13-9.25.51-18.51c.46-11.67,1.17-23.71,2.81-35.43A157.59,157.59,0,0,1,407,238.57c1.38-5.37,4.09-10.7,3.67-16.34-.13-1.84.46-5.7-1-7.14,0,0-8.24-8-1.51-21l4.34-7.45.79-11.5,11.38-5.28a7.63,7.63,0,0,1,3.22-.71h7.91a7.45,7.45,0,0,1,2.34.38,8.07,8.07,0,0,1,2.59,1.4l1.8,1.46a25,25,0,0,1,5.41,22,127,127,0,0,1-3.83,14.32c-1.55,4.34-2.91,8-2.37,12.71.48,4.22,1.89,8.28,3.14,12.35.27.89.52,1.77.77,2.66C452.39,260.71,451.68,286.87,451.68,311.81Z"/></g><g class="cls-66"><path class="cls-193" d="M446,307.31q-22.7,14.08-45.83,6.08c.09-1.47.21-2.84.22-3.12q.13-9.25.51-18.51c.46-11.67,1.17-23.71,2.81-35.43A157.59,157.59,0,0,1,407,238.57c1.38-5.37,4.09-10.7,3.67-16.34-.13-1.84.46-5.7-1-7.14,0,0-8.24-8-1.51-21l4.34-7.45.79-11.5,11.38-5.28a7.63,7.63,0,0,1,3.22-.71h7.91a7.45,7.45,0,0,1,2.34.38,25.06,25.06,0,0,1,4.09,20.35,124.93,124.93,0,0,1-3.83,14.32c-1.55,4.34-2.91,8-2.37,12.71.49,4.22,1.89,8.28,3.14,12.36.27.88.52,1.76.77,2.65C446.68,256.21,446,282.37,446,307.31Z"/></g><g class="cls-12"><path class="cls-194" d="M425.82,176.38a34.14,34.14,0,0,1,11.47-1.82c2.33.05,5.16.51,7.48-.22-.24-.21-.47-.43-.72-.63L440.67,171a7.83,7.83,0,0,0-4.93-1.78h-7.9a7.69,7.69,0,0,0-3.23.72l-11.38,5.27-.58,8.43A46.44,46.44,0,0,1,425.82,176.38Z"/></g><path class="cls-195" d="M425.11,172.28l-.5-2.38,3.36,1.45s3.27-1.79,12.7-.39c0,0,.72-4.7-6.11-8.47,0,0-5,5.77-10.28,4.85L414,175S422.48,174.48,425.11,172.28Z"/><g class="cls-196"><path class="cls-197" d="M426.42,216.43c-.08-.06-.17-.11-.25-.18-4.82-4-6.92-10.79-7.6-16.74a80.66,80.66,0,0,1-.21-12.14,24.24,24.24,0,0,1,.83-5.87,18.15,18.15,0,0,0,1.05-5.63,1.5,1.5,0,0,1,.2-.83,7.71,7.71,0,0,0-6.38,3.86,1.34,1.34,0,0,1-1.13.74l-.49,7-4.34,7.45c-6.73,12.95,1.51,21,1.51,21,1.48,1.44.89,5.3,1,7.14.41,5.65-2.3,11-3.68,16.34a162.64,162.64,0,0,0-3.28,17.76c-1.64,11.73-2.35,23.76-2.81,35.44q-.36,9.25-.51,18.51c0,.62-.65,6.76-.07,7.07a57.42,57.42,0,0,0,20.53,6.88c-.11-.43-.22-.87-.33-1.28a83,83,0,0,1-2.1-10c-4.65-31.39,2.75-62.45,7.52-93.34C426.07,218.55,426.25,217.49,426.42,216.43Z"/></g><path class="cls-198" d="M404.82,277.16a9.59,9.59,0,0,0,2.23.56,24,24,0,0,0,2.53.35,24.86,24.86,0,0,0,5.1-.08c.22,0,.35-.19.39-.49q1-7,2-13.91c.24-1.7.86-4.08-.12-5.48a2,2,0,0,0-2.31-.84,34.1,34.1,0,0,1-8.54-.83c-.14,0-.34.16-.37.35q-.63,4-1.1,8.11c-.28,2.41-.51,4.84-.7,7.27C403.78,274,403.27,276.46,404.82,277.16Z"/><path class="cls-133" d="M351.17,225.3a1.36,1.36,0,0,1,.14.55v1.32a1.24,1.24,0,0,0,.82,1.16,1.23,1.23,0,0,1,.83,1.15v.18a1.17,1.17,0,0,0,.61,1.06,18.23,18.23,0,0,0,5.41,1.17h.12a1.12,1.12,0,0,0,.21-2.21l-1.91-.39,2.32-1.75,4.64,3.59a2.43,2.43,0,0,0,3.25-.25l.61-.63a249.44,249.44,0,0,0,49.3,2.93,6,6,0,0,0,5.29-3.67c2.15-5,3.13-14,3.52-23.13.41-9.43.19-19,0-24.63a7.92,7.92,0,0,0-5.8-7.43l-.22-.05a9.28,9.28,0,0,0-11.37,9.13l.06,13,.11,25.18a271.58,271.58,0,0,1-40.39,2.61l-9.86-4.7a2.38,2.38,0,0,0-1.85-.08C350.69,221.72,350.86,224.6,351.17,225.3Z"/><path class="cls-199" d="M426.33,206.39c-.39,9.16-1.37,18.14-3.52,23.12a6,6,0,0,1-5.29,3.68A248.77,248.77,0,0,1,371,230.67c.05-.59.09-1.18.11-1.77s.05-1.46,0-2.2-.05-1.69-.12-2.53a271.16,271.16,0,0,0,38.07-2.6l-.1-25.18-.06-13a9.3,9.3,0,0,1,10.31-9.32,9.87,9.87,0,0,1,1.06.2l.23.05a6.73,6.73,0,0,1,1.19.43h0a8,8,0,0,1,4.59,7C426.52,187.35,426.75,197,426.33,206.39Z"/><g class="cls-200"><path class="cls-201" d="M423.54,204.23c-.39,9.14-1.37,18.13-3.51,23.12a6.1,6.1,0,0,1-5.3,3.68,247.65,247.65,0,0,1-43.62-2.13c0-.72.05-1.46,0-2.2s-.05-1.69-.12-2.53a271.16,271.16,0,0,0,38.07-2.6l-.1-25.18-.06-13a9.3,9.3,0,0,1,10.31-9.32,9.87,9.87,0,0,1,1.06.2l.23.05a6.73,6.73,0,0,1,1.19.43h0a8.09,8.09,0,0,1,1.8,4.82C423.73,185.17,424,194.78,423.54,204.23Z"/></g><g class="cls-200"><path class="cls-202" d="M419.87,201.55c-.4,9.15-1.38,18.14-3.52,23.12a6,6,0,0,1-5.29,3.68,245.74,245.74,0,0,1-39.92-1.65c0-.84-.05-1.69-.12-2.53a271.16,271.16,0,0,0,38.07-2.6l-.1-25.18-.06-13a9.3,9.3,0,0,1,10.31-9.32,7.92,7.92,0,0,1,.61,2.83C420.06,182.5,420.28,192.12,419.87,201.55Z"/></g><g class="cls-203"><path class="cls-133" d="M352.57,228.72c1.6-1.45,3.16-3,4.65-4.53.39-.41,1,.21.62.61q-2.25,2.35-4.66,4.53C352.77,229.71,352.15,229.09,352.57,228.72Z"/></g><g class="cls-203"><path class="cls-133" d="M351,226.27a23.37,23.37,0,0,0,4.09-4.34.46.46,0,0,1,.6-.16.44.44,0,0,1,.16.6,24.22,24.22,0,0,1-4.24,4.52.45.45,0,0,1-.61,0A.43.43,0,0,1,351,226.27Z"/></g><path class="cls-204" d="M461.17,413H7.07a1.79,1.79,0,0,1-1.78-1.79h0a1.79,1.79,0,0,1,1.78-1.79h454.1a1.79,1.79,0,0,1,1.79,1.79h0A1.79,1.79,0,0,1,461.17,413Z"/><path class="cls-205" d="M167.09,69l6.39-39.68c.13-.76,1.44-1.35,3-1.35h115c1.58,0,2.89.59,3,1.35L300.85,69a5,5,0,0,0-3.32-1H170.72a5,5,0,0,0-3.33,1Z"/><path class="cls-206" d="M174.93,62.71l7.14-29.62c.18-1.22,2.32-2.18,4.87-2.18H281c2.56,0,4.68,1,4.88,2.18,0,0,5.3,21.86,6.25,29.12.17,1.26-1.88,2.32-4.48,2.34l-4.16,0-99.8.56-4.2,0C176.77,65.18,174.62,64,174.93,62.71Z"/><path class="cls-207" d="M183.7,65.13l5.7-23.65c.18-1,2-1.87,4.19-1.87h80.66c2.19,0,4,.82,4.18,1.87,0,0,3.8,15.64,5.07,23.09Z"/><path class="cls-208" d="M167.39,69a5,5,0,0,1,3.33-1H297.53a5,5,0,0,1,3.32,1,.82.82,0,0,1-.12,1.36l-5,4.12a5.39,5.39,0,0,1-3.2.84H175.73a5.39,5.39,0,0,1-3.2-.84l-5-4.12A.82.82,0,0,1,167.39,69Z"/><path class="cls-209" d="M173.66,70.2a4.58,4.58,0,0,1,3.07-.89h116.7a4.67,4.67,0,0,1,3.05.87.78.78,0,0,1-.11,1.26l-3.22,2.65a3.79,3.79,0,0,1-2.28.63H179.28a3.76,3.76,0,0,1-2.27-.63l-3.22-2.65A.76.76,0,0,1,173.66,70.2Z"/></g></g></g></svg>