<svg xmlns="http://www.w3.org/2000/svg" viewBox="0 0 657.55 413.68"><defs><style>.cls-1{fill:#91c228;}.cls-2{fill:#96b8dc;}.cls-3{fill:#aad5e8;}.cls-30,.cls-32,.cls-36,.cls-4,.cls-50,.cls-51,.cls-52,.cls-53,.cls-6{fill:none;}.cls-4{stroke:#1d7341;}.cls-30,.cls-32,.cls-4,.cls-50,.cls-51,.cls-53,.cls-6{stroke-linecap:round;}.cls-30,.cls-32,.cls-36,.cls-4,.cls-50,.cls-52,.cls-53,.cls-6{stroke-miterlimit:10;}.cls-5{fill:#55aa8b;}.cls-6{stroke:#3a7c72;}.cls-7{fill:#69aa1f;}.cls-8{fill:#3d8915;}.cls-9{fill:#559e15;}.cls-10{fill:#535368;}.cls-11{fill:#3b3750;}.cls-12{fill:#edf9f8;}.cls-13{fill:#caeae8;}.cls-14{fill:#fff;}.cls-15{fill:#5b5e7d;}.cls-16{fill:#22223a;}.cls-17{fill:#394459;}.cls-18{fill:#262e4a;}.cls-19{fill:#0083c7;}.cls-20{fill:#105863;}.cls-21{fill:#21a69d;}.cls-22{fill:#445578;}.cls-23{fill:#ffaf1c;}.cls-24{fill:#b4c2d6;}.cls-25{fill:#1d172b;}.cls-26{fill:#af192b;}.cls-27{fill:#f26451;}.cls-28{fill:#ce2824;}.cls-29{fill:#fb8c66;}.cls-30{stroke:#22223a;}.cls-31{fill:#191f3b;}.cls-32{stroke:#dd3e3e;}.cls-33{fill:#126e6e;}.cls-34{fill:#d4faf9;}.cls-35{fill:#0d4460;}.cls-36{stroke:#d4faf9;}.cls-36,.cls-52,.cls-53{stroke-width:0.5px;}.cls-37{fill:#ffaa1b;}.cls-38{fill:#e87a0c;}.cls-39{opacity:0.86;}.cls-40{fill:#a7bfe8;}.cls-41{opacity:0.99;}.cls-42{fill:#d7e5f4;}.cls-43{fill:#675387;}.cls-44{fill:#8c73a8;}.cls-45{fill:#6f788c;}.cls-46{fill:#fea483;}.cls-47{fill:#1a132e;}.cls-48{fill:#5c6491;}.cls-49{fill:#ea6b53;}.cls-50{stroke:#1d0100;}.cls-51{stroke:#d84541;stroke-linejoin:round;}.cls-52,.cls-53{stroke:#332c4a;}.cls-54{fill:#ff5e41;}.cls-55{fill:#c0dd66;}</style></defs><g id="Layer_2" data-name="Layer 2"><g id="OBJECTS"><path class="cls-1" d="M635.11,405.63H39.69c-.13-.25-.28-.52-.41-.78-15.89-31-32-62.67-37.49-97.08s1.27-72.64,25.94-97.25c32.11-32.06,83.93-32.89,122.75-56.39,33.84-20.49,55.12-56.46,85.6-81.67,36.93-30.54,87-43.78,134.62-38S463,64.4,495.8,99.32c26.72,28.41,45.67,63.26,71.18,92.77,30.47,35.22,71.29,64.53,85.56,108.87C663.86,336.09,655.14,374.12,635.11,405.63Z"/><circle class="cls-2" cx="508.84" cy="133.49" r="26.18"/><path class="cls-3" d="M497.13,116.13c4.75-3,9.81-3.51,11.31-1.14s-1.14,6.73-5.88,9.73-9.82,3.51-11.31,1.14S492.38,119.14,497.13,116.13Z"/><circle class="cls-2" cx="541.84" cy="191.58" r="13.09" transform="matrix(0.16, -0.99, 0.99, 0.16, 265.94, 695.74)"/><ellipse class="cls-2" cx="563.66" cy="111.21" rx="8.73" ry="9.19"/><ellipse class="cls-2" cx="504.94" cy="83.3" rx="11.33" ry="11.92"/><rect class="cls-2" x="503.81" y="83.36" width="2.26" height="27.91" transform="translate(-4.57 27.76) rotate(-3.14)"/><rect class="cls-2" x="530.24" y="119.28" width="27.91" height="2.26" transform="translate(-4.66 217.42) rotate(-22.5)"/><rect class="cls-2" x="529.01" y="151.09" width="2.26" height="41.17" transform="translate(-9.7 309.84) rotate(-32.3)"/><ellipse class="cls-2" cx="450.98" cy="127.27" rx="9.19" ry="8.73" transform="translate(150.51 486.85) rotate(-65.88)"/><rect class="cls-2" x="476.57" y="110.41" width="2.26" height="41.17" transform="translate(298.09 592.62) rotate(-84.07)"/><path class="cls-2" d="M481.48,169.83a7.67,7.67,0,1,1-1.05,10.52A7.48,7.48,0,0,1,481.48,169.83Z"/><rect class="cls-2" x="480.58" y="151.97" width="41.17" height="2.26" transform="translate(94.43 483.52) rotate(-56.08)"/><ellipse class="cls-2" cx="108.51" cy="105.91" rx="22.12" ry="22.64"/><path class="cls-3" d="M93.19,108.85c1.82-1.56,5.83.13,9,3.78s4.19,7.87,2.37,9.43-5.83-.13-9-3.78S91.37,110.41,93.19,108.85Z"/><ellipse class="cls-2" cx="152.38" cy="69.55" rx="11.06" ry="11.32"/><path class="cls-2" d="M80.23,55.08a7.54,7.54,0,1,1-5.3,9.44A7.66,7.66,0,0,1,80.23,55.08Z"/><path class="cls-2" d="M64.43,107a9.79,9.79,0,1,1-6.87,12.25A9.93,9.93,0,0,1,64.43,107Z"/><polygon class="cls-2" points="90.6 112.69 67.58 117.93 67.17 116.02 90.19 110.78 90.6 112.69"/><polygon class="cls-2" points="98.15 88.38 85.68 67.89 87.3 66.86 99.76 87.35 98.15 88.38"/><polygon class="cls-2" points="123.8 93.45 149.77 69.76 151.04 71.22 125.07 94.9 123.8 93.45"/><path class="cls-2" d="M104.27,152.9a7.78,7.78,0,1,1,3.9,10.1A7.66,7.66,0,0,1,104.27,152.9Z"/><polygon class="cls-2" points="110.65 115 112.76 150.54 110.86 150.66 108.75 115.12 110.65 115"/><path class="cls-2" d="M141.67,116.07a6.21,6.21,0,1,1,1.94,8.82A6.4,6.4,0,0,1,141.67,116.07Z"/><polygon class="cls-2" points="110.48 101.39 142.13 116.16 141.34 117.94 109.69 103.16 110.48 101.39"/><ellipse class="cls-2" cx="333.91" cy="236.32" rx="11.95" ry="12.23"/><path class="cls-3" d="M325.64,237.92c1-.84,3.15.08,4.84,2.05s2.26,4.25,1.28,5.09-3.14-.08-4.83-2.05S324.66,238.76,325.64,237.92Z"/><path class="cls-2" d="M357.61,210.56a6.12,6.12,0,1,1-6,6.12A6.05,6.05,0,0,1,357.61,210.56Z"/><path class="cls-2" d="M318.63,208.86a4.08,4.08,0,1,1-2.87,5.1A4.15,4.15,0,0,1,318.63,208.86Z"/><ellipse class="cls-2" cx="311.6" cy="241.97" rx="5.45" ry="5.29" transform="translate(-56.06 98.89) rotate(-16.57)"/><polygon class="cls-2" points="324.23 239.99 311.79 242.82 311.57 241.79 324.01 238.96 324.23 239.99"/><polygon class="cls-2" points="328.31 226.85 321.57 215.78 322.45 215.22 329.18 226.29 328.31 226.85"/><polygon class="cls-2" points="342.17 229.59 356.2 216.79 356.89 217.58 342.85 230.38 342.17 229.59"/><path class="cls-2" d="M331.63,261.71a4.2,4.2,0,1,1,2.1,5.46A4.14,4.14,0,0,1,331.63,261.71Z"/><polygon class="cls-2" points="335.06 241.24 336.2 260.44 335.18 260.5 334.03 241.3 335.06 241.24"/><path class="cls-2" d="M351.84,241.84a3.35,3.35,0,1,1,1,4.77A3.45,3.45,0,0,1,351.84,241.84Z"/><polygon class="cls-2" points="334.97 233.88 352.07 241.86 351.65 242.82 334.54 234.84 334.97 233.88"/><path class="cls-4" d="M591.94,232.44c-28.8,41.76-41.9,91-37,139"/><path class="cls-5" d="M591.26,234.27c-1.59-3.75-.3-8.29,2.44-11.3s6.71-4.65,10.71-5.43C603.34,224.52,598.62,230.84,591.26,234.27Z"/><path class="cls-6" d="M601.89,219.75a84,84,0,0,0-10.71,13.63"/><path class="cls-5" d="M583.91,245.86a16,16,0,0,1,21.66-4,49.76,49.76,0,0,1-9.4,5.17,16.61,16.61,0,0,1-10.54.73C584.67,247.51,583.19,246.85,583.91,245.86Z"/><path class="cls-6" d="M602.63,241.88A54.5,54.5,0,0,0,584,246.32"/><path class="cls-5" d="M587.85,239.36a17.89,17.89,0,0,0-7.93-18.4c-.38,3.64-.75,7.37.12,10.93S583.29,238.86,587.85,239.36Z"/><path class="cls-6" d="M581.42,224.58a68.88,68.88,0,0,1,6.07,14.54"/><path class="cls-5" d="M578.62,253.48a17.61,17.61,0,0,0-8.84-22.15c-.39,4.13-.57,8.36.53,12.36A14.48,14.48,0,0,0,578.62,253.48Z"/><path class="cls-6" d="M571.33,235a155.48,155.48,0,0,0,7.16,18.27"/><path class="cls-5" d="M576.2,260.07c2.68-3.73,7.21-5.8,11.77-6.38s9.17.19,13.65,1.21C595.17,261.89,584.51,264.64,576.2,260.07Z"/><path class="cls-6" d="M597.32,255.74l-21.1,4.18"/><path class="cls-5" d="M571.78,267.47c1.81-4.42,0-9.66-3.24-13.18s-7.64-5.68-11.94-7.76a20.53,20.53,0,0,0,2.52,13C561.37,263.45,565,266.56,571.78,267.47Z"/><path class="cls-6" d="M571.7,267.51a51.45,51.45,0,0,0-12.89-16.88"/><path class="cls-5" d="M569.41,274.84A20.8,20.8,0,0,1,596,272.11c-4.09,2.16-8.23,4.34-12.7,5.51S574,278.9,569.41,274.84Z"/><path class="cls-6" d="M569.87,275l22-3.41"/><path class="cls-5" d="M565.22,282.81c1.13-4.39-1.25-9.12-4.83-11.89s-8.14-3.94-12.62-4.64c1.36,4,2.75,8.07,5.25,11.46S559.37,283.82,565.22,282.81Z"/><path class="cls-6" d="M565.42,282.77a109.2,109.2,0,0,0-14-13.62"/><path class="cls-5" d="M563.8,289.68a18,18,0,0,1,23.13-5.39C580.9,289.86,572.32,292.55,563.8,289.68Z"/><path class="cls-6" d="M564.15,289.93a56,56,0,0,1,18.55-5.18"/><path class="cls-5" d="M558.28,308.31a17.94,17.94,0,0,1,22.41-8.58A24.91,24.91,0,0,1,558.28,308.31Z"/><path class="cls-6" d="M558.94,307.91a65.22,65.22,0,0,1,17.93-6.84"/><path class="cls-5" d="M560.66,300.32a16.5,16.5,0,0,0-18-14.14,15.3,15.3,0,0,0,5,10.95C550.71,299.88,554.94,301.3,560.66,300.32Z"/><path class="cls-6" d="M560.52,300.34a93.13,93.13,0,0,0-14.07-10.87"/><path class="cls-5" d="M556.49,316.36a7.87,7.87,0,0,0-1.86-7.13A12.24,12.24,0,0,0,548,305.6a27.59,27.59,0,0,0-7.65-.34C542.76,311.86,548.8,317,556.49,316.36Z"/><path class="cls-6" d="M556.76,316.44a24.37,24.37,0,0,0-12.12-8.87"/><path class="cls-5" d="M555.34,326.85c.78-3.63,3.78-6.53,7.24-7.88a20.8,20.8,0,0,1,11-.72,17.65,17.65,0,0,1-7.66,7.91C562.6,327.88,558.73,328.51,555.34,326.85Z"/><path class="cls-6" d="M569.63,320.28a68.1,68.1,0,0,0-14.17,6.25"/><path class="cls-5" d="M554,335.5c-.46-3.25-3.24-5.81-6.35-6.88s-6.49-.9-9.75-.51a15.57,15.57,0,0,0,6.67,7.57C547.52,337.37,551.07,338,554,335.5Z"/><path class="cls-6" d="M554.39,335.49a108.34,108.34,0,0,1-12.7-5.53"/><path class="cls-4" d="M573.39,378.26a136.33,136.33,0,0,1,54.44-74.72"/><path class="cls-5" d="M627.07,304.08a12.9,12.9,0,0,1,17.46-8.18A18.32,18.32,0,0,1,627.07,304.08Z"/><path class="cls-6" d="M641.46,297.21a34.24,34.24,0,0,0-14.34,7"/><path class="cls-5" d="M622.92,307a11.47,11.47,0,0,0-1.5-14.79c-1.61,3.81-3.26,7.92-2.39,12C619.37,305.72,620.24,307.34,622.92,307Z"/><path class="cls-6" d="M621.38,294.94l1.41,11.81"/><path class="cls-5" d="M619.73,310.23a16.82,16.82,0,0,1,18.41,1.11C632.74,314.38,625.65,314.11,619.73,310.23Z"/><path class="cls-6" d="M619.16,310.32a44.9,44.9,0,0,1,13.73.87"/><path class="cls-5" d="M612.58,315a13.41,13.41,0,0,0-2.44-17.77,26.88,26.88,0,0,0-2.29,9.22A9.23,9.23,0,0,0,612.58,315Z"/><path class="cls-6" d="M610.3,300.27a135.93,135.93,0,0,1,2.32,14.34"/><path class="cls-5" d="M610.69,317.39a16.65,16.65,0,0,1,17.94.65A16.63,16.63,0,0,1,610.69,317.39Z"/><path class="cls-6" d="M624.14,317.87a44.82,44.82,0,0,0-14-.57"/><path class="cls-5" d="M606.3,321.67a14.12,14.12,0,0,0-7.71-17.14c-.68,3.44-1.29,7-.57,10.42S601.07,321.7,606.3,321.67Z"/><path class="cls-6" d="M606.05,322a62,62,0,0,0-5.76-12.29"/><path class="cls-5" d="M602.67,325.49a14.24,14.24,0,0,1,17.44,6.13A17.06,17.06,0,0,1,602.67,325.49Z"/><path class="cls-6" d="M602.62,325.24a32,32,0,0,1,11.45,4.21"/><path class="cls-5" d="M598,330.27A13.27,13.27,0,0,0,587.78,317c-.18,3.39,0,6.93,1.49,10S594,332.41,598,330.27Z"/><path class="cls-6" d="M597.8,330.28a36.17,36.17,0,0,0-7.36-9.24"/><path class="cls-5" d="M588.41,343.7a10.63,10.63,0,0,0-8.68-13.19,14.13,14.13,0,0,0,1.79,8.93C583.08,342.11,585.56,344.24,588.41,343.7Z"/><path class="cls-6" d="M588.45,344a18.75,18.75,0,0,0-6.5-9.66"/><path class="cls-5" d="M592.94,337a13.8,13.8,0,0,1,17.28,4.37A14.43,14.43,0,0,1,592.94,337Z"/><path class="cls-6" d="M606.23,340.47a36.84,36.84,0,0,0-12.53-3.65"/><path class="cls-4" d="M528.27,347.16a136.41,136.41,0,0,0-17.34-90.81"/><path class="cls-5" d="M511.37,257.17a12.89,12.89,0,0,0-12.3-14.85A18.35,18.35,0,0,0,511.37,257.17Z"/><path class="cls-6" d="M501.29,244.82a34.27,34.27,0,0,1,10,12.45"/><path class="cls-5" d="M513.88,261.59a11.48,11.48,0,0,1,7.66-12.74c-.17,4.13-.43,8.56-2.95,11.84C517.64,261.94,516.16,263,513.88,261.59Z"/><path class="cls-6" d="M520.42,251.33q-3.17,5-6.32,10.07"/><path class="cls-5" d="M515.38,265.87A16.78,16.78,0,0,0,498.26,259,17.8,17.8,0,0,0,515.38,265.87Z"/><path class="cls-6" d="M515.87,266.19a44.74,44.74,0,0,0-12.79-5.07"/><path class="cls-5" d="M519.83,273.21a13.41,13.41,0,0,1,9.79-15,27,27,0,0,1-1.87,9.32A9.19,9.19,0,0,1,519.83,273.21Z"/><path class="cls-6" d="M528.17,260.89a134.2,134.2,0,0,0-8.21,12"/><path class="cls-5" d="M520.51,276.19a16.61,16.61,0,0,0-16.5-7.06A16.61,16.61,0,0,0,520.51,276.19Z"/><path class="cls-6" d="M508.14,270.89a45,45,0,0,1,12.92,5.46"/><path class="cls-5" d="M522.65,281.94a14.12,14.12,0,0,1,14.29-12.2c-.85,3.4-1.82,6.87-3.93,9.67S527.37,284.2,522.65,281.94Z"/><path class="cls-6" d="M522.72,282.39a61.84,61.84,0,0,1,10.45-8.65"/><path class="cls-5" d="M524.3,286.94a14.25,14.25,0,0,0-18.4-1.9A17.06,17.06,0,0,0,524.3,286.94Z"/><path class="cls-6" d="M524.46,286.74a31.76,31.76,0,0,0-12.15-1.08"/><path class="cls-5" d="M526.5,293.27a13.28,13.28,0,0,1,14.9-7.65c-1.29,3.14-2.93,6.28-5.6,8.38S529.21,296.92,526.5,293.27Z"/><path class="cls-6" d="M526.66,293.35a36.12,36.12,0,0,1,10.6-5.22"/><path class="cls-5" d="M529.43,309.5a10.62,10.62,0,0,1,13.48-8.22,14,14,0,0,1-5.43,7.31C534.92,310.34,531.78,311.21,529.43,309.5Z"/><path class="cls-6" d="M529.26,309.76a18.78,18.78,0,0,1,10-6"/><path class="cls-5" d="M528.21,301.46a13.79,13.79,0,0,0-17.49-3.41A14.44,14.44,0,0,0,528.21,301.46Z"/><path class="cls-6" d="M514.69,299a37,37,0,0,1,12.89,2"/><path class="cls-7" d="M560.07,385.34a75.27,75.27,0,0,1,34-93.27c1.89,17.52,3.46,35.42-.42,52.6S579.55,378.49,560.07,385.34Z"/><path class="cls-8" d="M593.71,310.78l-4.84,1.09-2.35.53-1.17.26-.16,0q3.34-8.22,6.93-16.33c.32-.72-.75-1.35-1.07-.62q-3.74,8.38-7.19,16.9c-.08-.18-.16-.39-.2-.47-.17-.3-.35-.6-.53-.9-.36-.59-.75-1.17-1.15-1.73a30.18,30.18,0,0,0-2.76-3.32c-.55-.57-1.41.3-.87.87a27.64,27.64,0,0,1,3,3.71c.44.65.85,1.31,1.23,2a3.84,3.84,0,0,0,.74,1.15q-4.76,11.74-9,23.7a1.82,1.82,0,0,1-.32-.15,11.21,11.21,0,0,1-1.43-1.33c-.94-.85-1.9-1.66-2.89-2.45a67.23,67.23,0,0,0-6.12-4.36c-.67-.42-1.29.64-.62,1.06a64.4,64.4,0,0,1,6.73,4.88c1,.86,2,1.75,3,2.66a5.39,5.39,0,0,0,1.21,1q-4.32,12.27-8,24.74c0,.13-.07.26-.11.38a16.92,16.92,0,0,1-2.09-2,30.21,30.21,0,0,0-5.48-3.85c-.7-.39-1.34.69-.63,1.08a29,29,0,0,1,6,4.36,9.18,9.18,0,0,0,1.81,1.71q-2.68,9.06-5.08,18.2a.63.63,0,0,0,1.22.34q2.43-9.29,5.17-18.47c.6-.17,1.21-.51,1.72-.7A47,47,0,0,1,584,361.94a.62.62,0,0,0,0-1.24A47,47,0,0,0,569.62,363l-1.74.6c-.21.08-.47.22-.74.34q3.76-12.53,8.09-24.88a29.36,29.36,0,0,0,3.23-1.23,35.15,35.15,0,0,1,3.9-1.07,37.65,37.65,0,0,1,8.54-.75.65.65,0,0,0,0-1.29A35.75,35.75,0,0,0,576,337.38l-.24.1q3.93-11.1,8.3-22.05l.55-1.32c.47-.09,1-.26,1.36-.35l2.64-.59,5.43-1.22C594.8,311.79,594.48,310.61,593.71,310.78Z"/><path class="cls-7" d="M544.76,385.65c-3.58-18.2-13.44-34.62-26.9-44.78a56,56,0,0,0-46.1-10.34c1.26,18,12,33.72,25.43,42.83S526.28,385.78,544.76,385.65Z"/><path class="cls-8" d="M541.64,381.4c-3.71-3-7.48-5.88-11.27-8.76-.11-.76-.39-1.56-.5-2.24a31.64,31.64,0,0,1-.37-4.23,42.9,42.9,0,0,1,.94-8.6.7.7,0,0,0-1.34-.37,32,32,0,0,0-.39,14.17c-4.5-3.41-9-6.79-13.48-10.22l-3.41-2.63a12.71,12.71,0,0,0-.12-2.85,40.4,40.4,0,0,1,.09-4.67,45.45,45.45,0,0,1,1.93-9.66c.24-.81-1-1.14-1.26-.35a38.36,38.36,0,0,0-1.82,8.62,43.66,43.66,0,0,0-.23,4.43c0,.78,0,1.56.07,2.34,0,.32.11.77.13,1.21-5.84-4.51-11.67-9-17.63-13.39a10.28,10.28,0,0,0-.14-2.6c0-1.06,0-2.13,0-3.19a37.29,37.29,0,0,1,1-7c.19-.79-1-1.12-1.21-.33a37.77,37.77,0,0,0-.9,12.17c-.78-.57-1.56-1.15-2.35-1.71a154.87,154.87,0,0,0-14.93-9.49c-.72-.4-1.36.71-.64,1.1a164,164,0,0,1,17.14,11.05c-.46.13-.91.28-1.36.43-1,.32-1.93.68-2.88,1.07a45.94,45.94,0,0,0-5.37,2.62.61.61,0,0,0,.62,1.06,44.31,44.31,0,0,1,6-2.84c1-.39,2-.73,3.06-1.05a9.67,9.67,0,0,0,1.2-.37q3.74,2.75,7.42,5.56,5.28,4,10.54,8.1a15.51,15.51,0,0,1-1.41.71c-.63.35-1.25.71-1.87,1.08-1.17.71-2.3,1.47-3.4,2.29a48.29,48.29,0,0,0-6.25,5.53c-.57.6.34,1.51.91.91a46.5,46.5,0,0,1,6.67-5.87c1.17-.84,2.38-1.62,3.62-2.35a17.5,17.5,0,0,0,2.77-1.51l14.68,11.27,3.09,2.4h0c-.15.34-.34.29-.68.38-.53.13-1,.27-1.56.44a21.81,21.81,0,0,0-8.42,5.07c-.61.58.31,1.5.92.92a20.37,20.37,0,0,1,9.41-5.15,2.63,2.63,0,0,0,1.52-.73c3.55,2.77,7.1,5.55,10.72,8.21C541.45,382.81,542.2,381.85,541.64,381.4Z"/><path class="cls-1" d="M565.2,391.38c3-18.37,12.64-35.39,26.42-46.72a67.27,67.27,0,0,1,48.85-15.17C630.86,363.44,600.34,389.3,565.2,391.38Z"/><path class="cls-9" d="M633.75,333a151.36,151.36,0,0,0-14.81,7.39c0-.54,0-1.09-.07-1.63l-.22-4.48c0-.78-1.26-.79-1.22,0l.24,4.91c0,.59,0,1.26.06,1.88a153.49,153.49,0,0,0-14.46,9.53A54.58,54.58,0,0,0,601,341c-.26-.75-1.46-.43-1.2.33a54.65,54.65,0,0,1,2.39,10.09,154.14,154.14,0,0,0-16.92,14.87h-.09l-2.78-8c-.26-.76-1.48-.43-1.21.33q1.47,4.2,2.93,8.4a.79.79,0,0,0,.17.25q-3.69,3.83-7.12,7.88c-1,1.19-2,2.39-2.93,3.61a6.13,6.13,0,0,1-.34-.57l-1.53-2.73a.63.63,0,0,0-1.09.64c.51.91,1,1.82,1.54,2.73a5.27,5.27,0,0,0,.64.95q-4.35,5.61-8.15,11.61c-.45.72.68,1.37,1.13.66,2.55-4,5.31-7.9,8.22-11.65a13.24,13.24,0,0,0,1.88.05c1,0,2.09.07,3.14.14a75.72,75.72,0,0,1,12.6,2,.62.62,0,0,0,.33-1.2,65.93,65.93,0,0,0-11-1.94c-1.82-.18-3.65-.28-5.49-.31l-.57,0a153.12,153.12,0,0,1,10.25-11.64c3.66.28,7.32.67,11,1.22,3.35.51,7.07.88,9.8,3.1.64.52,1.55-.38.91-.91-2.81-2.29-6.39-2.87-9.88-3.37s-7.09-.9-10.65-1.19a154.13,154.13,0,0,1,16-14,53.17,53.17,0,0,1,18.68,6.09c.71.39,1.34-.7.63-1.08a54.59,54.59,0,0,0-17.92-6.05c4-2.93,8.06-5.69,12.3-8.23l1.68-1a4.05,4.05,0,0,0,1,.42c3.14,1,6.24,2.06,9.32,3.21.73.27,1-.89.32-1.16q-4.11-1.54-8.31-2.9l-1-.32h0a150.06,150.06,0,0,1,14.75-7.35C635.14,333.74,634.49,332.64,633.75,333Z"/><path class="cls-1" d="M557.57,389.61a74.37,74.37,0,0,0-3.43-57.14,76.08,76.08,0,0,0-43.53-37.86C502.7,329.23,519.6,368,557.57,389.61Z"/><path class="cls-9" d="M557.45,352.36c.72-.51,0-1.7-.69-1.19a35,35,0,0,0-9.48,10.25c-3.08-7-6.42-13.94-9.94-20.77a44.7,44.7,0,0,1,10.82-15.2c.6-.55-.29-1.43-.89-.89a44.93,44.93,0,0,0-10.67,14.66q-4.62-8.88-9.53-17.58l-1.27-2.24a.83.83,0,0,0,0-.15A73.64,73.64,0,0,1,528,306.48a.62.62,0,0,0-1.2-.33,73.89,73.89,0,0,0-2.05,11.42Q520.92,310.76,517,304a.6.6,0,0,0-1,.61c2.65,4.62,5.31,9.25,7.93,13.9-4.08-.43-8.18-.73-12.23.14-.81.17-.47,1.43.34,1.25,4.16-.92,8.44-.52,12.64-.06,3.7,6.56,7.32,13.18,10.79,19.86a39.59,39.59,0,0,0-16.36,1.59c-.77.24-.44,1.46.34,1.22A38.34,38.34,0,0,1,536.14,341c3.55,6.89,6.91,13.86,10,21-5-.78-10.12,1.17-14.7,3-.78.31-.45,1.58.35,1.28,4.86-1.84,9.75-3.53,15-2.71.63,1.48,1.28,3,1.88,4.46,2.54,6.26,4.84,12.61,6.85,19.06.26.84,1.58.48,1.32-.36a244.08,244.08,0,0,0-8.89-23.77A30.7,30.7,0,0,1,557.45,352.36Z"/><polygon class="cls-10" points="618.46 372.92 616.11 377.58 601.3 406.92 506.61 406.92 491.81 377.58 489.46 372.92 618.46 372.92"/><polygon class="cls-11" points="616.11 377.58 601.3 406.92 506.61 406.92 491.81 377.58 616.11 377.58"/><polygon class="cls-12" points="245.68 166.71 289.88 21.77 345.06 34.89 310.05 182.03 245.68 166.71"/><polygon class="cls-13" points="341.62 29.92 340.71 33.86 338.88 41.75 307.03 179.18 306.57 181.2 304.59 189.7 281.44 184.2 283.67 175.75 284.2 173.75 320.21 37.31 322.29 29.48 323.32 25.56 341.62 29.92"/><polygon class="cls-14" points="295.37 25.56 246.4 175.35 258.61 177.31 302.76 25.56 295.37 25.56"/><rect class="cls-11" x="313.02" y="1.33" width="16.4" height="37.81" transform="translate(223.1 326.77) rotate(-75.85)"/><rect class="cls-15" x="319.11" y="-12.35" width="9.37" height="44.72" transform="translate(234.96 321.54) rotate(-75.85)"/><polygon class="cls-15" points="351.9 32.37 349.09 44.18 343.18 42.78 338.88 41.75 320.21 37.31 287.5 29.54 282.09 28.24 284.9 16.42 323.32 25.56 341.62 29.92 351.9 32.37"/><polygon class="cls-11" points="316.44 181.42 313.95 191.93 304.59 189.7 281.44 184.2 231.36 172.28 233.87 161.77 246.29 164.73 284.2 173.75 307.03 179.18 310.53 180.02 316.44 181.42"/><rect class="cls-15" x="246.87" y="188.45" width="22.51" height="10.55" transform="translate(10.21 400.35) rotate(-76.7)"/><rect class="cls-15" x="270.17" y="194.92" width="25.19" height="16.88" transform="translate(19.8 431.75) rotate(-76.7)"/><rect class="cls-16" x="271.16" y="146.35" width="6.75" height="79.36" transform="translate(30 410.04) rotate(-76.61)"/><path class="cls-17" d="M328.27,91.28,327.44,96,320,138.23a79.71,79.71,0,0,1-15.52,157.9,78.83,78.83,0,0,1-12.18-.93l-.74,4.23L284,342.15a127.5,127.5,0,0,0,83.07-14.79l.06,0a127.38,127.38,0,0,0-38.87-236Z"/><path class="cls-18" d="M327.44,96,320,138.24a79.73,79.73,0,0,1,22.33,148.35,79.22,79.22,0,0,1-43.84,13.14q-3.51,0-6.94-.3L284,342.15a127.5,127.5,0,0,0,83.07-14.79l.06,0A127.39,127.39,0,0,0,327.44,96Z"/><rect class="cls-18" x="291.44" y="109.92" width="70.69" height="12.7" transform="translate(134.18 404.73) rotate(-75.85)"/><circle class="cls-11" cx="333" cy="117.83" r="8.12"/><rect class="cls-11" x="185.98" y="286.85" width="122.45" height="11.31" transform="translate(-1.27 1.08) rotate(-0.25)"/><rect class="cls-19" x="204.5" y="334.38" width="74.28" height="5.99" transform="translate(-156.23 219.45) rotate(-37.88)"/><path class="cls-11" d="M238.73,338.46l-.18-.77A1.91,1.91,0,0,1,240,335.4l54.68-12.49a1.91,1.91,0,0,1,2.29,1.44l.18.77a1.91,1.91,0,0,1-1.44,2.29L241,339.9A1.92,1.92,0,0,1,238.73,338.46Z"/><path class="cls-10" d="M392.76,395.93H290.4l22.07-96.63c4.44-19.43,23.48-26.67,38.79-21.69,9.06,2.95,16.81,10.18,19.43,21.69Z"/><path class="cls-11" d="M392.76,395.93H297.42l21.76-95.24c3.81-16.68,18.37-24.37,32.08-23.08,9.06,2.95,16.81,10.18,19.43,21.69Z"/><ellipse class="cls-16" cx="342.25" cy="314.27" rx="16.46" ry="16.24"/><ellipse class="cls-15" cx="341.58" cy="313.61" rx="15.79" ry="15.58"/><path class="cls-20" d="M419.83,401.68V406H163.44v-5.64A14.56,14.56,0,0,1,178,385.83H404a15.86,15.86,0,0,1,15.85,15.85Z"/><path class="cls-21" d="M419.83,401.68V406H168.93a14.55,14.55,0,0,1,14.54-14.21h226a15.66,15.66,0,0,1,8.58,2.53A15.74,15.74,0,0,1,419.83,401.68Z"/><path class="cls-22" d="M466.18,373.39l-1.85-102.93-25.07,1.25-24,96.69C433.22,364.38,449.88,367.83,466.18,373.39Z"/><path class="cls-23" d="M407.46,299.94c15.63,4.42,30.2,9.46,45.69,4.57.14-2.07,2-8.59,3.2-12a142.6,142.6,0,0,0,4.95-17.75c.69-4.12-.41-28.87-9.34-30.86-9.89-2.21-17.09-1.45-26.94,2.37a11.5,11.5,0,0,0-6.76,6.47,76.58,76.58,0,0,0-4.43,23.3,59.24,59.24,0,0,1-4.64,19.86Z"/><path class="cls-14" d="M456.45,255l-5.88-12.48s13.31,4.4,17.7,12.17c3.51,6.21,4.79,40.36,5.9,41.06s28.08,15.69,28.08,15.69l-13.63,7-21.2-6.33-4-34Z"/><path class="cls-12" d="M450,242.48s9.81,18.93,9.81,31.1c0,15.84-2,110.24-2,110.24l5.94-2.93s5.44-102.15,4.57-109.78-4.42-22.07-7.57-25.5S450,242.48,450,242.48Z"/><path class="cls-24" d="M459.55,283.36s.26-11.6-1.33-17.08-7.79-22.67-7.79-22.67l5.65,1.27L466,263.05l-5,3.4,5.19,3Z"/><rect class="cls-16" x="406.45" y="347.31" width="6" height="60"/><rect class="cls-16" x="450.06" y="347.31" width="6" height="60"/><path class="cls-25" d="M460.73,351.17v-6.44a5.27,5.27,0,0,0-5.27-5.27H407.54a5.27,5.27,0,0,0-5.27,5.27v6.44Z"/><path class="cls-26" d="M492.22,412c-2.48,1-25.78-.55-27.93-2.94-.41-.46-.41-1.66-.1-3.09a15.08,15.08,0,0,1,2.18-5.19,6.36,6.36,0,0,1,1.33-1.43,6.49,6.49,0,0,1,5.16-.92,39.79,39.79,0,0,1,5.31,1.66,40.55,40.55,0,0,1,10.91,5.4A25.54,25.54,0,0,1,492,408a4.4,4.4,0,0,1,.78,1.17C493.28,410.17,493.45,411.48,492.22,412Z"/><path class="cls-27" d="M489.08,405.44c-1.23.45-5.25.45-7.93.16-3.86-.41-9.14-2.23-14.78-4.87a6.36,6.36,0,0,1,1.33-1.43,6.49,6.49,0,0,1,5.16-.92,39.79,39.79,0,0,1,5.31,1.66A40.55,40.55,0,0,1,489.08,405.44Z"/><path class="cls-27" d="M504,330.41c-1.52-6.79-14.66-13.13-28.13-17.94a115.44,115.44,0,0,0-12.36,9.27c-2,1.75-3.84,3.55-5.64,5.42-1.71,2.12-3.34,4.31-5,6.51l29.63,15.17-17,49c4.3,2.19,10.33,2.24,11.9,2.43C486.19,381.57,506.11,339.72,504,330.41Z"/><path class="cls-28" d="M480.86,413.37c-2.54,1-26.45-.56-28.66-3a2.87,2.87,0,0,1-.29-2c.25-2.5,1.76-6.43,3.79-7.94l.08,0a6.67,6.67,0,0,1,5.22-.91,43.34,43.34,0,0,1,5.44,1.7,42.56,42.56,0,0,1,10.95,5.37,25.52,25.52,0,0,1,3.23,2.75,4.72,4.72,0,0,1,1.15,2.29A1.48,1.48,0,0,1,480.86,413.37Z"/><path class="cls-29" d="M477.39,406.51c-1.54.53-8.06.3-11.86-.95-2.93-1-7.6-2.94-9.75-5.21a6.67,6.67,0,0,1,5.22-.91,43.34,43.34,0,0,1,5.44,1.7A42.56,42.56,0,0,1,477.39,406.51Z"/><path class="cls-29" d="M466.32,318.47a71,71,0,0,0-7.07,4.28,38.37,38.37,0,0,0-15.45,20.19,212,212,0,0,0,21.41,1.18L457,399.64c3.42,2.83,8.24,2.81,11.95,2.48,0,0,25.09-61.47,17.48-72.1C483,325.33,474.64,321.4,466.32,318.47Z"/><path class="cls-16" d="M410.9,295.51a71.67,71.67,0,0,0-5.84,23c-.71,11.93,2.15,18.56,15.29,21.36s38,4.3,38,4.3-1.92-6.91,4.68-12.66c8.5-7.42,36.28-9.32,40.09-3.31a24.31,24.31,0,0,0-7.4-9c-5-3.56-45.74-15-45.74-15Z"/><path class="cls-12" d="M415.21,251.61c3.65-4.86,15.77-9.92,19.25-9.92s9.68,26.23,8.72,36.25-4.66,21.7-8.55,35.22c-7.7,26.73-7.57,74.77-7.57,74.77l-26.19-11.11s-6.05-41.87,1-68.59c2.66-10.12,4.66-21.23,6.64-33S410.48,257.91,415.21,251.61Z"/><path class="cls-24" d="M442.68,283l-6.94-12,5.31-5.19-8.49-4.83-2.39-20.3,5.36-.86s6.45,17.66,7.64,24C444.69,271.82,442.68,283,442.68,283Z"/><polygon class="cls-24" points="408.47 359.04 424.19 352.6 425.04 355.93 409.21 362.4 408.47 359.04"/><path class="cls-16" d="M471.47,211c1.41,3.69-1,11.58-1.47,15.55-1.54,13.19,3.29,12.81,2.48,19.8a7.63,7.63,0,0,1-5.29,6,10.69,10.69,0,0,1-7.74-.7,27.8,27.8,0,0,1-6.68-4.68c-1.85-1.63-4.1-4.05-3.86-7,.87-10.53,3.27-20.21,4.14-30.73a1.79,1.79,0,0,1,.55-1.42,1.36,1.36,0,0,1,.91-.13A68.21,68.21,0,0,1,471.47,211Z"/><path class="cls-29" d="M433.22,244.63c4.57,4.57,14.34,12.22,16.73,12.07,2.14-.14.71-9.86.61-10.94a11,11,0,0,1,0-2.38,17.61,17.61,0,0,1,2.56-6.65A50.13,50.13,0,0,1,439.86,229C439,233.73,434.47,243.07,433.22,244.63Z"/><path class="cls-27" d="M438.13,235.68c.25.29.51.57.77.86a22.06,22.06,0,0,0,9.85,6.48,10.5,10.5,0,0,0,1.84.36,17.61,17.61,0,0,1,2.56-6.65A50.13,50.13,0,0,1,439.86,229,43.43,43.43,0,0,1,438.13,235.68Z"/><path class="cls-29" d="M469.29,218.08c0,11.84-4.58,23.61-13.1,23.61-4.92,0-10.22-2.95-14.33-7.31a28.35,28.35,0,0,1-3.16-4,22.74,22.74,0,0,1-4.07-12.3c0-11.82,7.75-21.42,17.33-21.42,11.28,0,15.24,9.87,16.62,16.21.3,1.41.48,2.64.58,3.55S469.29,218,469.29,218.08Z"/><path class="cls-27" d="M469.16,216.42c-5.73,1.71-14.37,0-19.22-2.88.12,2.83-1.4,6-3.11,8.14S443.19,226,442,230.3a10.76,10.76,0,0,0-.16,4.08,8.87,8.87,0,0,0,.18,1,7.5,7.5,0,0,0,1.87,3.79,21.17,21.17,0,0,1-4.21-6.52c-.36-.76-.69-1.54-1-2.3-.55-1.35-1-2.65-1.39-3.76,1.58-7.38,3-14.67,4.43-22,8.38,2.18,18.4,5.16,26.84,8.23C468.88,214.28,469.06,215.51,469.16,216.42Z"/><path class="cls-30" d="M452.06,221.92c1.52-1.25,4.59-1.62,5.9-.8"/><path class="cls-30" d="M464.31,221.16a4.77,4.77,0,0,1,5,.29"/><ellipse class="cls-31" cx="455.81" cy="227.12" rx="0.75" ry="1"/><ellipse class="cls-31" cx="465.71" cy="227.12" rx="0.75" ry="1"/><path class="cls-32" d="M462.74,227.37a9.74,9.74,0,0,1-.63,4.29"/><path class="cls-32" d="M460.28,235.44a8.26,8.26,0,0,1-5.77-2.5"/><path class="cls-16" d="M428.19,234.6a13.66,13.66,0,0,0,.26-6.69c-1.69-7.43-1.32-16.12,2.52-22.35,2.6-4.22,7.65-7.33,12-5.53,3.48,1.43,5.37,6,5.81,10.34a24.5,24.5,0,0,1-4.11,16.3,12.67,12.67,0,0,0-1.61,11l1.28,4c1.07,3.34,2.11,7.32-.37,10.1a5.61,5.61,0,0,1-3.71,1.79c-4.62.46-10.11-2.67-12.28-7.47C426.47,242.76,427.05,238.69,428.19,234.6Z"/><path class="cls-16" d="M437.07,202c5.64,7.51,20.42,15.32,33.63,13.61a5.53,5.53,0,0,0,3.25-1.33c1.67-1.66.9-4.41-.19-6.52-2.41-4.64-5.16-8.64-10.63-12.11s-13-4.95-19.17-2.87a17.48,17.48,0,0,0-4.54,2.25C436.47,197.13,435.39,199.78,437.07,202Z"/><path class="cls-17" d="M439.42,195.05a20.29,20.29,0,0,1,8.2-.7c5.12.61,9.91,2.87,14.36,5.48,3.88,2.28,7.7,5,10,8.8a13.77,13.77,0,0,1,1.93,5.66c1.67-1.66.9-4.41-.19-6.52-2.41-4.64-5.16-8.64-10.63-12.11s-13-4.95-19.17-2.87A17.33,17.33,0,0,0,439.42,195.05Z"/><polygon class="cls-33" points="436.39 308.94 462.18 321.81 502.09 322.57 503.34 320.35 502.65 319.97 480.53 307.56 436.72 306.94 436.72 306.95 436.39 308.94"/><polygon class="cls-34" points="436.72 306.94 436.72 306.95 463.16 320.15 502.65 319.97 480.53 307.56 436.72 306.94"/><polygon class="cls-35" points="464.95 318.46 449.35 310.91 483.46 311.29 475.8 317.27 464.95 318.46"/><line class="cls-36" x1="458.38" y1="316.14" x2="475.37" y2="315.97"/><line class="cls-36" x1="454.44" y1="314.17" x2="471.42" y2="314"/><line class="cls-36" x1="451.05" y1="312.2" x2="468.04" y2="312.03"/><line class="cls-36" x1="449.79" y1="309.25" x2="464.99" y2="316.83"/><line class="cls-36" x1="453.46" y1="308.41" x2="468.66" y2="315.99"/><line class="cls-36" x1="459.54" y1="308.41" x2="472.59" y2="315.14"/><polygon class="cls-35" points="466.4 308.13 453.97 308.13 458.66 310.32 471.15 310.44 466.4 308.13"/><polyline class="cls-21" points="514.97 294.21 527.88 287.76 526.06 285.57 484.95 285.25 462.2 319.18 463.6 321.05"/><polygon class="cls-20" points="463.6 321.03 486.17 287.52 527.88 287.71 505.37 321.17 463.6 321.03"/><ellipse class="cls-21" cx="497.7" cy="303.63" rx="6.6" ry="2.76"/><path class="cls-29" d="M439.18,302.2c5-1.84,13.09-5.09,16-4.06s5.91,5.32,7.18,9.64a2.63,2.63,0,0,1,.13,1.3.94.94,0,0,1-.92.77,1.44,1.44,0,0,1-.86-.65,74.65,74.65,0,0,0-5.16-6.21,17.64,17.64,0,0,1,3.39,7.23c.14.65.12,1.53-.51,1.73s-1.1-.43-1.41-1c-1.34-2.25-2.67-4.5-4.41-6.92a18.63,18.63,0,0,1,2.29,6.09c.11.58.08,1.35-.47,1.54s-1-.33-1.27-.78c-1.19-1.78-2.28-3.64-3.37-5.62.47,1.61.95,3.22,1.42,4.83.19.64.29,1.51-.29,1.82s-1.15-.16-1.55-.61a11.28,11.28,0,0,1-2.51-3.52c-1.26,1.56-3.17,2-5.15,2.18s-4.33-1.15-6-2.18C436.83,305.84,438,304.42,439.18,302.2Z"/><path class="cls-14" d="M421.63,248.21c-4.92.22-10.25,5.15-13.42,22.45-2.8,15.28-4,30.32-2.51,33.84,1.12,2.64,31.34,9.75,31.34,9.75l4-13.54s-14.74-4.31-16.15-7.42c-.66-1.47,1.49-10.85,3.66-23.57C430.37,259.14,428.1,247.93,421.63,248.21Z"/><polygon class="cls-37" points="108.22 198.23 102.53 232.95 77.51 232.95 71.82 198.23 108.22 198.23"/><circle class="cls-38" cx="81.94" cy="202.79" r="2"/><circle class="cls-38" cx="101.44" cy="202.79" r="2"/><circle class="cls-38" cx="80.94" cy="212.45" r="2"/><circle class="cls-38" cx="81.94" cy="221.6" r="2"/><circle class="cls-38" cx="99.44" cy="215.59" r="2"/><path class="cls-38" d="M92.28,223.61a2.76,2.76,0,1,1-2.76,2.76A2.77,2.77,0,0,1,92.28,223.61Z"/><path class="cls-38" d="M90.77,207.69A2.76,2.76,0,1,1,88,210.45,2.77,2.77,0,0,1,90.77,207.69Z"/><polygon class="cls-37" points="30.82 294.99 41.53 310.93 33.27 318.2 18.81 305.56 30.82 294.99"/><path class="cls-38" d="M23.08,303.67a1.13,1.13,0,0,1,1.46,1.66,1.13,1.13,0,0,1-1.46-1.66Z"/><path class="cls-38" d="M29.51,298A1.13,1.13,0,0,1,31,299.66,1.13,1.13,0,0,1,29.51,298Z"/><path class="cls-38" d="M26.26,308a1.13,1.13,0,0,1,1.45,1.65,1,1,0,0,1-1.39-.25A1,1,0,0,1,26.26,308Z"/><path class="cls-38" d="M29.9,311.42a1,1,0,0,1,1.39.24A.9.9,0,1,1,30,312.82,1,1,0,0,1,29.9,311.42Z"/><path class="cls-38" d="M33.49,303.86a1.13,1.13,0,1,1,.07,1.41A1,1,0,0,1,33.49,303.86Z"/><path class="cls-38" d="M34.76,310.06a1.4,1.4,0,0,1,1.92.34,1.24,1.24,0,1,1-1.92-.34Z"/><path class="cls-38" d="M28.5,304a1.56,1.56,0,0,1,2,2.28,1.56,1.56,0,0,1-2-2.28Z"/><g class="cls-39"><rect class="cls-40" x="35.13" y="302.19" width="20.5" height="42.84" transform="translate(-202.55 110.73) rotate(-41.37)"/><g class="cls-41"><path class="cls-40" d="M142.88,363.27a53.31,53.31,0,0,1-15.76,41.3,10,10,0,0,1-7,2.87H58.91a10.06,10.06,0,0,1-7.09-2.95,53.47,53.47,0,1,1,91.06-41.22Z"/><rect class="cls-40" x="69.85" y="221.89" width="39.32" height="144.68"/><rect class="cls-42" x="75.26" y="222.82" width="28.5" height="144.68"/><path class="cls-40" d="M115.46,213.28v10.93a.82.82,0,0,1-.83.82H64.39a.82.82,0,0,1-.83-.82V213.28a.83.83,0,0,1,.83-.83h50.24A.83.83,0,0,1,115.46,213.28Z"/><rect class="cls-42" x="72.51" y="212.45" width="34" height="12.58"/><path class="cls-42" d="M122.22,398.79a8.65,8.65,0,0,1-6.1,2.5H62.9a8.79,8.79,0,0,1-6.17-2.56,46.5,46.5,0,1,1,65.49.06Z"/></g><rect class="cls-42" x="38.63" y="302.19" width="13.5" height="42.84" transform="translate(-202.55 110.73) rotate(-41.37)"/></g><path class="cls-43" d="M122.22,398.79a8.65,8.65,0,0,1-6.1,2.5H62.9a8.79,8.79,0,0,1-6.17-2.56,46.6,46.6,0,0,1-12.37-44.16h90.3a46.63,46.63,0,0,1-12.44,44.22Z"/><circle class="cls-44" cx="80.16" cy="367.14" r="4.88"/><ellipse class="cls-44" cx="108.37" cy="355.51" rx="7.09" ry="6.75"/><circle class="cls-44" cx="63.63" cy="385.49" r="3.53"/><circle class="cls-44" cx="102.63" cy="392.54" r="3.53"/><circle class="cls-44" cx="89.53" cy="350.54" r="3.53"/><circle class="cls-44" cx="80.16" cy="336.04" r="3.53"/><circle class="cls-44" cx="87.21" cy="295.16" r="3.53"/><path class="cls-44" d="M88.19,315.79A2.18,2.18,0,1,1,86,318,2.19,2.19,0,0,1,88.19,315.79Z"/><path class="cls-45" d="M201.2,329.21a397.49,397.49,0,0,0-58-3.11,95.39,95.39,0,0,0,7.62-37.35c0-1.66.1-3.62,1.36-4.53,1-.73,2.35-.42,3.54-.11a96.63,96.63,0,0,0,44.57,1.2C195.94,298.65,194.65,313.18,201.2,329.21Z"/><polygon class="cls-46" points="192.99 402.89 192.72 384.83 178.73 384.89 180.78 400.65 192.99 402.89"/><path class="cls-47" d="M209.66,411c-.62,1.82-30.33,1-31.7-.46a2.14,2.14,0,0,1-.36-1.67c.25-3,2.44-8.2,2.52-8.53,6.54.52,8.43.38,14.43.54,1.94,1,13.07,4.31,15,8.44A2.06,2.06,0,0,1,209.66,411Z"/><path class="cls-48" d="M209.66,411c-.62,1.82-30.33,1-31.7-.46a2.14,2.14,0,0,1-.36-1.67,124,124,0,0,0,16.55,1.5,141.44,141.44,0,0,0,15.37-1A2,2,0,0,1,209.66,411Z"/><polygon class="cls-46" points="150.88 401.98 153.56 385.63 140.33 382.54 138.69 399.62 150.88 401.98"/><path class="cls-47" d="M167.48,410.26c-.63,1.81-30.34.76-31.7-.75a2.13,2.13,0,0,1-.34-1.67c.27-3,2.51-8.17,2.6-8.5,6.53.58,8.43.46,14.42.68,1.93,1,13,4.43,14.89,8.58A2.05,2.05,0,0,1,167.48,410.26Z"/><path class="cls-48" d="M167.48,410.26c-.63,1.81-30.34.76-31.7-.75a2.13,2.13,0,0,1-.34-1.67A123.06,123.06,0,0,0,152,409.49a142,142,0,0,0,15.38-.89A2.09,2.09,0,0,1,167.48,410.26Z"/><polygon class="cls-11" points="192.69 249.28 196.27 398.49 177.31 398.04 170.63 298.61 154.92 397.31 135.41 397.31 147.2 247.08 192.69 249.28"/><path class="cls-29" d="M189.74,196.3s-11.8,12.19-13.35,11.95c-2.39-.37-24.88-16.71-24.88-16.71a92.08,92.08,0,0,0,9.25-3.61c1.51-.83,3.6-6.69,4.69-10,.84-2.54,1.41-4.56,1.41-4.56l14.5,1.12s-1.5,13.05-1.6,14.64a13.13,13.13,0,0,0,0,2.2C180.13,193.46,189.74,196.3,189.74,196.3Z"/><path class="cls-49" d="M179.78,189.14c-8.95-.19-12.89-7.48-14.32-11.2.84-2.54,1.41-4.56,1.41-4.56l14.5,1.12s-.59,4.41-1.06,8.74C180.08,185.41,179.87,187.56,179.78,189.14Z"/><path class="cls-49" d="M193.15,166.85c2.83-.5,5.44.82,5.82,3s-1.62,4.28-4.46,4.78-5.45-.83-5.82-3S190.31,167.35,193.15,166.85Z"/><path class="cls-29" d="M163.24,163.14c.63-11.34,6.86-20.7,15.9-20.2s16.19,4.29,15.23,21.45c-.61,10.94-4.09,21.06-14.44,21.16C168.91,184.94,162.6,174.49,163.24,163.14Z"/><path class="cls-49" d="M167.2,165.3c.92-1.36,2-3.52,3-4.75a7,7,0,0,0,5.78-5.46,14.94,14.94,0,0,0,5.79,4.43,3.8,3.8,0,0,0,2.46.37,2.1,2.1,0,0,0,1.43-2.54,21,21,0,0,0,7.81,2.93,25.5,25.5,0,0,1,.22,10.33,52.11,52.11,0,0,0,1.89-12.45,188.34,188.34,0,0,0-20.35-11.45,59,59,0,0,0-10.28,6.63A83.24,83.24,0,0,0,167.2,165.3Z"/><path class="cls-16" d="M160.84,167.26c1.6,1.28,2.76,1.86,4.57,3.15,1.65-3.35,2.85-6.81,4.27-10.25,2.34-.91,6-5.49,5.63-8.15,3.05,5.17,6.32,6.9,8,6.43,2-.54.33-3.51.07-3.95a29.05,29.05,0,0,0,10.66,5.39,39.24,39.24,0,0,1-.78,12.33c2.12-3.08,3.2-8.71,3.33-12.26a4.07,4.07,0,0,0,3.71-2.08,2.65,2.65,0,0,0,.34-1.18,5.11,5.11,0,0,0-3.8-4.5c3.56-1.61,4.1-3.77,2.11-6.67-3.58-5.22-13.92-7.63-21.18-4.6.22-.61,2-2.17.67-2.66a7.4,7.4,0,0,0-6.53,1.56,8.83,8.83,0,0,0-2.84,4.24,8.35,8.35,0,0,0-8.63,5.53C159.07,153.91,159.09,157.31,160.84,167.26Z"/><path class="cls-17" d="M172,139.83l.13-.06c1.1-.46,2.5-.69,3.36.13a2.21,2.21,0,0,1,.59,1.94,5.93,5.93,0,0,1-.9,2.07,23.67,23.67,0,0,1,19.14.15c1.75.8,3.6,2.12,3.73,4.05s-1.75,3.65-4,4.68a7,7,0,0,1,5.63,3.36,6.16,6.16,0,0,1,.72,1.74,2.65,2.65,0,0,0,.34-1.18,5.11,5.11,0,0,0-3.8-4.5c3.56-1.61,4.1-3.77,2.11-6.67-3.58-5.22-13.92-7.63-21.18-4.6.22-.61,2-2.17.67-2.66A7.35,7.35,0,0,0,172,139.83Z"/><path class="cls-29" d="M157.93,166.88c.8-2.14,3.68-3,6.44-2s4.34,3.59,3.55,5.72-3.68,3-6.44,2S157.14,169,157.93,166.88Z"/><path class="cls-50" d="M173.58,161a5.51,5.51,0,0,1,6.75-.1"/><path class="cls-50" d="M193.15,163.23c-1.62-1.9-3.64-2-5.21-.79"/><path class="cls-18" d="M178.45,169c0-.71.51-1.25,1.05-1.22a1.16,1.16,0,0,1,.91,1.33c0,.7-.51,1.25-1,1.22A1.16,1.16,0,0,1,178.45,169Z"/><path class="cls-18" d="M190.44,169.66c0-.7.51-1.25,1.05-1.22a1.16,1.16,0,0,1,.91,1.33c0,.71-.51,1.26-1.05,1.23A1.17,1.17,0,0,1,190.44,169.66Z"/><path class="cls-51" d="M184.73,170a4,4,0,0,0,1.39,3.48,5.24,5.24,0,0,1-1.56,2"/><path class="cls-51" d="M182.92,178.23s-2.91.23-6.41-3.06"/><path class="cls-52" d="M176.92,162.53a4.88,4.88,0,1,1-4.88,4.88A4.88,4.88,0,0,1,176.92,162.53Z"/><path class="cls-52" d="M186.16,169a4.5,4.5,0,1,1,3.57,5.59A4.69,4.69,0,0,1,186.16,169Z"/><path class="cls-52" d="M181.68,166.48a5.59,5.59,0,0,1,4.86.72"/><path class="cls-53" d="M172.44,165.34a18.59,18.59,0,0,0-5.3.71"/><path class="cls-54" d="M150.92,195.48l8.13-3.54s12.54,10.87,18.38,10c3.34-.48,6.94-6.58,6.94-6.58l12.19,6.41-.67,64.67s-34.17,2.07-46.47-2.45Z"/><polygon class="cls-29" points="241 242.52 250.76 236.07 242.45 231.32 233.36 234.96 241 242.52"/><path class="cls-14" d="M184,205.34l10.22-8.49a13.43,13.43,0,0,1,8.48,6c3.51,6.14,11.85,34,14.79,36.7,1.68,1.52,19.71-7.27,19.71-7.27l6.86,13.86s-22.89,18-32.44,18-22.59-24.66-22.59-24.66Z"/><path class="cls-12" d="M180.91,192s2.8,13.15,4.49,24.21a387.53,387.53,0,0,1,4.35,47.32,434.26,434.26,0,0,1-3.24,67.07l14,.67s3.92-123.35-1.65-131.48C196,195.68,180.91,192,180.91,192Z"/><path class="cls-24" d="M180.37,191.74s3.55,19.43,4.61,26.51,2.62,15.83,2.62,15.83l7.79-11-5.79-5.45s7.09-4.65,6.79-6.4-6.41-15.82-9-17.72C186,192.44,180.37,191.74,180.37,191.74Z"/><polygon class="cls-24" points="201.63 313.41 194.28 310.25 194.45 306.72 201.56 308.81 201.63 313.41"/><path class="cls-12" d="M139.48,200.29c2.36-7.57,18.35-12,18.35-12s11.27,10.83,13.13,30.2c2.57,26.66-7.8,112.27-7.8,112.27l-29.83-2S134.74,215.49,139.48,200.29Z"/><rect class="cls-24" x="139.67" y="305.74" width="18.73" height="3.57" transform="translate(-36.84 20.76) rotate(-7.09)"/><path class="cls-24" d="M171.37,233.69s1.29-19.67-3.87-31.42a101,101,0,0,0-8.48-14.7c-.8-.53-7.82,1.82-8.43,3.25,0,0,6.78,16.91,7.14,21.16.12,1.38,7.75,2.77,7.75,2.77l-5.72,7.78Z"/><polygon class="cls-49" points="188.21 253.26 169.65 260.26 169.58 247.28 185.42 245.85 188.21 253.26"/><path class="cls-14" d="M154.29,213.18c-.13-3.91-2.25-22.21-9.18-18.87-3.62,1.75-10.11,8.36-11.77,20.2-1.93,13.76-4.35,46.94,0,49.62,7.42,4.56,39.66-2.62,39.66-2.62l-.4-17.16s-20.09-.18-21.08-2.33C149.85,238.41,154.59,222.23,154.29,213.18Z"/><path class="cls-1" d="M293.32,236.77a23.15,23.15,0,0,0-25.94-11.17c-4.7,1.31-9,4.16-13.7,5.11a13.18,13.18,0,0,1-1.4.23c-8.84,1-17.71-5.51-26.24-2.94-8.95,2.71-12.44,13.83-20.44,18.66-10.48,6.31-24.62-.14-36,4.4-8.82,3.52-14.12,14.11-12.5,23.28a17.22,17.22,0,0,0-15.41-9.6,12.74,12.74,0,0,1,5.65-9.37c1.61-1,3.44-1.71,5-2.87s1.56-2.67,1.36-5.47c-.71-9.92,8-19.49,18-19.68,6.32-.11,12.52,3,18.78,2.11,7.08-1.05,12.31-6.9,17.1-12.21.21-.24.43-.47.65-.71,4.66-5.09,10.31-10.12,17.15-10.09,7.65,0,13.83,6.43,21.33,8,6.47,1.34,13.1-1.08,19.72-1.1C279,213.25,290.85,223,293.32,236.77Z"/><path class="cls-55" d="M293.32,236.77a23.15,23.15,0,0,0-25.94-11.17c-4.7,1.31-9,4.16-13.7,5.11.83-.44,1.65-.9,2.46-1.36,4.16-2.36,8.32-4.88,13-6s12-.72,15.52,2.5c-2.62-8-13.29-11.41-20.85-9.85-7,1.44-14,3.57-20.86,1.47-7.21-2.21-7.33-5.74-14.83-7.1-9.79-1.77-18.93,5.55-19.87,6.11,4.66-5.09,10.31-10.12,17.15-10.09,7.65,0,13.83,6.43,21.33,8,6.47,1.34,13.1-1.08,19.72-1.1C279,213.25,290.85,223,293.32,236.77Z"/><path class="cls-9" d="M278.11,220.14c-5.56-1.93-11.42-3.15-17.22-1.52-2.83.8-5.53,2-8.39,2.75a25,25,0,0,1-8.87.56c-5.71-.67-10.87-3.54-16.54-4.38a15.76,15.76,0,0,0-12.65,3.56c-3.36,2.77-5.88,6.38-8.86,9.53a21.75,21.75,0,0,1-12.69,6.89c-9.47,1.53-19.74-.93-28.44,4.18a15,15,0,0,0-5,4.59c-1.55,2.35-2,5.1-2.88,7.71-1,2.8-2.92,4.38-5.11,6.21-1.71,1.43-3.19,3-3.59,5.24-.15.83,1.17.88,1.31.06.39-2.21,2.31-3.64,4-5a13.89,13.89,0,0,0,4.11-4.65c1.11-2.33,1.4-4.95,2.48-7.29a12.57,12.57,0,0,1,4-4.79c7.89-5.78,18.37-3.64,27.43-4.69a23.44,23.44,0,0,0,12.63-5c3.28-2.74,5.79-6.24,8.71-9.33,3.07-3.26,6.72-6,11.37-6.07,5.56-.14,10.71,2.56,16,3.86a27.25,27.25,0,0,0,8.86.73,36.2,36.2,0,0,0,9.09-2.29,25.13,25.13,0,0,1,9.72-1.86,35.63,35.63,0,0,1,10.13,2.23A.67.67,0,0,0,278.11,220.14Z"/><path class="cls-29" d="M201.43,250.74c-.41,1.52-1.05,3.1-2.43,3.85s-12.07,1.23-17.32.65a.82.82,0,0,1-.47-.15,3.83,3.83,0,0,1-2.36-1.1c-1.6-1.6-1.77-4.41-1.41-4.76a18,18,0,0,1,5-.24c.52-2.36-.2-5.05.08-7a2.1,2.1,0,0,1,.71-1.49,1.43,1.43,0,0,1,1.58.15,3.63,3.63,0,0,1,1,1.34,18.32,18.32,0,0,1,1.77,5.62c-.16-1.86-.34-3.72-.52-5.58a5.29,5.29,0,0,1,0-1.82,1.78,1.78,0,0,1,1.14-1.33c1-.3,2,.71,2.52,1.67,1.48,2.79,1.86,6,2.2,9.12-.09-2.84-.19-5.69-.28-8.54,0-.94.1-2.13,1-2.43s1.86.8,2.27,1.77a23.74,23.74,0,0,1,1.82,9.5c.32-2.6.63-5.19,1-7.79.11-1,.44-2.15,1.39-2.32a1.53,1.53,0,0,1,1.47.77,3.86,3.86,0,0,1,.47,1.7A22.25,22.25,0,0,1,201.43,250.74Z"/><path class="cls-29" d="M242.65,233.21a3.88,3.88,0,0,1,.57-3.56,4.52,4.52,0,0,1,3.41-1.9c-.37-1.74-1-3.18-1.28-5.08a2,2,0,0,1,.26-1.55,1.39,1.39,0,0,1,1.5-.28,3.48,3.48,0,0,1,1.27,1,17.76,17.76,0,0,1,3.77,6.48l-2.6-6.77a5.34,5.34,0,0,1-.44-1.7,1.72,1.72,0,0,1,.71-1.52c.89-.55,2,.14,2.75.9,2.08,2.18,3.25,5,4.38,7.84q-1.23-3.9-2.45-7.8c-.27-.86-.46-2,.29-2.49s1.91.25,2.54,1a22.67,22.67,0,0,1,4.13,8.29c-.38-2.47-.75-4.95-1.13-7.42-.14-.92-.15-2.09.69-2.49a1.46,1.46,0,0,1,1.56.34,3.79,3.79,0,0,1,.87,1.44,22.18,22.18,0,0,1,1.58,7.88,5.6,5.6,0,0,1-1.25,4.18c-1,.94-10.68,6.41-15.68,7.23C246.34,237.65,244.47,234,242.65,233.21Z"/></g></g></svg>